<?xml version="1.0" encoding="utf-8"?>
<!-- Generator: Adobe Illustrator 16.0.0, SVG Export Plug-In . SVG Version: 6.00 Build 0)  -->
<!DOCTYPE svg PUBLIC "-//W3C//DTD SVG 1.1//EN" "http://www.w3.org/Graphics/SVG/1.1/DTD/svg11.dtd">
<svg version="1.1" id="Layer_1" xmlns="http://www.w3.org/2000/svg" xmlns:xlink="http://www.w3.org/1999/xlink" x="0px" y="0px"
	 width="512px" height="512px" viewBox="0 0 512 512" enable-background="new 0 0 512 512" xml:space="preserve">
<g>
	<path fill-rule="evenodd" clip-rule="evenodd" fill="#F7941D" d="M244.494,71.91c7.67,0,15.342,0,23.011,0
		c7.469,2.895,15.208,5.243,22.358,8.779c29.093,14.389,45.89,47.043,38.987,75.801c-16.99,7.66-33.723,16.379-45.608,33.017
		c8.428,5.756,15.782,10.778,23.418,15.991c2.746-2.412,5.208-4.633,7.729-6.783c32.467-27.677,80.287-23.767,107.705,8.711
		c10.489,12.426,14.5,27.497,17.995,42.821c0,3.835,0,7.67,0,11.506c-0.904,3.621-1.878,7.225-2.702,10.863
		c-8.484,37.416-43.671,62.426-80.441,57.15c-24.427-40.433-24.427-40.433-36.173-45.472c-4.939,7.338-9.896,14.703-14.875,22.1
		c2.838,3.078,5.177,5.459,7.341,7.988c27.64,32.3,23.753,80.125-8.566,107.63c-12.454,10.598-27.626,14.401-42.921,18.077
		c-3.836,0-7.67,0-11.506,0c-3.176-0.866-6.309-1.951-9.534-2.564c-38.187-7.281-65.752-46.44-57.835-82.496
		c17.298-7.871,34.264-16.424,45.862-33.387c-8.207-5.492-15.644-10.471-23.181-15.518c-4.244,3.416-8.195,6.9-12.445,9.971
		C147.76,348.859,87.85,326.851,74.26,272.525c-0.439-1.761-1.551-3.35-2.35-5.02c0-7.671,0-15.341,0-23.012
		c0.918-2.623,1.992-5.205,2.734-7.878c10.42-37.462,45.91-61.103,81.711-53.837c8.177,16.531,16.095,33.888,33.369,44.723
		c5.428-7.926,10.215-14.915,15.304-22.346c-2.565-3.11-4.996-5.983-7.347-8.922c-27.066-33.822-22.819-80.657,11.225-107.255
		C219.033,81.067,232.538,77.479,244.494,71.91z M255.992,213.143c-24.326-0.02-42.817,18.242-42.834,42.309
		c-0.018,23.402,19.507,43.176,42.718,43.258c22.788,0.082,42.979-20.213,42.96-43.181
		C298.817,231.445,280.337,213.162,255.992,213.143z"/>
</g>
</svg>
