<?xml version="1.0" encoding="utf-8"?>
<!-- Generator: Adobe Illustrator 16.0.0, SVG Export Plug-In . SVG Version: 6.00 Build 0)  -->
<!DOCTYPE svg PUBLIC "-//W3C//DTD SVG 1.1//EN" "http://www.w3.org/Graphics/SVG/1.1/DTD/svg11.dtd">
<svg version="1.1" id="Layer_1" xmlns="http://www.w3.org/2000/svg" xmlns:xlink="http://www.w3.org/1999/xlink" x="0px" y="0px"
	 width="512px" height="512px" viewBox="0 0 512 512" enable-background="new 0 0 512 512" xml:space="preserve">
<g enable-background="new    ">
	<path fill="#F7941D" d="M173.04,394.531c-3.711,3.712-9.036,5.971-14.522,5.971s-10.811-2.259-14.684-5.971l-17.104-17.427
		c-3.873-3.711-6.132-9.036-6.132-14.522s2.259-10.812,6.132-14.684l109.887-109.888c8.391,21.139,25.333,38.081,46.472,46.473
		L173.04,394.531z M168.845,341.928c-5.647,0-10.327,4.68-10.327,10.327s4.68,10.327,10.327,10.327s10.327-4.68,10.327-10.327
		S174.492,341.928,168.845,341.928z M381.681,231.395c-10.165,28.723-37.759,48.57-68.256,48.57c-39.856,0-72.29-32.434-72.29-72.29
		s32.434-72.29,72.29-72.29c11.779,0,27.108,3.55,36.952,10.166c1.613,1.129,2.582,2.582,2.582,4.518c0,1.775-1.13,3.55-2.582,4.519
		l-47.279,27.271v36.145l31.143,17.266c5.325-3.065,42.761-26.625,45.988-26.625s5.164,2.421,5.164,5.648
		C385.393,219.615,383.456,226.231,381.681,231.395z"/>
</g>
</svg>
