<?xml version="1.0" encoding="utf-8"?>
<!-- Generator: Adobe Illustrator 16.0.0, SVG Export Plug-In . SVG Version: 6.00 Build 0)  -->
<!DOCTYPE svg PUBLIC "-//W3C//DTD SVG 1.1//EN" "http://www.w3.org/Graphics/SVG/1.1/DTD/svg11.dtd">
<svg version="1.1" id="Layer_1" xmlns="http://www.w3.org/2000/svg" xmlns:xlink="http://www.w3.org/1999/xlink" x="0px" y="0px"
	 width="512px" height="512px" viewBox="0 0 512 512" enable-background="new 0 0 512 512" xml:space="preserve">
<g>
	<path fill-rule="evenodd" clip-rule="evenodd" fill="#F7941D" d="M354.739,402.009c2.679,6.552,5.374,13.104,8.035,19.672
		c2.011,4.958,0.561,9.258-3.669,11.022c-4.282,1.787-8.22-0.186-10.32-5.246c-2.764-6.655-5.504-13.32-8.191-20.007
		c-0.613-1.526-1.146-2.468-3.209-2.432c-19.158,0.338-38.318,0.641-57.479,0.706c-30.53,0.105-61.061,0.038-91.591-0.009
		c-3.66-0.006-7.342-0.149-10.972-0.585c-2.108-0.252-2.916,0.488-3.626,2.295c-2.634,6.706-5.387,13.366-8.146,20.022
		c-2.098,5.061-6.048,7.036-10.336,5.265c-4.228-1.749-5.703-6.06-3.696-11.033c2.645-6.552,5.345-13.081,7.934-19.404
		c-47.008-18.067-69.327-52.476-69.67-102.51c-1.752,0-3.592,0.031-5.432-0.007c-5.148-0.104-8.525-3.033-8.636-7.459
		c-0.115-4.546,3.331-7.753,8.653-7.765c21.297-0.049,42.594-0.03,63.891-0.03c49.937,0.001,99.874,0.005,149.811,0.008
		c1.168,0,2.335,0,4.082,0c0-2.457-0.062-4.653,0.012-6.845c0.18-5.34,3.145-8.273,8.518-8.283
		c19.525-0.035,39.05-0.031,58.575-0.004c5.828,0.009,8.643,2.894,8.708,8.766c0.023,1.983,0.005,3.966,0.005,6.366
		c1.714,0,3.095,0.001,4.477,0.001c14.787-0.001,29.575-0.043,44.363,0.05c1.942,0.014,4.086,0.333,5.777,1.206
		c3.05,1.576,4.076,4.492,3.52,7.842c-0.544,3.271-3.387,5.763-6.962,6.097c-1.745,0.162-3.52,0.027-5.382,0.027
		C423.457,349.154,401.591,383.789,354.739,402.009z M302.164,300.029c-65.967,0-131.333,0-196.833,0
		c-0.832,21.285,3.33,40.992,15.96,58.219c16.615,22.661,39.761,32.312,67.259,32.391c45.675,0.131,91.352,0.133,137.027-0.088
		c7.15-0.033,14.488-0.763,21.409-2.493c31.376-7.848,50.505-28.2,58.627-59.188c2.467-9.412,3.007-19.057,2.608-28.884
		c-10.202,0-20.072,0-30.244,0c0,1.609,0,3.003,0,4.398c0.003,15.501,0.018,31.002,0.007,46.503c-0.005,6.813-2.612,9.4-9.472,9.406
		c-18.932,0.013-37.865,0.007-56.798,0.002c-6.912-0.001-9.538-2.668-9.546-9.73c-0.014-11.003-0.005-22.006-0.005-33.008
		C302.164,311.783,302.164,306.011,302.164,300.029z M362.654,314.654c0.084-1.069,0.219-1.984,0.221-2.898
		c0.018-7.924-0.125-15.85,0.083-23.768c0.078-2.961-1.009-3.53-3.686-3.507c-12.777,0.111-25.558,0.036-38.339,0.044
		c-1.038,0.002-2.076,0.123-3.268,0.199c0,10.088,0,19.945,0,29.93C332.752,314.654,347.607,314.654,362.654,314.654z
		 M317.656,344.956c15.213,0,30.038,0,44.986,0c0-5.037,0-9.808,0-14.778c-15.086,0-29.925,0-44.986,0
		C317.656,335.146,317.656,339.934,317.656,344.956z"/>
	<path fill-rule="evenodd" clip-rule="evenodd" fill="#F7941D" d="M268.032,230.793c0.167,17.956-15.972,34.399-34.064,34.711
		c-17.912,0.309-34.834-16.331-34.907-34.32c-0.074-18.092,16.386-34.639,34.518-34.699
		C251.521,196.423,267.864,212.697,268.032,230.793z M233.838,211.744c-12.107-0.033-19.556,7.355-19.521,19.365
		c0.035,11.634,7.46,19.096,19.057,19.15c11.883,0.055,19.495-7.346,19.584-19.041C253.048,219.423,245.542,211.777,233.838,211.744
		z"/>
	<path fill-rule="evenodd" clip-rule="evenodd" fill="#F7941D" d="M177.778,178.499c0.039,13.665-12.861,26.732-26.52,26.865
		c-13.83,0.135-26.971-12.839-27.041-26.695c-0.071-13.869,12.885-27.007,26.695-27.069
		C164.681,151.539,177.739,164.612,177.778,178.499z M150.918,166.896c-7.681,0.045-11.661,4.145-11.588,11.941
		c0.066,7.172,4.288,11.318,11.561,11.355c7.522,0.039,11.899-4.353,11.828-11.869C162.65,170.93,158.44,166.854,150.918,166.896z"
		/>
	<path fill-rule="evenodd" clip-rule="evenodd" fill="#F7941D" d="M196.446,78.649c12.272-0.064,24.246,11.739,24.408,24.063
		c0.161,12.3-12.034,24.557-24.373,24.493c-12.256-0.063-24.149-11.986-24.223-24.284C172.186,90.727,184.157,78.714,196.446,78.649
		z M196.763,93.847c-6.253-0.031-9.214,2.854-9.249,9.011c-0.035,6.029,2.836,8.992,8.816,9.098
		c6.186,0.106,9.233-2.864,9.245-9.019C205.586,96.894,202.661,93.876,196.763,93.847z"/>
</g>
</svg>
