<?xml version="1.0" encoding="utf-8"?>
<!-- Generator: Adobe Illustrator 16.0.0, SVG Export Plug-In . SVG Version: 6.00 Build 0)  -->
<!DOCTYPE svg PUBLIC "-//W3C//DTD SVG 1.1//EN" "http://www.w3.org/Graphics/SVG/1.1/DTD/svg11.dtd">
<svg version="1.1" id="Layer_1" xmlns="http://www.w3.org/2000/svg" xmlns:xlink="http://www.w3.org/1999/xlink" x="0px" y="0px"
	 width="512px" height="512px" viewBox="0 0 512 512" enable-background="new 0 0 512 512" xml:space="preserve">
<g>
	<g>
		<path fill="none" stroke="#686868" stroke-width="4.7778" stroke-miterlimit="10" d="M90.268,346.724
			c-52.727-91.538-21.266-208.468,70.268-261.191c91.539-52.728,208.473-21.262,261.195,70.267
			c52.729,91.533,21.268,208.467-70.266,261.191C259.926,469.719,142.992,438.262,90.268,346.724z"/>
		<path fill="#727272" d="M154.125,401.677l-12.352,14.707c61.809,42.612,145.182,48.795,214.459,8.889l-9.537-16.55
			C284.561,444.5,209.891,439.335,154.125,401.677z"/>
		<path fill="#727272" d="M173.012,107.177c-79.58,45.842-106.932,147.509-61.094,227.08
			c45.836,79.579,147.504,106.921,227.064,61.089c79.59-45.842,106.941-147.5,61.1-227.07
			C354.25,88.705,252.582,61.34,173.012,107.177z M390.432,173.833c42.771,74.242,17.25,169.093-57.006,211.864
			c-74.232,42.763-169.092,17.25-211.863-57.002c-42.762-74.237-17.246-169.097,57.006-211.873
			C252.811,74.059,347.67,99.59,390.432,173.833z"/>
	</g>
</g>
<g>
	<path fill-rule="evenodd" clip-rule="evenodd" fill="#686868" d="M165.01,332.041c0.616-3.061,1.172-6.136,1.863-9.179
		c1.503-6.635,4.068-12.837,7.853-18.506c2.655-3.978,6.185-6.879,10.479-9.053c9.918-5.02,19.732-10.243,29.582-15.396
		c0.771-0.402,1.49-0.9,2.219-1.346c-1.499-2.335-3.232-4.367-4.222-6.713c-2.296-5.442-5.005-10.581-8.319-15.499
		c-3.23-4.793-4.141-10.379-3.462-16.157c0.172-1.463,0.677-2.694,2.05-3.531c0.453-0.276,0.789-1.093,0.811-1.675
		c0.158-4.439,0.24-8.88,0.318-13.321c0.23-13.313,10.153-24.134,23.396-25.712c7.151-0.853,14.075-0.382,20.597,2.851
		c7.995,3.966,12.453,10.713,13.68,19.327c0.779,5.476,0.54,11.098,0.723,16.656c0.03,0.928,0.303,1.459,1.061,2.155
		c0.935,0.859,1.664,2.309,1.821,3.585c1.013,8.234-2.067,15.16-7.142,21.419c-0.753,0.928-1.335,2.069-1.727,3.205
		c-1.496,4.338-3.365,8.46-6.303,12.036c-0.291,0.352-0.527,0.747-0.927,1.322c2.435,1.433,4.706,2.911,7.101,4.153
		c7.977,4.143,15.92,8.359,24.027,12.234c5.513,2.634,9.655,6.499,12.715,11.696c4.769,8.104,7.129,16.951,8.146,26.207
		c0.318,2.897-0.729,4.749-3.8,5.869c-3.366,1.226-6.862,2.291-10.393,2.837c-10.915,1.687-21.857,3.22-32.822,4.546
		c-4.452,0.539-8.986,0.379-13.481,0.57c-0.997,0.042-1.987,0.227-2.979,0.346c-3.08,0-6.161,0-9.241,0
		c-1.229-0.126-2.456-0.287-3.687-0.371c-7.311-0.494-14.638-0.82-21.931-1.503c-5.402-0.506-10.788-1.321-16.133-2.267
		c-5.397-0.954-10.752-2.167-16.093-3.408c-2.559-0.594-4.651-2.007-5.779-4.536C165.01,333.937,165.01,332.989,165.01,332.041z"/>
	<path fill-rule="evenodd" clip-rule="evenodd" fill="#686868" d="M346.99,211.55c-0.159,0.368-0.346,0.727-0.474,1.106
		c-1.085,3.217-3.818,5.216-7.247,5.221c-9.532,0.013-19.064-0.027-28.596,0.057c-0.931,0.008-2.083,0.486-2.747,1.139
		c-6.631,6.514-13.18,13.11-19.755,19.682c-0.409,0.408-0.838,0.796-1.636,1.552c0-1.018,0.001-1.627,0-2.237
		c-0.002-6.039-0.05-12.079,0.024-18.116c0.02-1.603-0.423-2.232-2.1-2.111c-1.944,0.139-3.906,0.055-5.859,0.021
		c-4.035-0.069-7.219-3.196-7.23-7.229c-0.036-12.729-0.041-25.458-0.011-38.188c0.01-4.259,3.36-7.338,7.911-7.344
		c12.552-0.017,25.104-0.006,37.655-0.006c6.632,0,13.269,0.166,19.892-0.054c5.133-0.171,8.785,1.417,10.172,6.698
		C346.99,185.011,346.99,198.28,346.99,211.55z M278.646,180.343c0.991,0,1.689,0,2.387,0c6.213-0.003,12.427-0.009,18.64-0.008
		c12.604,0,25.208-0.029,37.812,0.046c1.765,0.011,2.299-0.565,2.137-2.231c-0.121-1.23-0.133-2.493-0.004-3.722
		c0.176-1.675-0.492-2.089-2.098-2.082c-12.189,0.061-24.379,0.035-36.568,0.036c-6.864,0-13.728-0.006-20.592,0.004
		c-0.785,0.001-1.744-0.236-1.723,1.117C278.672,175.682,278.646,177.863,278.646,180.343z M278.736,195.374
		c15.193,0,30.309,0,45.463,0c0-2.643,0-5.143,0-7.637c-15.224,0-30.295,0-45.463,0
		C278.736,190.306,278.736,192.764,278.736,195.374z M309.273,210.503c0-1.994-0.095-3.931,0.027-5.854
		c0.105-1.621-0.566-2.023-2.064-1.99c-3.724,0.08-7.451,0.026-11.177,0.026c-5.203,0-10.408-0.029-15.61,0.038
		c-0.603,0.008-1.693,0.514-1.716,0.845c-0.151,2.276-0.079,4.566-0.079,6.934C288.906,210.503,298.936,210.503,309.273,210.503z"/>
</g>
</svg>
