<?xml version="1.0" encoding="utf-8"?>
<!-- Generator: Adobe Illustrator 16.0.0, SVG Export Plug-In . SVG Version: 6.00 Build 0)  -->
<!DOCTYPE svg PUBLIC "-//W3C//DTD SVG 1.1//EN" "http://www.w3.org/Graphics/SVG/1.1/DTD/svg11.dtd">
<svg version="1.1" id="Layer_1" xmlns="http://www.w3.org/2000/svg" xmlns:xlink="http://www.w3.org/1999/xlink" x="0px" y="0px"
	 width="512px" height="512px" viewBox="0 0 512 512" enable-background="new 0 0 512 512" xml:space="preserve">
<g>
	<path d="M405.108,167.912V397.31c0,6.211-2.271,11.588-6.811,16.13c-4.542,4.539-9.918,6.811-16.129,6.811H129.831
		c-6.214,0-11.59-2.271-16.13-6.811c-4.542-4.542-6.81-9.919-6.81-16.13V167.912c0-6.211,2.268-11.588,6.81-16.13
		c4.54-4.539,9.916-6.81,16.13-6.81h22.939v-17.205c0-7.886,2.806-14.635,8.423-20.252c5.615-5.614,12.366-8.423,20.251-8.423h11.47
		c7.885,0,14.634,2.809,20.251,8.423c5.614,5.617,8.423,12.366,8.423,20.252v17.205h68.819v-17.205
		c0-7.886,2.806-14.635,8.423-20.252c5.615-5.614,12.366-8.423,20.251-8.423h11.47c7.885,0,14.634,2.809,20.251,8.423
		c5.614,5.617,8.423,12.366,8.423,20.252v17.205h22.94c6.211,0,11.587,2.271,16.129,6.81
		C402.837,156.324,405.108,161.701,405.108,167.912z M129.831,265.406h51.614v-51.614h-51.614V265.406z M129.831,334.226h51.614
		v-57.35h-51.614V334.226z M129.831,397.31h51.614v-51.614h-51.614V397.31z M198.65,179.382v-51.614
		c0-1.552-0.568-2.896-1.703-4.032c-1.137-1.135-2.481-1.703-4.032-1.703h-11.47c-1.554,0-2.898,0.568-4.032,1.703
		c-1.137,1.137-1.703,2.48-1.703,4.032v51.614c0,1.555,0.565,2.898,1.703,4.032c1.134,1.137,2.478,1.703,4.032,1.703h11.47
		c1.551,0,2.895-0.566,4.032-1.703C198.082,182.28,198.65,180.937,198.65,179.382z M192.916,265.406h57.349v-51.614h-57.349V265.406
		z M192.916,334.226h57.349v-57.35h-57.349V334.226z M192.916,397.31h57.349v-51.614h-57.349V397.31z M261.735,265.406h57.349
		v-51.614h-57.349V265.406z M261.735,334.226h57.349v-57.35h-57.349V334.226z M261.735,397.31h57.349v-51.614h-57.349V397.31z
		 M336.289,179.382v-51.614c0-1.552-0.568-2.896-1.703-4.032c-1.137-1.135-2.481-1.703-4.032-1.703h-11.47
		c-1.554,0-2.898,0.568-4.032,1.703c-1.137,1.137-1.703,2.48-1.703,4.032v51.614c0,1.555,0.566,2.898,1.703,4.032
		c1.134,1.137,2.478,1.703,4.032,1.703h11.47c1.551,0,2.896-0.566,4.032-1.703C335.721,182.28,336.289,180.937,336.289,179.382z
		 M330.554,265.406h51.614v-51.614h-51.614V265.406z M330.554,334.226h51.614v-57.35h-51.614V334.226z M330.554,397.31h51.614
		v-51.614h-51.614V397.31z"/>
</g>
</svg>
