<?xml version="1.0" encoding="utf-8"?>
<!-- Generator: Adobe Illustrator 16.0.0, SVG Export Plug-In . SVG Version: 6.00 Build 0)  -->
<!DOCTYPE svg PUBLIC "-//W3C//DTD SVG 1.1//EN" "http://www.w3.org/Graphics/SVG/1.1/DTD/svg11.dtd">
<svg version="1.1" id="Layer_1" xmlns="http://www.w3.org/2000/svg" xmlns:xlink="http://www.w3.org/1999/xlink" x="0px" y="0px"
	 width="512px" height="512px" viewBox="0 0 512 512" enable-background="new 0 0 512 512" xml:space="preserve">
<g>
	<path fill-rule="evenodd" clip-rule="evenodd" d="M255.802,242.726c-3.729-1.072-7.744-1.684-11.281-3.323
		c-46.064-21.369-92.061-42.883-138.075-64.359c-0.302-0.141-0.671-0.2-0.905-0.413c-1.982-1.805-3.941-3.635-5.907-5.458
		c1.917-1.849,3.516-4.376,5.798-5.448c46.115-21.654,92.318-43.119,138.476-64.683c8.073-3.771,15.978-3.827,24.058-0.052
		c46.308,21.633,92.656,43.181,138.924,64.901c2.155,1.012,3.666,3.398,5.476,5.144c-1.781,1.764-3.251,4.188-5.389,5.194
		c-46.701,21.971-93.459,43.82-140.272,65.553C263.469,241.284,259.728,241.696,255.802,242.726z"/>
	<path fill-rule="evenodd" clip-rule="evenodd" d="M256.152,415.813c-4.003-1.12-8.035-1.682-11.568-3.32
		c-46.524-21.567-92.995-43.252-139.4-65.076c-2.251-1.059-3.771-3.673-5.631-5.563c1.836-1.729,3.399-4,5.558-5.092
		c7.87-3.983,15.916-7.626,23.94-11.297c7.391-3.381,14.859-3.381,22.232,0.052c30.641,14.265,61.304,28.483,91.869,42.91
		c8.788,4.148,17.097,4.064,25.876-0.087c30.556-14.446,61.221-28.66,91.87-42.907c7.198-3.347,14.556-3.344,21.781-0.096
		c8.048,3.618,16.089,7.277,23.945,11.287c2.272,1.16,3.9,3.585,5.823,5.431c-1.918,1.854-3.518,4.388-5.803,5.464
		c-38.865,18.296-77.814,36.411-116.745,54.566c-7.395,3.448-14.714,7.068-22.213,10.271
		C264.085,413.896,260.146,414.646,256.152,415.813z"/>
	<path fill-rule="evenodd" clip-rule="evenodd" d="M140.129,235.974c4.12,1.229,8.424,1.974,12.258,3.739
		c30.834,14.2,61.58,28.592,92.352,42.926c7.561,3.522,15.092,3.473,22.655-0.057c30.913-14.427,61.838-28.825,92.76-43.233
		c7.701-3.588,15.454-3.641,23.165-0.129c8.026,3.656,16.062,7.308,23.937,11.271c2.018,1.016,4.989,3.439,4.781,4.798
		c-0.311,2.027-2.711,4.402-4.807,5.392c-34.911,16.482-69.912,32.771-104.894,49.102c-11.308,5.278-22.66,10.465-33.917,15.851
		c-8.208,3.927-16.269,4.003-24.517,0.147c-45.824-21.424-91.692-42.756-137.471-64.275c-2.612-1.228-4.574-3.839-6.837-5.806
		c2.193-2.006,4.09-4.584,6.638-5.909c7.229-3.757,14.648-7.181,22.147-10.372C131.981,237.886,135.931,237.173,140.129,235.974z"/>
</g>
</svg>
