<?xml version="1.0" encoding="utf-8"?>
<!-- Generator: Adobe Illustrator 16.0.0, SVG Export Plug-In . SVG Version: 6.00 Build 0)  -->
<!DOCTYPE svg PUBLIC "-//W3C//DTD SVG 1.1//EN" "http://www.w3.org/Graphics/SVG/1.1/DTD/svg11.dtd">
<svg version="1.1" id="Layer_1" xmlns="http://www.w3.org/2000/svg" xmlns:xlink="http://www.w3.org/1999/xlink" x="0px" y="0px"
	 width="512px" height="512px" viewBox="0 0 512 512" enable-background="new 0 0 512 512" xml:space="preserve">
<g>
	<g>
		<path fill="none" stroke="#686868" stroke-width="4.7778" stroke-miterlimit="10" d="M90.269,346.724
			c-52.728-91.539-21.267-208.468,70.267-261.191c91.539-52.728,208.473-21.262,261.196,70.267
			c52.729,91.533,21.267,208.467-70.267,261.191C259.927,469.719,142.992,438.262,90.269,346.724z"/>
		<path fill="#727272" d="M154.125,401.677l-12.351,14.707c61.808,42.612,145.181,48.795,214.459,8.889l-9.537-16.55
			C284.562,444.5,209.891,439.335,154.125,401.677z"/>
		<path fill="#727272" d="M173.012,107.177c-79.58,45.842-106.931,147.509-61.094,227.08
			c45.837,79.579,147.505,106.921,227.065,61.089c79.589-45.842,106.94-147.5,61.099-227.07
			C354.25,88.705,252.582,61.34,173.012,107.177z M390.433,173.833c42.771,74.242,17.25,169.093-57.006,211.864
			c-74.233,42.763-169.093,17.25-211.864-57.002c-42.762-74.237-17.245-169.097,57.006-211.873
			C252.811,74.059,347.671,99.59,390.433,173.833z"/>
	</g>
	<g>
		<path fill-rule="evenodd" clip-rule="evenodd" fill="#686868" d="M258.113,233.127c4.351,4.403,8.596,8.739,12.884,13.034
			c14.133,14.157,28.272,28.306,42.441,42.426c0.93,0.925,1.356,1.825,1.351,3.167c-0.052,12.89-0.029,25.779-0.033,38.669
			c-0.001,4.416-1.63,6.031-6.06,6.031c-33.806,0-67.612,0-101.417-0.002c-4.419,0-6.049-1.632-6.048-6.049
			c0.002-12.95-0.013-25.9,0.051-38.852c0.004-0.863,0.369-1.957,0.958-2.551c18.271-18.359,36.59-36.671,54.902-54.988
			C257.358,233.798,257.592,233.603,258.113,233.127z M286.598,273.738c-0.191-0.496-0.235-0.912-0.464-1.152
			c-1.364-1.442-2.716-2.907-4.186-4.238c-0.87-0.788-1.928-0.504-2.562,0.378c-1.313,1.828-2.755,1.83-4.474,0.656
			c-0.438-0.298-1.12-0.274-1.499-0.612c-0.561-0.497-1.29-1.15-1.358-1.8c-0.338-3.258-0.34-3.404-3.596-3.676
			c-1.25-0.106-2.59-0.05-3.772,0.314c-0.675,0.208-1.646,1.262-1.564,1.797c0.376,2.534-0.937,3.5-3.065,3.997
			c-0.461,0.107-0.871,0.566-1.316,0.584c-0.685,0.029-1.661,0.069-2.024-0.335c-1.942-2.157-2.51-2.519-5.559,0.184
			c-0.677,0.6-1.233,1.337-1.825,2.025c-1.05,1.218-1.116,2.407,0.217,3.454c1.344,1.056,1.769,2.215,0.664,3.705
			c-0.246,0.331-0.428,0.756-0.501,1.162c-0.327,1.827-1.362,2.541-3.201,2.285c-1.488-0.206-2.349,0.578-2.426,2.036
			c-0.087,1.623-0.082,3.257-0.006,4.881c0.063,1.368,0.848,2.206,2.262,1.988c2.042-0.313,3.041,0.588,3.469,2.483
			c0.144,0.636,0.683,1.201,0.76,1.832c0.082,0.673,0.084,1.682-0.32,2.03c-2.298,1.98-2.324,2.773,0.18,5.561
			c0.604,0.674,1.331,1.237,2.02,1.832c1.219,1.046,2.421,1.118,3.455-0.226c1.059-1.377,2.222-1.73,3.702-0.662
			c0.337,0.243,0.754,0.443,1.16,0.51c1.847,0.31,2.538,1.359,2.272,3.19c-0.167,1.155,0.269,2.205,1.503,2.308
			c1.971,0.164,3.978,0.188,5.939-0.017c0.555-0.058,1.482-1.177,1.42-1.715c-0.284-2.439,0.824-3.589,3.047-4.046
			c0.404-0.084,0.795-0.312,1.149-0.539c0.913-0.588,1.705-0.506,2.396,0.346c1.889,2.336,2.687,2.041,5.104,0.02
			c0.649-0.541,1.229-1.183,1.762-1.839c1.586-1.956,1.583-2.485-0.257-4.268c-0.92-0.892-1.251-1.716-0.493-2.854
			c0.299-0.447,0.576-0.972,0.655-1.492c0.314-2.057,1.519-2.683,3.47-2.442c1.317,0.162,2.116-0.574,2.173-1.878
			c0.076-1.739,0.073-3.488-0.007-5.227c-0.063-1.339-0.933-1.991-2.222-1.803c-2.018,0.294-3.107-0.512-3.414-2.494
			c-0.046-0.292-0.178-0.596-0.352-0.834c-1.087-1.501-0.878-2.738,0.597-3.88C285.996,274.892,286.262,274.229,286.598,273.738z
			 M230.014,287.039c-1.812,0.461-3.661,0.82-5.416,1.442c-0.578,0.206-1.4,1.238-1.279,1.643c0.66,2.198-0.573,3.248-2.127,4.274
			c-0.597,0.395-1.13,0.939-1.566,1.513c-0.783,1.022-1.695,1.3-2.854,0.748c-1.089-0.517-1.996-0.186-2.412,0.851
			c-0.761,1.9-1.455,3.844-1.944,5.826c-0.139,0.562,0.411,1.805,0.844,1.909c2.023,0.491,2.456,1.824,2.545,3.622
			c0.048,0.949,0.548,1.87,0.642,2.822c0.063,0.64,0.001,1.612-0.4,1.92c-1.827,1.395-1.398,2.772-0.178,4.18
			c1.03,1.188,2.065,2.407,3.282,3.38c0.511,0.408,1.883,0.579,2.204,0.236c1.387-1.476,2.716-1.17,4.241-0.399
			c0.691,0.35,1.477,0.569,2.245,0.702c1.349,0.236,2.226,0.845,2.357,2.307c0.113,1.227,0.979,1.735,2.039,1.563
			c2.021-0.329,4.044-0.745,5.995-1.355c0.528-0.164,1.249-1.299,1.107-1.741c-0.595-1.862,0.29-2.814,1.676-3.725
			c0.748-0.492,1.414-1.162,1.986-1.86c0.806-0.978,1.657-1.328,2.854-0.744c1.158,0.565,2.076,0.127,2.511-0.992
			c0.72-1.855,1.423-3.737,1.863-5.669c0.135-0.587-0.497-1.854-0.997-1.987c-1.748-0.47-2.269-1.534-2.344-3.165
			c-0.042-0.894-0.248-1.821-0.586-2.649c-0.514-1.258-0.348-2.214,0.759-3.029c0.938-0.694,1.124-1.647,0.403-2.538
			c-1.292-1.592-2.638-3.154-4.104-4.583c-0.387-0.376-1.658-0.532-1.906-0.248c-1.587,1.811-3.17,1.162-4.88,0.327
			c-0.696-0.341-1.585-0.318-2.238-0.709c-0.692-0.414-1.569-1.037-1.725-1.718C232.266,287.69,231.516,287.113,230.014,287.039z
			 M304.049,321.38c-0.568-0.654-0.964-1-1.218-1.428c-0.393-0.664-0.853-1.354-0.986-2.088c-0.172-0.941-0.114-1.942-0.021-2.906
			c0.046-0.481,0.264-1.174,0.619-1.359c1.615-0.846,1.322-1.975,0.635-3.199c-0.502-0.897-1.03-1.785-1.601-2.641
			c-0.575-0.863-1.271-1.081-2.345-0.662c-0.636,0.247-1.549,0.048-2.247-0.202c-0.842-0.301-1.635-0.808-2.362-1.341
			c-0.438-0.32-1.023-0.875-1.008-1.305c0.063-1.689-0.868-2.112-2.27-2.113c-1.03,0-2.062,0.004-3.092,0.036
			c-1.12,0.037-1.739,0.478-1.854,1.752c-0.056,0.622-0.691,1.289-1.229,1.744c-0.637,0.539-1.408,0.994-2.197,1.256
			c-0.703,0.233-1.51,0.141-2.269,0.217c-0.654,0.066-1.62-0.073-1.902,0.296c-0.947,1.236-1.698,2.636-2.414,4.03
			c-0.177,0.345-0.078,1.215,0.144,1.321c2.335,1.118,1.491,3.211,1.502,4.954c0.006,0.746-0.447,1.729-1.021,2.201
			c-1.418,1.165-0.573,2.26-0.007,3.216c0.776,1.315,1.076,3.255,3.258,3.166c0.057-0.002,0.111-0.045,0.169-0.063
			c2.272-0.741,5.519,1.167,6.039,3.484c0.429,1.916,2.099,1.375,3.293,1.373c1.324-0.003,3.149,0.677,3.74-1.266
			c0.748-2.474,3.661-4.26,6.117-3.581c0.37,0.104,1.021,0.114,1.183-0.103C301.85,324.645,302.901,323.049,304.049,321.38z"/>
		<path fill-rule="evenodd" clip-rule="evenodd" fill="#686868" d="M257.687,225.116c-0.665,0.828-1.143,1.548-1.742,2.147
			c-19.292,19.314-38.604,38.611-57.896,57.926c-2.618,2.623-5.593,3.979-9.364,3.173c-6.812-1.455-9.82-9.513-5.571-15.029
			c0.553-0.718,1.213-1.359,1.857-2.003c22.783-22.791,45.569-45.577,68.356-68.361c3.491-3.491,5.815-3.514,9.296-0.035
			c23.046,23.041,46.09,46.085,69.124,69.138c2.815,2.816,3.841,6.161,2.547,10.002c-1.263,3.746-3.988,5.89-7.864,6.443
			c-3.24,0.463-5.938-0.766-8.218-3.047c-14.656-14.665-29.319-29.323-43.979-43.984c-4.987-4.986-9.977-9.972-14.97-14.954
			C258.888,226.157,258.473,225.818,257.687,225.116z"/>
		<path fill-rule="evenodd" clip-rule="evenodd" fill="#686868" d="M210.554,197.923c-1.186-5.842-2.658-11.487-3.429-17.228
			c-1.329-9.897,4.73-17.098,15.191-18.888c4.201-0.719,7.779-0.036,10.87,3.076c0.84,0.846,2.169,1.286,3.347,1.702
			c4.284,1.51,8.654,2.788,12.874,4.453c1.814,0.716,3.496,1.991,4.966,3.315c4.301,3.872,4.667,10.126,1.02,14.621
			c-5.57,6.869-14.644,6.685-19.871-0.378c-1.226-1.657-2.402-3.389-3.854-4.831c-2.474-2.454-6.497-1.833-7.946,1.345
			c-1.351,2.962-2.207,6.149-3.283,9.238c-1.542,4.425-0.93,3.776-5.075,3.586C213.854,197.865,212.341,197.923,210.554,197.923z"/>
		<path fill-rule="evenodd" clip-rule="evenodd" fill="#686868" d="M203.713,245.908c0-4.33,0-8.375,0-12.42
			c0-9.656-0.001-19.311,0-28.966c0-2.793,0.766-3.563,3.563-3.564c5.162-0.002,10.324-0.01,15.484,0.011
			c2.777,0.012,3.445,0.707,3.445,3.439c-0.001,5.951,0.027,11.902-0.038,17.853c-0.008,0.763-0.273,1.735-0.783,2.25
			c-6.88,6.945-13.824,13.829-20.757,20.722C204.433,245.426,204.181,245.565,203.713,245.908z"/>
		<path fill-rule="evenodd" clip-rule="evenodd" fill="#686868" d="M267.544,277.004c5.524,0.001,9.979,4.418,9.992,9.906
			c0.013,5.455-4.443,9.946-9.942,10.025c-5.523,0.077-10.037-4.465-10.001-10.064C257.63,281.284,261.947,277.002,267.544,277.004z
			"/>
		<path fill-rule="evenodd" clip-rule="evenodd" fill="#686868" d="M231.441,297.852c4.748,0.039,8.564,3.876,8.542,8.59
			c-0.022,4.766-3.955,8.595-8.787,8.555c-4.726-0.04-8.539-3.898-8.515-8.615C222.705,301.559,226.555,297.811,231.441,297.852z"/>
		<path fill-rule="evenodd" clip-rule="evenodd" fill="#686868" d="M289.767,323.094c-3.595-0.033-6.397-2.921-6.353-6.547
			c0.043-3.625,2.873-6.402,6.517-6.394c3.622,0.007,6.46,2.859,6.432,6.465C296.335,320.361,293.518,323.129,289.767,323.094z"/>
	</g>
</g>
</svg>
