<?xml version="1.0" encoding="utf-8"?>
<!-- Generator: Adobe Illustrator 16.0.0, SVG Export Plug-In . SVG Version: 6.00 Build 0)  -->
<!DOCTYPE svg PUBLIC "-//W3C//DTD SVG 1.1//EN" "http://www.w3.org/Graphics/SVG/1.1/DTD/svg11.dtd">
<svg version="1.1" id="Layer_1" xmlns="http://www.w3.org/2000/svg" xmlns:xlink="http://www.w3.org/1999/xlink" x="0px" y="0px"
	 width="512px" height="512px" viewBox="0 0 512 512" enable-background="new 0 0 512 512" xml:space="preserve">
<g>
	<path fill-rule="evenodd" clip-rule="evenodd" fill="#F7941D" d="M244.128,459.464c-62.836,0-125.326,0-187.828,0
		c-0.273-16.194,6.281-28.667,20.094-36.595c8.682-4.983,18.115-8.642,27.13-13.06c6.474-3.171,13.122-6.147,19.125-10.077
		c5.578-3.652,5.213-5.52,1.456-10.994c-15.888-23.151-22.887-48.531-16.691-76.308c4.954-22.205,21.35-33.51,45.321-32.927
		c20.732,0.502,36.719,13.79,40.568,34.994c4.989,27.483-1.672,52.59-17.984,75.029c-3.005,4.133-2.496,6.882,0.961,9.229
		c4.926,3.346,10.142,6.361,15.512,8.937c8.897,4.271,18.27,7.597,26.989,12.181C236.449,429.163,242.375,438.775,244.128,459.464z
		 M218.288,441.776c0.154-0.339,0.308-0.679,0.461-1.017c-1.948-1.405-3.753-3.097-5.873-4.159
		c-6.139-3.081-12.406-5.905-18.619-8.835c-8.124-3.834-16.443-7.309-24.308-11.616c-6.992-3.827-12.522-9.582-14.053-17.71
		c-0.957-5.081-2.785-10.324,1.783-15.416c16.458-18.354,22.185-40.202,18.663-64.31c-2.055-14.06-11.105-21.253-25.169-21.647
		c-14.766-0.417-24.049,5.877-26.883,20.063c-4.695,23.505,0.997,45.11,16.124,63.408c5.471,6.617,5.4,12.408,3.499,19.317
		c-1.82,6.613-6.213,11.546-11.866,15.065c-5.367,3.338-11.074,6.183-16.806,8.873c-8.454,3.966-17.125,7.469-25.569,11.451
		c-3.004,1.417-5.616,3.664-8.407,5.532c0.191,0.333,0.382,0.666,0.574,1C127.32,441.776,172.804,441.776,218.288,441.776z"/>
	<path fill-rule="evenodd" clip-rule="evenodd" fill="#F7941D" d="M455.687,232.534c-62.314,0-124.808,0-187.577,0
		c0.352-12.641,3.279-24.292,13.898-31.716c8.592-6.01,18.225-10.582,27.594-15.41c6.258-3.225,12.948-5.602,19.273-8.708
		c2.8-1.375,5.334-3.436,7.698-5.517c2.68-2.354,3.089-4.587,0.545-8.072c-16.346-22.395-23.297-47.413-18.405-74.934
		c4.061-22.846,20.452-35.73,43.769-35.642c22.635,0.085,39.147,13.491,42.965,36.043c4.558,26.919-2.077,51.469-17.734,73.654
		c-3.547,5.025-3.775,6.566,1.206,10.259c3.929,2.915,8.315,5.327,12.76,7.402c8.306,3.877,16.91,7.124,25.197,11.039
		C444.17,199.106,456.289,211.142,455.687,232.534z M293.156,213.351c0.219,0.414,0.438,0.829,0.656,1.241
		c45.551,0,91.102,0,136.653,0c0.188-0.57,0.377-1.141,0.566-1.711c-8.023-3.91-16.039-7.837-24.073-11.725
		c-8.878-4.296-18.069-8.045-26.583-12.97c-9.215-5.328-13.875-13.967-13.505-24.765c0.081-2.357,1.188-5.131,2.74-6.914
		c16.076-18.476,22.086-40.006,18.782-63.942c-2.109-15.285-11.716-22.553-27.227-22.362c-14.571,0.178-23.66,7.85-25.6,22.966
		c-3.082,24.001,3.071,45.46,19.291,63.768c0.995,1.124,2.116,2.603,2.208,3.979c0.504,7.609-0.359,15.265-6.098,20.69
		c-4.922,4.653-10.647,8.754-16.645,11.901c-8.412,4.419-17.486,7.551-26.118,11.577C303.029,207.5,298.162,210.575,293.156,213.351
		z"/>
	<path fill-rule="evenodd" clip-rule="evenodd" fill="#F7941D" d="M61.764,209.446c3.48-3.377,7.402-7.183,12.325-11.958
		c5.698,6.362,11.515,12.859,17.333,19.356c0.449-0.269,0.898-0.538,1.347-0.807c0-33.271,0-66.54,0-100.263
		c65.109,0,129.666,0,194.659,0c0,5.451,0,10.981,0,17.119c-58.68,0-117.404,0-176.453,0c0,28.437,0,56.279,0,83.198
		c5.921-5.989,12.373-12.512,19.139-19.354c4.97,5.615,8.649,9.774,11.847,13.39c-12.854,12.841-26.528,26.499-39.98,39.938
		C89.324,237.283,75.701,223.523,61.764,209.446z"/>
	<path fill-rule="evenodd" clip-rule="evenodd" fill="#F7941D" d="M435.147,313.297c-3.786,3.649-7.699,7.419-12.413,11.963
		c-5.625-6.247-11.47-12.742-17.315-19.238c-0.561,0.325-1.12,0.65-1.68,0.972c0,33.391,0,66.778,0,100.456
		c-65.135,0-129.557,0-194.847,0c0-5.003-0.25-10.058,0.23-15.041c0.086-0.898,3.167-2.146,4.872-2.156
		c22.79-0.141,45.582-0.087,68.373-0.085c32.509,0.003,65.017,0.007,97.526,0.009c1.894,0,3.786,0,6.013,0
		c0-28.509,0-56.305,0-84.56c-6.754,6.925-13.192,13.527-19.433,19.926c-4.911-4.981-8.828-8.952-12.421-12.596
		c13.26-13.271,26.937-26.961,40.488-40.524C407.777,285.748,421.316,299.376,435.147,313.297z"/>
</g>
</svg>
