<?xml version="1.0" encoding="utf-8"?>
<!-- Generator: Adobe Illustrator 16.0.0, SVG Export Plug-In . SVG Version: 6.00 Build 0)  -->
<!DOCTYPE svg PUBLIC "-//W3C//DTD SVG 1.1//EN" "http://www.w3.org/Graphics/SVG/1.1/DTD/svg11.dtd">
<svg version="1.1" id="Layer_1" xmlns="http://www.w3.org/2000/svg" xmlns:xlink="http://www.w3.org/1999/xlink" x="0px" y="0px"
	 width="512px" height="512px" viewBox="0 0 512 512" enable-background="new 0 0 512 512" xml:space="preserve">
<g enable-background="new    ">
	<path fill="#F7941D" d="M396.959,352.255c0,5.647-4.68,10.327-10.327,10.327H118.126c-5.647,0-10.327-4.68-10.327-10.327v-20.654
		c0-5.647,4.68-10.327,10.327-10.327h268.506c5.647,0,10.327,4.68,10.327,10.327V352.255z M376.305,228.329
		c0,5.647-4.68,10.327-10.327,10.327H138.78c-5.647,0-10.327-4.68-10.327-10.327v-20.654c0-5.647,4.68-10.327,10.327-10.327h227.197
		c5.647,0,10.327,4.68,10.327,10.327V228.329z M334.996,290.292c0,5.647-4.68,10.327-10.327,10.327h-144.58
		c-5.647,0-10.327-4.68-10.327-10.327v-20.654c0-5.647,4.68-10.327,10.327-10.327h144.58c5.647,0,10.327,4.68,10.327,10.327V290.292
		z M314.342,166.366c0,5.647-4.68,10.327-10.327,10.327H200.743c-5.647,0-10.327-4.68-10.327-10.327v-20.654
		c0-5.647,4.68-10.327,10.327-10.327h103.271c5.647,0,10.327,4.68,10.327,10.327V166.366z"/>
</g>
</svg>
