<?xml version="1.0" encoding="utf-8"?>
<!-- Generator: Adobe Illustrator 16.0.0, SVG Export Plug-In . SVG Version: 6.00 Build 0)  -->
<!DOCTYPE svg PUBLIC "-//W3C//DTD SVG 1.1//EN" "http://www.w3.org/Graphics/SVG/1.1/DTD/svg11.dtd">
<svg version="1.1" id="Layer_1" xmlns="http://www.w3.org/2000/svg" xmlns:xlink="http://www.w3.org/1999/xlink" x="0px" y="0px"
	 width="512px" height="512px" viewBox="0 0 512 512" enable-background="new 0 0 512 512" xml:space="preserve">
<g>
	<path fill-rule="evenodd" clip-rule="evenodd" fill="#F7941D" d="M326.853,72.83c15.194,15.113,30.395,30.221,45.578,45.345
		c7.939,7.909,15.961,15.741,23.675,23.863c1.613,1.699,2.889,4.52,2.893,6.827c0.147,90.125,0.133,180.251,0.126,270.375
		c-0.001,13.414-6.566,19.928-19.996,19.928c-82.258,0.002-164.517,0.003-246.774,0.001c-12.669-0.001-19.45-6.763-19.45-19.395
		c-0.001-109.438,0.018-218.875-0.033-328.313c-0.005-9.705,4.974-15.437,13.639-18.631C193.292,72.83,260.072,72.83,326.853,72.83z
		 M318.982,84.418c-1.125-0.064-1.712-0.127-2.3-0.127c-61.88-0.004-123.76-0.009-185.64,0.008
		c-4.721,0.002-6.662,2.154-6.662,7.229c-0.007,109.451-0.009,218.904-0.004,328.357c0,6.111,1.772,7.828,7.872,7.828
		c82.508,0.002,165.016,0.006,247.523,0.008c6.093,0.001,7.898-1.786,7.898-7.829c0.001-87.753,0.003-175.505-0.004-263.258
		c0-1.149-0.104-2.297-0.171-3.668c-1.572,0-2.864,0-4.156,0c-18.958,0-37.915,0.008-56.872-0.004
		c-5.614-0.003-7.474-1.869-7.479-7.511c-0.014-14.426-0.004-28.854-0.004-43.28C318.982,96.353,318.982,90.534,318.982,84.418z
		 M330.572,141.21c16.278,0,32.222,0,47.388,0c-15.701-15.689-31.632-31.609-47.388-47.354
		C330.572,109.258,330.572,125.151,330.572,141.21z"/>
	<path fill-rule="evenodd" clip-rule="evenodd" fill="#F7941D" d="M347.575,393.356c-9.168-5.503-17.558-10.453-25.844-15.572
		c-1.961-1.211-3.386-1.331-5.423-0.063c-8.271,5.152-16.676,10.091-25.849,15.601c1.137-4.729,2.058-8.668,3.034-12.593
		c2.786-11.203,5.51-22.422,8.461-33.581c0.652-2.463,0.278-3.723-1.919-5.179c-13.963-9.251-19.156-26.664-12.682-41.854
		c6.454-15.143,22.528-23.64,38.508-20.356c16.243,3.337,27.872,17.806,27.414,34.537c-0.325,11.896-5.689,21.229-15.566,27.844
		c-1.861,1.247-2.428,2.234-1.826,4.559C339.817,361.886,343.536,377.128,347.575,393.356z"/>
	<path fill-rule="evenodd" clip-rule="evenodd" fill="#F7941D" d="M255.61,187.468c-29.313-0.004-58.625-0.004-87.937-0.007
		c-1.192,0-2.388,0.039-3.573-0.054c-3.206-0.254-5.074-2.103-5.317-5.22c-0.247-3.165,1.516-5.182,4.54-5.947
		c1.13-0.286,2.364-0.22,3.55-0.221c59.221-0.01,118.441-0.01,177.662-0.01c0.596,0,1.191-0.008,1.787,0.006
		c4.398,0.102,7.075,2.368,6.987,5.91c-0.086,3.464-2.55,5.52-6.904,5.526c-20.375,0.032-40.75,0.018-61.126,0.02
		C275.39,187.473,265.5,187.473,255.61,187.468z"/>
	<path fill-rule="evenodd" clip-rule="evenodd" fill="#F7941D" d="M256.172,221.823c-29.79,0-59.579,0.001-89.368-0.004
		c-1.071,0-2.157,0.033-3.211-0.118c-2.851-0.412-4.49-2.213-4.814-4.967c-0.331-2.809,1.035-4.901,3.681-5.848
		c1.3-0.465,2.798-0.516,4.206-0.516c59.341-0.021,118.682-0.018,178.023-0.014c5.778,0.001,8.567,1.852,8.621,5.706
		c0.054,3.895-2.669,5.743-8.483,5.743c-29.551,0.002-59.103,0.001-88.654,0.001C256.172,221.813,256.172,221.818,256.172,221.823z"
		/>
	<path fill-rule="evenodd" clip-rule="evenodd" fill="#F7941D" d="M255.793,256.151c-29.432,0-58.863,0.002-88.295-0.003
		c-1.31,0-2.635,0.061-3.926-0.111c-2.867-0.384-4.891-2.295-4.641-4.956c0.189-2.011,1.835-4.074,3.299-5.691
		c0.676-0.748,2.464-0.662,3.748-0.663c59.936-0.032,119.872-0.04,179.808,0.004c1.608,0.001,3.779,0.085,4.694,1.061
		c1.38,1.473,2.812,3.935,2.498,5.663c-0.313,1.728-2.618,3.241-4.309,4.503c-0.708,0.527-2.08,0.199-3.15,0.2
		c-29.909,0.007-59.817,0.005-89.725,0.005C255.793,256.16,255.793,256.155,255.793,256.151z"/>
	<path fill-rule="evenodd" clip-rule="evenodd" fill="#F7941D" d="M221.577,153.129c-18.591-0.004-37.184,0.004-55.775-0.01
		c-4.518-0.003-7.098-2.121-7.078-5.716c0.02-3.557,2.635-5.713,7.152-5.724c13.229-0.035,26.458-0.022,39.688-0.023
		c23.358-0.002,46.718,0,70.078,0c0.596,0,1.192-0.012,1.788,0.002c4.387,0.099,7.153,2.361,7.129,5.826
		c-0.024,3.508-2.703,5.639-7.205,5.643C258.761,153.14,240.169,153.133,221.577,153.129z"/>
	<path fill-rule="evenodd" clip-rule="evenodd" fill="#F7941D" d="M210.13,290.494c-14.896,0-29.791,0.021-44.686-0.013
		c-4.106-0.01-6.534-2.019-6.711-5.336c-0.191-3.59,2.438-6.054,6.788-6.082c10.247-0.065,20.496-0.029,30.743-0.03
		c18.947-0.002,37.894-0.001,56.84-0.001c0.477,0,0.954-0.007,1.43,0.004c4.385,0.099,7.151,2.361,7.127,5.827
		c-0.025,3.507-2.703,5.637-7.204,5.641c-14.776,0.015-29.552,0.006-44.328,0.006C210.13,290.505,210.13,290.5,210.13,290.494z"/>
	<path fill-rule="evenodd" clip-rule="evenodd" fill="#F7941D" d="M210.081,324.853c-15.015-0.003-30.031,0.022-45.046-0.021
		c-3.894-0.012-6.357-2.365-6.312-5.752c0.043-3.224,2.421-5.438,6.119-5.676c0.594-0.037,1.191-0.015,1.788-0.015
		c18.113-0.002,36.227-0.006,54.341-0.007c10.725,0,21.45,0.004,32.175,0.01c1.072,0.001,2.158-0.064,3.213,0.083
		c3.13,0.433,5.337,2.892,5.292,5.772c-0.048,3.096-2.385,5.487-5.811,5.542c-7.148,0.114-14.299,0.06-21.449,0.065
		C226.287,324.86,218.184,324.856,210.081,324.853z"/>
	<path fill-rule="evenodd" clip-rule="evenodd" fill="#F7941D" d="M210.296,359.184c-14.777,0-29.554,0.049-44.33-0.063
		c-1.79-0.013-4.255-0.351-5.187-1.516c-1.205-1.505-1.882-4.123-1.526-6.025c0.544-2.906,3.233-3.845,6.104-3.845
		c10.487,0.005,20.974-0.002,31.461-0.003c19.067,0,38.134-0.005,57.202,0.018c1.176,0.001,2.411,0.04,3.518,0.386
		c2.867,0.895,4.349,3.041,4.026,5.968c-0.32,2.888-2.083,4.876-5.151,4.998c-4.165,0.164-8.339,0.095-12.51,0.098
		c-11.202,0.009-22.404,0.003-33.606,0.003C210.296,359.195,210.296,359.189,210.296,359.184z"/>
	<path fill-rule="evenodd" clip-rule="evenodd" fill="#F7941D" d="M210.239,393.546c-14.538,0-29.075,0.001-43.614-0.004
		c-0.952,0-1.916,0.031-2.855-0.092c-3.013-0.394-4.739-2.226-5.002-5.167c-0.253-2.816,1.185-4.825,3.846-5.747
		c1.092-0.379,2.333-0.448,3.506-0.449c29.195-0.02,58.39-0.012,87.585-0.009c0.596,0,1.194-0.023,1.787,0.017
		c3.622,0.242,6.114,2.553,6.155,5.686c0.043,3.336-2.446,5.707-6.363,5.722c-15.015,0.056-30.029,0.022-45.044,0.022
		C210.239,393.531,210.239,393.538,210.239,393.546z"/>
</g>
</svg>
