<?xml version="1.0" encoding="utf-8"?>
<!-- Generator: Adobe Illustrator 16.0.0, SVG Export Plug-In . SVG Version: 6.00 Build 0)  -->
<!DOCTYPE svg PUBLIC "-//W3C//DTD SVG 1.1//EN" "http://www.w3.org/Graphics/SVG/1.1/DTD/svg11.dtd">
<svg version="1.1" id="Layer_1" xmlns="http://www.w3.org/2000/svg" xmlns:xlink="http://www.w3.org/1999/xlink" x="0px" y="0px"
	 width="512px" height="512px" viewBox="0 0 512 512" enable-background="new 0 0 512 512" xml:space="preserve">
<g>
	<path fill-rule="evenodd" clip-rule="evenodd" fill="#F7941D" d="M338.504,272.535c0,43.27,0.007,126.539-0.006,169.811
		c-0.003,7.531-4.393,13.082-11.164,13.115c-4.282,0.02-8.591-1.191-12.851-2.039c-24.935-4.959-49.855-9.984-74.786-14.963
		c-7.508-1.5-11.095-5.707-11.096-13.375c-0.014-75.061-0.013-190.123,0.002-265.185c0.001-7.51,3.603-11.841,10.811-13.274
		c28.082-5.583,56.159-11.18,84.24-16.768c8.299-1.651,14.809,3.624,14.832,12.18c0.058,20.43,0.028,40.859,0.03,61.29
		c0.004,23.069,0,46.138,0,69.208C338.513,272.535,338.509,272.535,338.504,272.535z M267.178,267.072
		c-0.006-5.307-1.497-9.975-4.198-13.123c-4.233-4.931-9.949-4.863-14.084,0.167c-5.521,6.717-5.453,19.292,0.141,25.94
		c4.068,4.838,9.764,4.918,13.837,0.084C266.036,276.387,267.214,271.912,267.178,267.072z"/>
	<path fill-rule="evenodd" clip-rule="evenodd" fill="#F7941D" d="M140.433,262.959c0-47.409-0.002-94.818,0.002-142.227
		c0-15.471,8.887-24.387,24.307-24.389c61.299-0.007,122.598-0.01,183.896-0.011c13.475,0,22.922,9.462,22.924,23.009
		c0.013,95.277,0.014,230.555,0.018,325.831c0,1.033,0.011,2.068-0.018,3.1c-0.133,4.691-2.604,7.227-7.236,7.355
		c-2.294,0.063-4.592,0.043-6.887,0.006c-5.131-0.086-7.594-2.516-7.604-7.652c-0.035-16.873-0.025-33.748-0.024-50.623
		c0.002-76.566,0.009-193.131,0.009-269.698c0-7.14-2.381-9.557-9.445-9.558c-56.365-0.011-112.729-0.014-169.094-0.014
		c-6.537,0-9.102,2.602-9.102,9.217c0.001,92.981,0.004,225.963,0.012,318.943c0,7.412-1.983,9.422-9.361,9.402
		c-11.689-0.029-12.401-0.723-12.404-12.531c-0.012-46.721-0.004-133.439-0.004-180.16
		C140.425,262.959,140.429,262.959,140.433,262.959z"/>
</g>
</svg>
