<?xml version="1.0" encoding="utf-8"?>
<!-- Generator: Adobe Illustrator 16.0.0, SVG Export Plug-In . SVG Version: 6.00 Build 0)  -->
<!DOCTYPE svg PUBLIC "-//W3C//DTD SVG 1.1//EN" "http://www.w3.org/Graphics/SVG/1.1/DTD/svg11.dtd">
<svg version="1.1" id="Layer_1" xmlns="http://www.w3.org/2000/svg" xmlns:xlink="http://www.w3.org/1999/xlink" x="0px" y="0px"
	 width="512px" height="512px" viewBox="0 0 512 512" enable-background="new 0 0 512 512" xml:space="preserve">
<g>
	<path fill-rule="evenodd" clip-rule="evenodd" fill="#F7941D" d="M408.652,444.933c-4.859,0-9.438,0-14.568,0
		c0-2.204,0-4.151,0-6.099c-0.002-76.815,0-194.631-0.014-271.446c-0.001-9.974-1.924-11.802-12.056-11.803
		c-77.481-0.003-174.962-0.014-252.443-0.019c-9.618-0.001-11.645,2.043-11.644,11.729c0.004,76.982,0.01,194.964,0.016,271.946
		c0,1.789,0,3.579,0,5.669c-5.094,0-9.67,0-14.621,0c-0.098-1.78-0.262-3.389-0.262-4.998
		c-0.012-78.148-0.023-197.296,0.007-275.444c0.005-14.09,9.356-23.698,23.408-23.71c79.647-0.073,179.296-0.066,258.944-0.008
		c13.846,0.01,23.48,9.49,23.492,23.147c0.064,78.815,0.032,198.629,0.02,277.444C408.932,442.459,408.762,443.578,408.652,444.933z
		"/>
	<path fill-rule="evenodd" clip-rule="evenodd" fill="#F7941D" d="M308.402,358.662c-5.729,0-11.541,0-18.399,0
		c-0.756,25.317-1.495,50.164-2.254,75.555c-16.75,0-32.61-0.009-48.47,0.003c-15.536,0.012-15.646,0.021-15.688-11.164
		c-0.083-21.139-0.024-42.278-0.024-64.096c-7.925,0-13.901,0-20.475,0c-0.428-6.419-0.949-12.188-1.168-17.964
		c-0.84-22.145-1.605-74.291-2.352-96.438c-0.425-12.603,10.424-20.881,27.557-20.941c19.552-0.069,39.106-0.109,58.657,0.017
		c15.251,0.099,26.584,8.19,26.291,19.255c-0.74,27.977-1.915,85.947-2.942,113.92C309.119,357.271,308.783,357.728,308.402,358.662
		z M268.208,343.93c8.282,0,14.484,0,20.586,0c0.313-1.425,0.56-2.076,0.585-2.73c0.838-22.313,1.607-74.629,2.512-96.94
		c0.179-4.398-2.722-5.862-8.322-5.836c-18.417,0.089-36.836,0.002-55.254,0.05c-6.949,0.019-8.682,1.447-8.496,6.697
		c0.751,21.148,1.518,72.297,2.301,93.445c0.059,1.607,0.307,3.212,0.512,5.287c4.516,0,8.386,0.252,12.17-0.059
		c5.763-0.474,7.301,1.273,7.359,5.318c0.316,21.32,0.979,42.639,1.539,63.959c0.051,1.931,0.231,3.859,0.378,6.215
		c6.089,0,11.535-0.268,16.909,0.074c5.694,0.361,7.379-1.117,7.336-5.275C268.082,391.155,268.208,368.174,268.208,343.93z"/>
	<path fill-rule="evenodd" clip-rule="evenodd" fill="#F7941D" d="M248.293,98.75c0-14.858,0-29.42,0-45.28
		c-3.031,3.002-5.27,5.299-7.595,7.503c-3.86,3.661-8.381,3.88-11.479,0.633c-3.027-3.172-2.787-7.243,0.922-11.027
		c6.523-6.657,13.104-13.261,19.774-19.77c4.212-4.109,7.925-4.014,12.123,0.137c6.509,6.437,12.995,12.898,19.407,19.431
		c3.925,3.999,4.182,8.186,0.922,11.414c-3.143,3.113-7.601,2.827-11.434-1.034c-2.088-2.104-3.797-4.585-5.677-6.896
		c-0.476,0.316-0.95,0.633-1.427,0.949c0,14.578,0,29.157,0,43.735c0.336,0.278,0.671,0.555,1.006,0.833
		c2.064-2.312,4.014-4.741,6.218-6.91c3.825-3.763,8.35-4.003,11.424-0.816c3.061,3.173,2.892,7.356-0.751,11.083
		c-6.63,6.785-13.324,13.51-20.122,20.126c-3.798,3.697-7.601,3.709-11.437-0.014c-6.926-6.723-13.747-13.558-20.471-20.483
		c-3.379-3.482-3.38-7.606-0.411-10.68c3.006-3.113,7.4-2.966,11.058,0.427c2.313,2.146,4.561,4.36,6.852,6.531
		C247.289,98.732,247.518,98.681,248.293,98.75z"/>
	<path fill-rule="evenodd" clip-rule="evenodd" fill="#F7941D" d="M255.953,215.8c-14.14,0.032-22.451-8.114-22.518-22.07
		c-0.068-14.554,8.285-22.946,22.817-22.924c13.858,0.021,22.248,8.504,22.214,22.463
		C278.432,207.787,270.458,215.767,255.953,215.8z M255.973,202.554c6.676,0.002,9.086-2.347,9.123-8.891
		c0.039-7.069-2.163-9.327-9.102-9.33c-6.842-0.003-9.064,2.145-9.098,8.793C246.861,200.154,249.17,202.551,255.973,202.554z"/>
</g>
</svg>
