<?xml version="1.0" encoding="utf-8"?>
<!-- Generator: Adobe Illustrator 16.0.0, SVG Export Plug-In . SVG Version: 6.00 Build 0)  -->
<!DOCTYPE svg PUBLIC "-//W3C//DTD SVG 1.1//EN" "http://www.w3.org/Graphics/SVG/1.1/DTD/svg11.dtd">
<svg version="1.1" id="Layer_1" xmlns="http://www.w3.org/2000/svg" xmlns:xlink="http://www.w3.org/1999/xlink" x="0px" y="0px"
	 width="512px" height="512px" viewBox="0 0 512 512" enable-background="new 0 0 512 512" xml:space="preserve">
<g>
	<path fill-rule="evenodd" clip-rule="evenodd" fill="#F7941D" d="M144.778,256.324c-2.118-4.548-4.921-9.737-7.021-15.196
		c-14.435-37.542-10.632-72.841,16.492-103.158c35.966-40.199,96.704-33.629,124.484,12.72
		c18.216,30.394,19.416,62.033,4.884,94.301c-1.626,3.613-3.344,7.184-4.962,10.799c-0.179,0.398,0.019,0.963,0.042,1.45
		c0.192,0.46,0.254,1.139,0.599,1.347c25.42,15.367,34.963,38.123,31.784,67.129c-0.754,6.891,0.011,13.936-0.157,20.904
		c-0.732,30.249-22.936,53.096-52.942,53.558c-30.869,0.474-61.755,0.455-92.624,0.01c-30.078-0.432-52.447-23.173-53.169-53.32
		c-0.262-10.95,0.357-21.93-0.152-32.863c-1.051-22.571,8.485-39.334,26.97-51.563c1.643-1.088,3.174-2.355,4.691-3.618
		C144.036,258.539,144.104,257.929,144.778,256.324z M211.682,380.771c11.45,0,22.901,0.07,34.352-0.021
		c11.303-0.089,21.037-4.461,30.699-10.153c20.135-11.863,20.902-73.631-1.146-86.407c-9.3-5.388-16.756-7.65-27.282-1.405
		c-24.136,14.318-49.238,13.495-73.961,0.215c-12.633-6.787-18.891-6.125-29.25,3.432c-8.411,7.759-12.973,17.528-13.369,29.037
		c-0.206,5.968-0.107,11.948-0.069,17.922c0.188,30.28,16.582,46.802,47.17,47.362C189.773,380.953,200.729,380.786,211.682,380.771
		z M272.477,197.491c-0.04-8.008-3.29-20.908-8.937-32.19c-10.511-21.004-28.396-33.673-52.308-33.57
		c-23.249,0.099-40.159,12.764-51.56,32.674c-15.025,26.238-12.193,61.942,6.55,85.494c23.607,29.665,64.463,30.472,89.156,1.818
		C267.634,237.5,271.375,220.295,272.477,197.491z"/>
	<path fill-rule="evenodd" clip-rule="evenodd" fill="#F7941D" d="M355.019,185.071c-10.909,0-21.817,0.045-32.725-0.018
		c-6.562-0.037-12.281-1.919-12.297-9.675c-0.015-7.758,5.685-9.688,12.259-9.701c21.815-0.045,43.632-0.04,65.448-0.006
		c6.584,0.01,12.286,1.932,12.299,9.666c0.014,7.727-5.677,9.681-12.262,9.718C376.834,185.113,365.926,185.071,355.019,185.071z"/>
	<path fill-rule="evenodd" clip-rule="evenodd" fill="#F7941D" d="M355.474,219.456c10.909,0.009,21.819-0.06,32.728,0.035
		c6.7,0.057,12.062,2.434,11.815,10.135c-0.216,6.791-5.198,9.15-11.277,9.176c-22.313,0.094-44.628,0.101-66.941,0.028
		c-6.683-0.022-12.146-2.422-11.798-10.137c0.349-7.752,6.285-9.222,12.746-9.238C333.655,219.427,344.563,219.447,355.474,219.456z
		"/>
	<path fill-rule="evenodd" clip-rule="evenodd" fill="#F7941D" d="M363.979,292.598c-8.42,0-16.844,0.133-25.26-0.044
		c-6.161-0.128-10.81-2.778-10.816-9.581c-0.009-6.799,4.62-9.547,10.787-9.6c16.84-0.141,33.683-0.137,50.521-0.005
		c6.177,0.048,10.813,2.805,10.82,9.576c0.009,6.767-4.607,9.485-10.792,9.611C380.821,292.725,372.399,292.598,363.979,292.598z"/>
	<path fill-rule="evenodd" clip-rule="evenodd" fill="#F7941D" d="M365.069,327.09c7.926,0,15.853-0.099,23.775,0.032
		c6.095,0.101,10.942,2.463,11.188,9.251c0.242,6.737-4.18,9.871-10.421,9.931c-17.335,0.168-34.673,0.172-52.006-0.073
		c-5.567-0.078-9.575-3.138-9.717-9.092c-0.16-6.779,4.203-9.768,10.435-9.93c8.909-0.233,17.829-0.06,26.746-0.06
		C365.069,327.129,365.069,327.11,365.069,327.09z"/>
</g>
</svg>
