<?xml version="1.0" encoding="utf-8"?>
<!-- Generator: Adobe Illustrator 16.0.0, SVG Export Plug-In . SVG Version: 6.00 Build 0)  -->
<!DOCTYPE svg PUBLIC "-//W3C//DTD SVG 1.1//EN" "http://www.w3.org/Graphics/SVG/1.1/DTD/svg11.dtd">
<svg version="1.1" id="Layer_1" xmlns="http://www.w3.org/2000/svg" xmlns:xlink="http://www.w3.org/1999/xlink" x="0px" y="0px"
	 width="512px" height="512px" viewBox="0 0 512 512" enable-background="new 0 0 512 512" xml:space="preserve">
<g>
	<path fill-rule="evenodd" clip-rule="evenodd" fill="#F7941D" d="M401.072,467.665c-4.395-1.957-6.09-5.347-6.84-10.13
		c-6.734-42.945-13.779-85.841-20.643-128.767c-6.621-41.402-13.086-82.828-19.703-124.23
		c-6.598-41.265-13.303-82.512-19.953-123.769c-1.428-8.859-2.848-17.721-4.234-26.587c-0.771-4.933,2.012-9.097,6.426-9.729
		c4.691-0.671,8.277,2.093,9.096,7.213c5.682,35.589,11.295,71.188,16.996,106.774c6.033,37.661,12.172,75.306,18.203,112.967
		c5.189,32.401,10.281,64.818,15.434,97.227c4.555,28.666,8.982,57.354,13.826,85.972c0.996,5.885,0.145,10.152-5.234,13.059
		C403.32,467.665,402.197,467.665,401.072,467.665z"/>
	<path fill-rule="evenodd" clip-rule="evenodd" fill="#F7941D" d="M107.569,467.665c-5.418-2.885-6.231-7.197-5.254-13.054
		c5.123-30.704,9.843-61.476,14.751-92.216c4.908-30.74,9.895-61.468,14.806-92.208c4.933-30.878,9.79-61.77,14.725-92.648
		c4.625-28.938,9.312-57.867,13.964-86.801c2.07-12.876,4.113-25.757,6.183-38.633c0.911-5.672,4.554-8.557,9.52-7.585
		c4.374,0.855,6.754,4.989,5.939,10.065c-6.129,38.212-12.216,76.431-18.348,114.643c-6.087,37.936-12.25,75.858-18.309,113.798
		c-6.877,43.064-13.668,86.143-20.512,129.213c-2.508,15.786-5.125,31.557-7.544,47.357c-0.632,4.125-3.167,6.354-6.547,8.068
		C109.818,467.665,108.694,467.665,107.569,467.665z"/>
	<path fill-rule="evenodd" clip-rule="evenodd" fill="#F7941D" d="M254.321,467.665c-4.783-2.248-6.459-6.06-6.114-11.224
		c0.299-4.466-0.028-8.97,0.17-13.446c0.21-4.762,3.272-7.531,7.829-7.438c4.347,0.089,7.222,2.825,7.419,7.43
		c0.191,4.477-0.115,8.979,0.176,13.446c0.338,5.154-1.344,8.97-6.107,11.232C256.569,467.665,255.445,467.665,254.321,467.665z"/>
	<path fill-rule="evenodd" clip-rule="evenodd" fill="#F7941D" d="M183.587,296.657c-2.557,23.541-5.131,47.08-7.659,70.625
		c-0.748,6.968-1.305,13.956-2.059,20.923c-0.731,6.744-4.875,10.27-10.062,8.724c-4.091-1.219-5.98-3.828-5.564-8.645
		c0.867-10.051,1.938-20.085,2.998-30.118c2.091-19.788,4.23-39.57,6.358-59.354c0.194-1.81,0.391-3.623,0.688-5.418
		c0.836-5.027,4.163-7.906,8.455-7.383c4.641,0.566,7.181,4.054,6.821,9.375c-0.028,0.419-0.087,0.837-0.132,1.256
		C183.483,296.646,183.535,296.652,183.587,296.657z"/>
	<path fill-rule="evenodd" clip-rule="evenodd" fill="#F7941D" d="M353.795,387.22c0.385,3.565,0.049,7.206-3.555,8.668
		c-2.305,0.936-5.877,1.251-7.754,0.063c-2.102-1.331-3.756-4.545-4.16-7.162c-1.299-8.439-1.93-16.98-2.826-25.482
		c-2.115-20.071-4.234-40.142-6.352-60.213c-0.311-2.927-0.748-5.846-0.908-8.781c-0.24-4.43,2.914-7.973,7.201-8.32
		c4.053-0.329,7.67,2.472,8.168,6.783c1.748,15.171,3.357,30.358,5.002,45.541c1.582,14.626,3.145,29.254,4.709,43.881
		C353.498,383.869,353.637,385.546,353.795,387.22z"/>
	<path fill-rule="evenodd" clip-rule="evenodd" fill="#F7941D" d="M223.759,295.646c-1.348,24.394-2.665,48.095-3.962,71.797
		c-0.384,7.015-0.732,14.031-1.058,21.049c-0.25,5.383-3.569,9.036-8.109,8.841c-4.657-0.2-7.788-3.835-7.504-9.346
		c1.194-23.289,2.527-46.571,3.799-69.856c0.406-7.435,0.849-14.868,1.149-22.308c0.248-6.153,3.188-9.923,7.966-9.9
		C221.019,285.945,223.891,289.829,223.759,295.646z"/>
	<path fill-rule="evenodd" clip-rule="evenodd" fill="#F7941D" d="M308.773,387.024c0.367,7.498-4.17,11.823-10.123,9.754
		c-3.434-1.194-5.164-3.667-5.352-7.256c-1.152-21.985-2.289-43.972-3.453-65.956c-0.512-9.662-1.197-19.316-1.57-28.983
		c-0.195-5.091,3.201-8.624,7.729-8.643c4.242-0.019,7.602,3.421,7.859,8.238C305.518,325.126,307.141,356.075,308.773,387.024z"/>
	<path fill-rule="evenodd" clip-rule="evenodd" fill="#F7941D" d="M248.306,341.579c0-15.733-0.083-31.468,0.04-47.2
		c0.051-6.562,5.686-10.238,11.158-7.544c3.539,1.742,4.229,4.89,4.221,8.482c-0.035,14.188,0.018,28.377,0.023,42.564
		c0.006,16.296,0,32.592-0.012,48.888c-0.002,1.262,0,2.536-0.17,3.782c-0.543,3.967-4.012,6.942-7.83,6.806
		c-3.67-0.131-7.099-3.048-7.26-6.901c-0.295-7.011-0.2-14.04-0.22-21.063c-0.026-9.271-0.006-18.543-0.006-27.814
		C248.269,341.579,248.288,341.579,248.306,341.579z"/>
	<path fill-rule="evenodd" clip-rule="evenodd" fill="#F7941D" d="M248.432,231.332c0-3.076-0.215-6.171,0.053-9.224
		c0.367-4.181,3.485-6.642,7.764-6.536c3.966,0.098,7.107,2.676,7.271,6.623c0.252,6.003,0.277,12.032,0.025,18.034
		c-0.182,4.329-3.672,7.218-7.813,7.102c-3.931-0.111-7.013-2.999-7.315-7.19c-0.211-2.922-0.041-5.872-0.041-8.809
		C248.395,231.332,248.414,231.332,248.432,231.332z"/>
	<path fill-rule="evenodd" clip-rule="evenodd" fill="#F7941D" d="M263.619,157.795c0,3.078,0.178,6.169-0.045,9.23
		c-0.299,4.132-3.492,6.937-7.507,6.947c-4.009,0.012-7.441-2.779-7.618-6.84c-0.262-6.004-0.27-12.036-0.01-18.04
		c0.182-4.209,3.387-6.858,7.501-6.889c4.115-0.03,7.136,2.604,7.636,6.782c0.182,1.521,0.135,3.072,0.162,4.609
		c0.023,1.399,0.004,2.8,0.004,4.198C263.701,157.794,263.66,157.795,263.619,157.795z"/>
	<path fill-rule="evenodd" clip-rule="evenodd" fill="#F7941D" d="M248.429,84.676c0.005-3.077-0.205-6.172,0.057-9.226
		c0.34-3.958,3.395-6.512,7.353-6.575c4.179-0.068,7.48,2.504,7.664,6.665c0.271,6.143,0.264,12.314-0.012,18.456
		c-0.174,3.901-3.473,6.552-7.335,6.615c-4.115,0.068-7.329-2.572-7.68-6.708C248.216,90.848,248.424,87.753,248.429,84.676z"/>
</g>
</svg>
