<?xml version="1.0" encoding="utf-8"?>
<!-- Generator: Adobe Illustrator 16.0.0, SVG Export Plug-In . SVG Version: 6.00 Build 0)  -->
<!DOCTYPE svg PUBLIC "-//W3C//DTD SVG 1.1//EN" "http://www.w3.org/Graphics/SVG/1.1/DTD/svg11.dtd">
<svg version="1.1" id="Layer_1" xmlns="http://www.w3.org/2000/svg" xmlns:xlink="http://www.w3.org/1999/xlink" x="0px" y="0px"
	 width="512px" height="512px" viewBox="0 0 512 512" enable-background="new 0 0 512 512" xml:space="preserve">
<g>
	<path fill-rule="evenodd" clip-rule="evenodd" d="M256.332,88.426c57.445,0,114.889-0.013,172.332,0.008
		c14.723,0.005,26.326,11.522,26.33,26.182c0.025,94.382,0.031,188.764,0.012,283.146c-0.004,14.135-11.68,25.821-25.811,25.824
		c-115.18,0.017-230.359,0.009-345.539-0.015C71.078,423.568,57.004,409.608,57,397.123c-0.021-94.092-0.025-188.183,0.002-282.274
		c0.004-14.981,11.488-26.411,26.563-26.421c57.59-0.04,115.18-0.016,172.768-0.016C256.332,88.416,256.332,88.421,256.332,88.426z
		 M417.164,386.733c0-87.376,0-174.399,0-261.307c-107.699,0-215.086,0-322.404,0c0,87.268,0,174.188,0,261.307
		C202.273,386.733,309.557,386.733,417.164,386.733z"/>
	<path fill-rule="evenodd" clip-rule="evenodd" d="M255.166,250.664c4.176-4.389,7.881-8.461,11.775-12.34
		c6.611-6.583,14.695-5.239,18.75,3.188c14.484,30.09,28.916,60.207,43.301,90.344c4.551,9.533-0.389,17.485-11.047,17.5
		c-57.875,0.077-115.752,0.077-173.629,0.001c-10.398-0.014-15.342-7.839-11.037-17.237c20.313-44.354,40.664-88.688,61.064-133.001
		c4.543-9.87,8.311-12.215,16.697-11.569c5.568,0.429,8.902,3.559,11.553,8.094c10.043,17.18,20.186,34.303,30.295,51.443
		C253.404,247.958,253.975,248.795,255.166,250.664z"/>
	<path fill-rule="evenodd" clip-rule="evenodd" d="M380.328,199.474c0.426,20.556-16.205,37.621-36.941,37.911
		c-20.15,0.282-37.186-16.182-37.631-36.37c-0.457-20.695,16.004-37.973,36.529-38.339
		C363.002,162.307,379.9,178.65,380.328,199.474z"/>
</g>
</svg>
