<?xml version="1.0" encoding="utf-8"?>
<!-- Generator: Adobe Illustrator 16.0.0, SVG Export Plug-In . SVG Version: 6.00 Build 0)  -->
<!DOCTYPE svg PUBLIC "-//W3C//DTD SVG 1.1//EN" "http://www.w3.org/Graphics/SVG/1.1/DTD/svg11.dtd">
<svg version="1.1" id="Layer_1" xmlns="http://www.w3.org/2000/svg" xmlns:xlink="http://www.w3.org/1999/xlink" x="0px" y="0px"
	 width="512px" height="512px" viewBox="0 0 512 512" enable-background="new 0 0 512 512" xml:space="preserve">
<g>
	<path fill-rule="evenodd" clip-rule="evenodd" fill="#F7941D" d="M182.865,328.462c14.994,0.013,26.674,3.508,37.297,10.298
		c2.672,1.708,4.219,1.547,5.967-0.992c2.785-4.041,6.785-6.244,11.381-8.001c42.488-16.246,84.91-32.674,127.348-49.057
		c9.6-3.706,19.152-7.541,28.805-11.102c2.832-1.045,3.699-2.566,3.314-5.456c-3.139-23.599-6.229-47.204-9.262-70.815
		c-2.844-22.135-5.609-44.279-8.393-66.421c-0.607-4.829-1.156-9.664-1.701-14.5c-0.406-3.59,1.109-6.255,3.967-8.346
		c20.77-15.197,41.518-30.424,62.289-45.615c1.193-0.873,2.484-1.687,3.846-2.243c3.492-1.427,7.758-0.112,9.773,2.853
		c1.828,2.692,1.662,7.346-0.619,9.875c-1.346,1.489-3.006,2.724-4.635,3.921c-17.896,13.158-35.783,26.332-53.764,39.376
		c-2.828,2.05-3.93,4.073-3.426,7.757c3.35,24.525,6.439,49.086,9.57,73.642c2.84,22.27,5.625,44.546,8.438,66.819
		c0.391,3.085,0.764,6.173,1.23,9.246c1.094,7.218-0.275,9.804-7.174,12.485c-20.063,7.8-40.158,15.52-60.244,23.27
		c-34.355,13.257-68.711,26.51-103.063,39.777c-1.004,0.388-2.039,0.793-2.908,1.408c-4.979,3.528-5.205,5.006-1.668,9.92
		c15.818,21.972,14.273,53.522-3.721,76.027c-17.73,22.172-45.045,29.464-72.01,19.225c-26.354-10.008-42.979-35.017-41.051-62.824
		C124.762,355.708,152.5,327.76,182.865,328.462z M212.625,353.348c-16.42-13.618-44.289-10.815-61.645,7.137
		c-18.07,18.69-16.018,49.448,4.26,68.015c19.023,17.42,49.77,14.546,67.928-6.109c16.281-18.52,11.412-45.64,1.082-56.656
		c-1.461,1.579-2.953,3.104-4.348,4.715c-6.996,8.092-13.926,16.241-20.963,24.296c-3.42,3.913-8.268,4.372-11.934,1.35
		c-3.377-2.783-3.793-7.757-0.939-11.705c0.633-0.875,1.402-1.65,2.107-2.473C196.264,372.464,204.354,363.011,212.625,353.348z"/>
	<path fill-rule="evenodd" clip-rule="evenodd" fill="#F7941D" d="M228.57,306.368c-9.584-2.288-19.326-4.057-28.721-6.957
		c-33.053-10.204-64.686-24.058-96.1-38.395c-14.779-6.745-29.416-13.8-44.117-20.718c-3.604-1.696-6.516-3.837-6.369-8.455
		c0.148-4.732,3.182-6.79,7.033-8.409c56.293-23.675,112.57-47.382,168.852-71.083c35.191-14.819,70.381-29.643,105.57-44.464
		c0.498-0.21,0.994-0.428,1.496-0.632c7.734-3.146,12.707-0.415,14.102,7.833c1.129,6.668,2.203,13.348,3.203,20.036
		c4.078,27.29,8.146,54.581,12.158,81.88c1.297,8.832,2.416,17.69,3.594,26.54c0.834,6.271-0.549,9.098-6.318,11.563
		c-28.631,12.237-57.119,24.838-86.043,36.345c-14.141,5.626-29.113,9.169-43.727,13.595c-1.402,0.425-2.934,0.425-4.406,0.621
		C228.707,305.902,228.639,306.135,228.57,306.368z M82,232.332c2.107,1.143,3.105,1.767,4.168,2.25
		c21.074,9.581,41.975,19.57,63.289,28.583c17.686,7.479,35.799,13.972,53.842,20.581c13.611,4.987,27.457,7.354,41.615,1.678
		c4.264-1.71,8.844-2.64,13.088-4.388c29.541-12.163,59.037-24.433,88.533-36.706c5.949-2.476,5.898-2.548,4.949-9.002
		c-4.832-32.791-9.643-65.585-14.492-98.374c-0.51-3.443-1.246-6.854-2.031-11.121C250.635,161.335,166.867,196.602,82,232.332z"/>
</g>
</svg>
