<?xml version="1.0" encoding="utf-8"?>
<!-- Generator: Adobe Illustrator 16.0.0, SVG Export Plug-In . SVG Version: 6.00 Build 0)  -->
<!DOCTYPE svg PUBLIC "-//W3C//DTD SVG 1.1//EN" "http://www.w3.org/Graphics/SVG/1.1/DTD/svg11.dtd">
<svg version="1.1" id="Layer_1" xmlns="http://www.w3.org/2000/svg" xmlns:xlink="http://www.w3.org/1999/xlink" x="0px" y="0px"
	 width="512px" height="512px" viewBox="0 0 512 512" enable-background="new 0 0 512 512" xml:space="preserve">
<g>
	<path fill-rule="evenodd" clip-rule="evenodd" d="M256.444,163.086c6.53-12.824,14.974-23.471,25.635-32.391
		c37.613-31.473,108.051-27.093,135.877,32.411c15.876,33.951,15.253,67.231-5.248,99.524
		c-14.759,23.246-33.222,43.19-53.398,61.669c-30.843,28.246-64.484,52.797-99.838,75.059c-1.684,1.061-3.019,1.972-5.305,0.519
		c-44.605-28.348-86.896-59.628-123.56-97.957c-15.849-16.568-29.468-34.713-39.809-55.417
		c-21.081-42.211,0.99-114.776,57.21-131.104c41.433-12.031,82.476,4.406,105.93,43.427
		C254.672,160.046,255.383,161.279,256.444,163.086z"/>
</g>
</svg>
