<?xml version="1.0" encoding="utf-8"?>
<!-- Generator: Adobe Illustrator 16.0.0, SVG Export Plug-In . SVG Version: 6.00 Build 0)  -->
<!DOCTYPE svg PUBLIC "-//W3C//DTD SVG 1.1//EN" "http://www.w3.org/Graphics/SVG/1.1/DTD/svg11.dtd">
<svg version="1.1" id="Layer_1" xmlns="http://www.w3.org/2000/svg" xmlns:xlink="http://www.w3.org/1999/xlink" x="0px" y="0px"
	 width="512px" height="512px" viewBox="0 0 512 512" enable-background="new 0 0 512 512" xml:space="preserve">
<g>
	<path fill-rule="evenodd" clip-rule="evenodd" d="M256.072,406.384c-72.141-0.914-135.342-50.98-149.494-119.25
		c-15.996-77.168,28.623-151.858,104.451-174.85c81.094-24.588,167.707,21.02,191.434,100.805
		c24.818,83.441-27.355,170.658-113.133,188.714C278.406,404.102,267.166,404.894,256.072,406.384z M281.387,303.062
		c-0.791-0.403-1.584-0.805-2.377-1.207c-3.596,4.192-7.08,8.492-10.834,12.541c-2.734,2.951-5.693,5.735-8.836,8.241
		c-0.939,0.749-3.426,0.935-4.141,0.257c-1-0.949-1.289-2.938-1.348-4.5c-0.047-1.279,0.68-2.588,1.078-3.88
		c7.791-25.29,15.578-50.579,23.383-75.864c2.092-6.777,1.539-13.178-3.592-18.348c-5.221-5.263-11.705-6.557-18.738-4.127
		c-15.045,5.201-26.27,15.368-35.129,28.173c-1.607,2.321-0.934,6.222-1.313,9.392c5.73-4.678,9.916-9.727,14.264-14.633
		c1.779-2.01,3.736-3.97,5.947-5.456c1.244-0.837,3.926-1.438,4.613-0.767c1.107,1.077,1.516,3.316,1.449,5.035
		c-0.07,1.864-1.018,3.697-1.584,5.542c-7.65,24.93-15.373,49.836-22.916,74.798c-3.674,12.154,3.91,22.244,16.652,22.416
		c8.23,0.109,15.92-2.252,22.023-7.607c5.908-5.186,11.35-11.075,16.111-17.328C278.785,312.215,279.686,307.331,281.387,303.062z
		 M293.908,185.992c0.078-9.827-7.174-17.196-17.127-17.399c-10-0.205-17.973,7.507-17.914,17.33
		c0.057,9.604,7.742,17.094,17.557,17.107C286.377,203.045,293.828,195.784,293.908,185.992z"/>
</g>
</svg>
