<?xml version="1.0" encoding="utf-8"?>
<!-- Generator: Adobe Illustrator 16.0.0, SVG Export Plug-In . SVG Version: 6.00 Build 0)  -->
<!DOCTYPE svg PUBLIC "-//W3C//DTD SVG 1.1//EN" "http://www.w3.org/Graphics/SVG/1.1/DTD/svg11.dtd">
<svg version="1.1" id="Layer_1" xmlns="http://www.w3.org/2000/svg" xmlns:xlink="http://www.w3.org/1999/xlink" x="0px" y="0px"
	 width="512px" height="512px" viewBox="0 0 512 512" enable-background="new 0 0 512 512" xml:space="preserve">
<g>
	<path fill-rule="evenodd" clip-rule="evenodd" fill="#F7941D" d="M53.09,240.203c29.052-0.002,58.125,0.646,87.143-0.338
		c11.01-0.373,16.021,3.561,19.613,13.174c4.725,12.638,10.664,24.819,17.658,40.8c20.171-46.028,38.917-88.804,58.889-134.375
		c19.797,45.063,38.665,88.014,59.022,134.354c20.126-45.775,38.872-88.411,59.108-134.433
		c10.617,24.489,20.096,45.28,28.616,66.455c4.205,10.451,9.567,15.617,21.919,14.697c17.861-1.328,35.893-0.336,53.852-0.334
		c0,10.568,0,21.136,0,31.704c-23.238,0.002-46.493-0.485-69.708,0.253c-8.948,0.285-12.967-2.822-16.012-10.864
		c-5.121-13.521-11.495-26.565-18.804-43.12c-20.163,46.004-38.981,88.941-58.922,134.439
		c-19.738-45.001-38.532-87.851-58.953-134.407c-20.106,45.872-38.846,88.626-58.854,134.275
		c-10.018-22.659-20.03-42.998-27.968-64.118c-4.814-12.814-11.474-17.532-25.317-16.798c-23.701,1.255-47.515,0.342-71.283,0.34
		C53.09,261.339,53.09,250.771,53.09,240.203z"/>
</g>
</svg>
