<?xml version="1.0" encoding="utf-8"?>
<!-- Generator: Adobe Illustrator 16.0.0, SVG Export Plug-In . SVG Version: 6.00 Build 0)  -->
<!DOCTYPE svg PUBLIC "-//W3C//DTD SVG 1.1//EN" "http://www.w3.org/Graphics/SVG/1.1/DTD/svg11.dtd">
<svg version="1.1" id="Layer_1" xmlns="http://www.w3.org/2000/svg" xmlns:xlink="http://www.w3.org/1999/xlink" x="0px" y="0px"
	 width="512px" height="512px" viewBox="0 0 512 512" enable-background="new 0 0 512 512" xml:space="preserve">
<g enable-background="new    ">
	<path fill="#F7941D" d="M242.055,218.002c0,11.295-9.359,20.654-20.654,20.654h-82.617c-11.295,0-20.654-9.359-20.654-20.654
		v-61.963c0-11.295,9.359-20.654,20.654-20.654H221.4c11.295,0,20.654,9.359,20.654,20.654V218.002z M242.055,341.928
		c0,11.295-9.359,20.654-20.654,20.654h-82.617c-11.295,0-20.654-9.359-20.654-20.654v-61.963c0-11.295,9.359-20.654,20.654-20.654
		H221.4c11.295,0,20.654,9.359,20.654,20.654V341.928z M386.635,218.002c0,11.295-9.359,20.654-20.654,20.654h-82.617
		c-11.295,0-20.654-9.359-20.654-20.654v-61.963c0-11.295,9.359-20.654,20.654-20.654h82.617c11.295,0,20.654,9.359,20.654,20.654
		V218.002z M386.635,341.928c0,11.295-9.359,20.654-20.654,20.654h-82.617c-11.295,0-20.654-9.359-20.654-20.654v-61.963
		c0-11.295,9.359-20.654,20.654-20.654h82.617c11.295,0,20.654,9.359,20.654,20.654V341.928z"/>
</g>
</svg>
