<?xml version="1.0" encoding="utf-8"?>
<!-- Generator: Adobe Illustrator 16.0.0, SVG Export Plug-In . SVG Version: 6.00 Build 0)  -->
<!DOCTYPE svg PUBLIC "-//W3C//DTD SVG 1.1//EN" "http://www.w3.org/Graphics/SVG/1.1/DTD/svg11.dtd">
<svg version="1.1" id="Layer_1" xmlns="http://www.w3.org/2000/svg" xmlns:xlink="http://www.w3.org/1999/xlink" x="0px" y="0px"
	 width="512px" height="512px" viewBox="0 0 512 512" enable-background="new 0 0 512 512" xml:space="preserve">
<g enable-background="new    ">
	<path fill="#F7941D" d="M397.729,364.186c0,2.098-1.291,4.034-3.228,4.841c-0.646,0.161-1.291,0.323-1.937,0.323
		c-1.29,0-2.581-0.484-3.711-1.453l-15.007-15.006c-25.334,30.497-70.838,50.021-120.698,50.021
		c-49.861,0-95.365-19.524-120.699-50.021l-15.006,15.006c-0.968,0.969-2.42,1.453-3.711,1.453c-0.646,0-1.291-0.162-1.937-0.323
		c-1.936-0.807-3.227-2.743-3.227-4.841v-56.799c0-2.905,2.259-5.164,5.164-5.164h56.799c2.098,0,4.034,1.291,4.841,3.228
		s0.323,4.034-1.129,5.647l-16.136,16.136c14.522,19.525,42.438,33.725,74.388,38.082V260.914h-30.981
		c-5.647,0-10.327-4.68-10.327-10.327v-20.654c0-5.647,4.68-10.327,10.327-10.327h30.981v-26.302
		c-12.264-7.101-20.654-20.332-20.654-35.661c0-22.752,18.557-41.309,41.309-41.309s41.309,18.557,41.309,41.309
		c0,15.329-8.391,28.561-20.654,35.661v26.302h30.981c5.647,0,10.327,4.68,10.327,10.327v20.654c0,5.647-4.68,10.327-10.327,10.327
		h-30.981v104.401c31.95-4.357,59.865-18.557,74.388-38.082l-16.137-16.136c-1.451-1.613-1.936-3.711-1.129-5.647
		s2.743-3.228,4.841-3.228h56.799c2.905,0,5.164,2.259,5.164,5.164V364.186z M253.149,147.315c-5.647,0-10.327,4.68-10.327,10.327
		s4.68,10.327,10.327,10.327s10.327-4.68,10.327-10.327S258.797,147.315,253.149,147.315z"/>
</g>
</svg>
