<?xml version="1.0" encoding="utf-8"?>
<!-- Generator: Adobe Illustrator 16.0.0, SVG Export Plug-In . SVG Version: 6.00 Build 0)  -->
<!DOCTYPE svg PUBLIC "-//W3C//DTD SVG 1.1//EN" "http://www.w3.org/Graphics/SVG/1.1/DTD/svg11.dtd">
<svg version="1.1" id="Layer_1" xmlns="http://www.w3.org/2000/svg" xmlns:xlink="http://www.w3.org/1999/xlink" x="0px" y="0px"
	 width="512px" height="512px" viewBox="0 0 512 512" enable-background="new 0 0 512 512" xml:space="preserve">
<g>
	<path fill-rule="evenodd" clip-rule="evenodd" d="M331.606,361.968c-10.333,0-20.103,0-30.181,0c0-10.049,0-19.81,0-29.985
		c-1.521-0.07-2.758-0.172-3.994-0.176c-7.565-0.015-15.132-0.101-22.693,0.045c-2.553,0.049-4.406-0.618-6.212-2.506
		c-5.39-5.637-11.105-10.964-16.453-16.639c-2.229-2.367-4.094-2.816-7.305-1.795c-32.634,10.371-64.055,7.376-92.568-11.772
		c-35.624-23.923-51.309-58.372-46.632-100.87c5.17-46.964,38.264-82.038,84.123-91.487
		c58.316-12.015,115.607,27.272,125.158,85.801c2.947,18.065,1.722,35.795-4.34,53.091c-0.937,2.673-0.363,4.208,1.544,6.106
		c29.728,29.613,59.331,59.347,89.098,88.92c4.247,4.22,6.218,8.795,6.08,14.795c-0.276,11.931-0.048,23.874-0.095,35.812
		c-0.041,10.555-5.418,15.973-15.916,16.017c-12.527,0.052-25.058-0.073-37.585,0.056c-4.818,0.049-8.366-2.016-12.079-4.909
		c-8.029-6.256-11.572-13.821-10.08-24.083C332.229,373.201,331.606,367.812,331.606,361.968z M225.549,188.308
		c0.176-21.257-16.176-37.88-37.43-38.052c-21.273-0.172-37.873,16.155-38.053,37.427c-0.181,21.257,16.162,37.875,37.426,38.056
		C208.739,225.919,225.372,209.559,225.549,188.308z"/>
</g>
</svg>
