<?xml version="1.0" encoding="utf-8"?>
<!-- Generator: Adobe Illustrator 16.0.0, SVG Export Plug-In . SVG Version: 6.00 Build 0)  -->
<!DOCTYPE svg PUBLIC "-//W3C//DTD SVG 1.1//EN" "http://www.w3.org/Graphics/SVG/1.1/DTD/svg11.dtd">
<svg version="1.1" id="Layer_1" xmlns="http://www.w3.org/2000/svg" xmlns:xlink="http://www.w3.org/1999/xlink" x="0px" y="0px"
	 width="512px" height="512px" viewBox="0 0 512 512" enable-background="new 0 0 512 512" xml:space="preserve">
<g>
	<path fill-rule="evenodd" clip-rule="evenodd" fill="#F7941D" d="M263.594,448.305c-1.809-0.773-3.705-1.39-5.41-2.348
		c-7.515-4.222-11.503-10.604-11.219-19.329c0.567-17.385,1.2-34.768,1.868-52.149c0.866-22.508,1.81-45.014,2.688-67.521
		c1.191-30.511,2.322-61.023,3.583-91.53c0.101-2.437-0.516-3.462-2.923-4.179c-13.257-3.945-19.55-12.458-19.557-26.181
		c-0.018-33.541-0.012-67.082,0.009-100.623c0.001-2.248-0.028-4.541,0.378-6.734c2.087-11.24,12.846-16.795,23.469-12.352
		c1.162,0.486,2.876,0.481,4.036-0.007c4.906-2.063,9.658-2.053,14.566-0.005c1.169,0.487,2.888,0.479,4.061-0.009
		c4.909-2.04,9.67-2.069,14.561,0.037c1.073,0.462,2.648,0.576,3.702,0.143c12.367-5.081,23.839,2.066,24.07,15.548
		c0.311,18.142,0.125,36.292,0.134,54.439c0.008,16.646,0.006,33.291-0.02,49.936c-0.02,13.264-6.498,22.04-19.201,25.66
		c-2.698,0.769-3.393,1.934-3.28,4.682c1.512,36.509,2.889,73.023,4.304,109.536c1.245,32.136,2.23,64.286,3.87,96.402
		c0.675,13.221-3.829,22.271-16.651,26.583C281.62,448.305,272.607,448.305,263.594,448.305z M263.004,319.542
		c-0.139-0.001-0.277-0.001-0.416-0.002c0,4.254,0.136,8.513-0.021,12.76c-1.161,31.268-2.404,62.531-3.561,93.799
		c-0.247,6.658,3.288,10.137,10.058,10.18c4.881,0.031,9.763,0.009,14.645,0.006c8.806-0.003,11.781-2.948,11.455-11.76
		c-1.493-40.272-3.035-80.543-4.589-120.813c-1.129-29.265-2.272-58.528-3.475-87.789c-0.396-9.643,2.311-13.486,11.823-16.221
		c7.308-2.101,10.641-6.377,10.645-13.862c0.019-34.046,0.014-68.093,0.002-102.139c-0.002-5.701-1.368-7.943-4.681-7.885
		c-3.229,0.056-4.5,2.276-4.504,8.074c-0.016,21.529,0.002,43.059-0.036,64.588c-0.003,1.73,0.127,3.722-0.654,5.117
		c-0.779,1.393-2.725,3.134-3.98,3.003c-1.53-0.16-3.343-1.86-4.158-3.367c-0.755-1.396-0.451-3.417-0.453-5.162
		c-0.022-21.154,0.002-42.308-0.042-63.461c-0.004-1.983,0.052-4.173-0.746-5.881c-0.604-1.293-2.512-2.699-3.861-2.721
		c-1.339-0.021-3.244,1.339-3.92,2.614c-0.816,1.539-0.794,3.624-0.798,5.473c-0.05,21.654-0.026,43.309-0.064,64.963
		c-0.003,1.605,0.114,3.463-0.622,4.744c-0.752,1.308-2.531,2.884-3.784,2.82c-1.472-0.075-3.355-1.503-4.146-2.871
		c-0.791-1.368-0.586-3.388-0.589-5.123c-0.031-21.279-0.008-42.558-0.043-63.836c-0.003-1.86,0.172-3.983-0.637-5.505
		c-0.787-1.481-2.763-3.271-4.162-3.225c-1.42,0.046-3.223,1.931-4.025,3.451c-0.75,1.418-0.524,3.415-0.526,5.157
		c-0.024,21.153,0.001,42.307-0.026,63.461c-0.002,1.866,0.21,3.985-0.581,5.522c-0.716,1.392-2.611,2.852-4.091,2.969
		c-1.239,0.099-3.106-1.435-3.823-2.729c-0.78-1.41-0.737-3.377-0.741-5.102c-0.046-21.654-0.025-43.309-0.06-64.963
		c-0.003-1.608,0.177-3.493-0.569-4.75c-0.825-1.391-2.707-3.15-3.966-3.031c-1.536,0.146-3.433,1.811-4.194,3.315
		c-0.774,1.532-0.448,3.667-0.449,5.537c-0.014,33.045,0.003,66.09-0.003,99.135c-0.002,9.856,2.594,13.331,12.143,16.111
		c7.47,2.174,10.665,6.656,10.359,14.349C265.746,249.508,264.379,284.525,263.004,319.542z"/>
	<path fill-rule="evenodd" clip-rule="evenodd" fill="#F7941D" d="M134.415,448.305c-0.654-0.296-1.289-0.648-1.966-0.879
		c-9.347-3.186-14.947-10.877-14.636-20.799c0.778-24.765,1.7-49.525,2.614-74.286c1.123-30.388,2.295-60.773,3.449-91.16
		c0.484-12.754,0.885-25.513,1.511-38.262c0.224-4.558-1.359-7.787-4.996-10.575c-14.115-10.819-22.308-25.556-26.354-42.517
		c-5.707-23.919-4.437-47.544,6.056-70.025c3.282-7.032,7.748-13.84,12.957-19.586c20.104-22.18,49.919-21.932,70.134,0.172
		c12.069,13.198,18.103,29.174,20.607,46.613c2.754,19.181,1.208,37.946-6.294,55.971c-4.992,11.994-12.314,22.301-22.893,30.079
		c-2.964,2.179-4.261,5.048-4.12,8.723c1.122,29.386,2.2,58.774,3.298,88.161c1.146,30.638,2.305,61.274,3.448,91.912
		c0.293,7.878,0.6,15.756,0.808,23.637c0.301,11.425-4.747,18.481-15.721,22.186c-0.323,0.108-0.578,0.419-0.865,0.636
		C152.44,448.305,143.427,448.305,134.415,448.305z M162.271,323.201c-0.133,0-0.267,0.001-0.399,0.001
		c0-3.627,0.113-7.258-0.018-10.88c-1.106-30.388-2.302-60.772-3.364-91.162c-0.253-7.252,2.793-13.214,8.595-17.459
		c6.925-5.067,12.286-11.405,16.201-18.929c10.718-20.597,12.031-42.305,6.886-64.569c-3.279-14.187-9.43-26.953-20.995-36.358
		c-10.232-8.322-21.674-10.615-34.028-5.191c-10.454,4.59-17.405,12.907-22.474,22.801c-10.029,19.577-12.032,40.337-7.851,61.689
		c3.271,16.703,10.746,31.011,24.915,41.388c5.282,3.868,7.765,9.738,7.632,16.41c-0.13,6.504-0.465,13.005-0.71,19.507
		c-1.152,30.638-2.321,61.273-3.451,91.911c-1.153,31.262-2.295,62.525-3.377,93.792c-0.23,6.662,3.33,10.111,10.094,10.133
		c4.756,0.016,9.512,0.011,14.268,0.004c9.328-0.017,12.112-2.774,11.78-12.171C164.787,390.479,163.513,356.84,162.271,323.201z"/>
	<path fill-rule="evenodd" clip-rule="evenodd" fill="#F7941D" d="M377.753,448.305c-3.671-2.027-7.779-3.539-10.912-6.199
		c-4.736-4.022-6.422-9.764-5.911-15.941c4.022-48.624,8.075-97.244,12.189-145.86c0.459-5.424-0.589-10.294-3.187-15.116
		c-8.513-15.81-13.171-32.929-15.93-50.536c-4.807-30.675-4.727-61.324,2.001-91.756c3.294-14.9,8.677-28.978,18.188-41.161
		c5.141-6.585,11.195-12.151,18.874-15.687c14.501-6.676,28.24,2.131,28.242,18.089c0.011,113.893,0.015,227.786,0.017,341.68
		c0,10.91-5.576,18.466-16.02,21.796c-0.449,0.143-0.844,0.456-1.264,0.691C395.278,448.305,386.516,448.305,377.753,448.305z
		 M409.285,255.083c0.004,0,0.008,0,0.012,0c0-56.812,0.004-113.623-0.005-170.434c-0.001-8.075-5.269-11.5-12.029-7.071
		c-5.236,3.43-10.164,7.788-14.104,12.646c-8.765,10.81-13.07,23.825-15.862,37.26c-5.949,28.621-5.938,57.403-1.272,86.178
		c2.611,16.097,6.839,31.779,14.7,46.224c3.393,6.233,5.054,12.734,4.467,19.8c-1.553,18.697-3.109,37.393-4.67,56.089
		c-2.527,30.289-5.082,60.575-7.569,90.867c-0.475,5.783,3.055,9.524,8.918,9.611c5.255,0.078,10.512,0.026,15.767,0.018
		c8.33-0.014,11.642-3.274,11.643-11.504C409.288,368.205,409.285,311.645,409.285,255.083z"/>
</g>
</svg>
