<?xml version="1.0" encoding="utf-8"?>
<!-- Generator: Adobe Illustrator 16.0.0, SVG Export Plug-In . SVG Version: 6.00 Build 0)  -->
<!DOCTYPE svg PUBLIC "-//W3C//DTD SVG 1.1//EN" "http://www.w3.org/Graphics/SVG/1.1/DTD/svg11.dtd">
<svg version="1.1" id="Layer_1" xmlns="http://www.w3.org/2000/svg" xmlns:xlink="http://www.w3.org/1999/xlink" x="0px" y="0px"
	 width="512px" height="512px" viewBox="0 0 512 512" enable-background="new 0 0 512 512" xml:space="preserve">
<g>
	<path fill-rule="evenodd" clip-rule="evenodd" fill="#97C13C" d="M287.092,79.125c30.642,7.898,58.168,14.85,85.55,22.332
		c2.197,0.602,4.741,4.814,4.838,7.434c0.59,15.943-1.688,32.35,1.357,47.738c2.477,12.512,11.365,23.682,16.633,35.785
		c0.815,1.875-1.783,6.965-4.076,8.193c-21.722,11.627-43.881,22.449-65.406,34.42c-2.358,1.313-3.133,11.662-1.924,12.252
		c13,6.35,23.469,20.238,41.885,9.02c19.485-11.867,21.441,5.242,26.158,18.906c12.264,35.52,25.292,70.822,39.688,105.518
		c2.909,7.012,13.38,10.744,19.94,16.475c1.774,1.551,2.693,4.883,2.691,7.396c-0.002,1.811-1.972,4.982-3.429,5.211
		c-12.581,1.963-83.597,5.441-106.124,8.277c-29.995,3.773-34.056-18.893-41.055-49.904c-2.852-12.637-7.32-47.845-25.664-37.268
		c-2.835,1.635-2.297,7.83-1.569,11.633c2.239,11.713,6.75,23.146,7.759,34.914c2.751,32.074-132.586,39.178-179.675,47.617
		c-3.797,0.682-9.127,8.369-9.919,7.768c-5.803-4.41-13.799-9.381-15.208-15.527c-5.47-23.857-8.439-48.277-13.167-72.326
		c-0.744-3.783-4.709-19.655,21.424-27.475c16.791-4.133,34.687-3.574,51.918-6.258c4.45-0.691,8.172-6.061,12.229-9.279
		c-5.455-2.861-10.795-5.977-16.404-8.49c-3.549-1.592-9.656-1.279-10.753-3.625c-1.56-3.338-0.954-9.211,1.116-12.488
		c27.279-43.174,56.182-85.373,82.08-129.348c13.508-22.936,23.818-47.336,50.398-58.303
		C268.266,85.646,278.447,82.295,287.092,79.125z"/>
	<path fill-rule="evenodd" clip-rule="evenodd" fill="#97C13C" d="M426.261,198.398c-3.954-4.486-23.446-27.727-23.386-35.898
		c0.07-9.555,7.393-20.629,11.958-29.617c0.379-0.744,11.849,2.002,15.922,5.639c18.767,16.76,16.83,35.533,3.117,54.494
		C432.556,194.834,430.041,195.785,426.261,198.398z"/>
</g>
<rect x="35" y="321" fill-rule="evenodd" clip-rule="evenodd" fill="#E3E4DF" width="240" height="127"/>
<text transform="matrix(1 0 0 1 41.3433 426.0557)"><tspan x="0" y="0" fill="#97C13C" font-family="'MyriadPro-Bold'" font-size="124.6185">1</tspan><tspan x="69.163" y="0" fill="#97C13C" font-family="'MyriadPro-Bold'" font-size="124.6185" letter-spacing="9">23</tspan></text>
</svg>
