<?xml version="1.0" encoding="utf-8"?>
<!-- Generator: Adobe Illustrator 16.0.0, SVG Export Plug-In . SVG Version: 6.00 Build 0)  -->
<!DOCTYPE svg PUBLIC "-//W3C//DTD SVG 1.1//EN" "http://www.w3.org/Graphics/SVG/1.1/DTD/svg11.dtd">
<svg version="1.1" id="Layer_1" xmlns="http://www.w3.org/2000/svg" xmlns:xlink="http://www.w3.org/1999/xlink" x="0px" y="0px"
	 width="512px" height="512px" viewBox="0 0 512 512" enable-background="new 0 0 512 512" xml:space="preserve">
<g enable-background="new    ">
	<path fill="#F7941D" d="M334.265,249.62c-13.968,15.385-32.39,37.046-34.01,58.707c5.87,3.441,9.515,9.919,9.515,16.6
		c0,4.858-1.822,9.515-5.061,12.956c3.238,3.441,5.061,8.098,5.061,12.956c0,6.681-3.441,12.754-9.109,16.397
		c1.619,2.834,2.631,6.275,2.631,9.515c0,13.158-10.324,19.435-22.065,19.435c-5.263,11.741-17.005,19.434-29.758,19.434
		s-24.495-7.692-29.758-19.434c-11.742,0-22.066-6.276-22.066-19.435c0-3.239,1.012-6.681,2.632-9.515
		c-5.668-3.644-9.11-9.717-9.11-16.397c0-4.858,1.822-9.515,5.061-12.956c-3.239-3.441-5.061-8.098-5.061-12.956
		c0-6.681,3.644-13.158,9.515-16.6c-1.62-21.661-20.042-43.322-34.01-58.707c-13.968-15.386-20.851-33.402-20.851-54.254
		c0-55.063,52.432-90.692,103.648-90.692c51.216,0,103.648,35.629,103.648,90.692C355.115,216.218,348.232,234.234,334.265,249.62z
		 M251.467,130.586c-36.641,0-77.736,24.293-77.736,64.78c0,12.956,5.263,26.52,13.766,36.438c3.847,4.454,8.3,8.705,12.349,13.361
		c14.373,17.207,26.519,37.451,28.543,60.326h46.156c2.025-22.875,14.171-43.119,28.544-60.326
		c4.049-4.656,8.503-8.907,12.349-13.361c8.503-9.919,13.766-23.482,13.766-36.438C329.203,154.879,288.108,130.586,251.467,130.586
		z M290.336,201.844c-3.441,0-6.479-3.036-6.479-6.478c0-13.968-21.661-19.435-32.39-19.435c-3.441,0-6.478-3.036-6.478-6.478
		s3.037-6.478,6.478-6.478c18.827,0,45.346,9.919,45.346,32.39C296.813,198.808,293.777,201.844,290.336,201.844z"/>
</g>
</svg>
