<?xml version="1.0" encoding="utf-8"?>
<!-- Generator: Adobe Illustrator 16.0.0, SVG Export Plug-In . SVG Version: 6.00 Build 0)  -->
<!DOCTYPE svg PUBLIC "-//W3C//DTD SVG 1.1//EN" "http://www.w3.org/Graphics/SVG/1.1/DTD/svg11.dtd">
<svg version="1.1" id="Layer_1" xmlns="http://www.w3.org/2000/svg" xmlns:xlink="http://www.w3.org/1999/xlink" x="0px" y="0px"
	 width="512px" height="512px" viewBox="0 0 512 512" enable-background="new 0 0 512 512" xml:space="preserve">
<g>
	<path fill-rule="evenodd" clip-rule="evenodd" d="M222.708,253.988c-1.788,3.119-3.097,5.449-4.449,7.753
		c-3.286,5.601-6.591,11.189-9.799,16.626c-13.611-2.054-16.72-0.571-23.517,11.006c-10.862,18.499-21.752,36.982-32.551,55.519
		c-6.556,11.255-4.619,18.436,6.718,24.931c15.313,8.775,30.646,17.52,46.055,26.125c10.624,5.934,17.771,4.051,23.946-6.342
		c10.958-18.442,21.768-36.974,32.6-55.49c7.344-12.552,7.189-15.057-1.552-26.502c3.737-6.397,7.546-12.948,11.393-19.475
		c0.811-1.379,1.762-2.675,3.054-4.617c5.509,3.281,11.119,6.04,16.07,9.692c11.118,8.202,14.911,23.538,7.933,35.778
		c-17.484,30.664-35.313,61.144-53.594,91.34c-7.954,13.139-24.333,17.44-37.991,9.989c-26.93-14.688-53.609-29.867-80.012-45.485
		c-13.426-7.943-17.636-24.209-9.892-37.765c17.377-30.413,35.148-60.609,53.251-90.597c7.793-12.906,23.457-16.998,37.19-10.718
		C212.472,248.001,217.081,250.904,222.708,253.988z"/>
	<path fill-rule="evenodd" clip-rule="evenodd" d="M289.298,257.919c5.067-8.633,9.703-16.53,14.241-24.264
		c13.59,2.048,16.755,0.545,23.559-11.027c10.872-18.495,21.753-36.983,32.554-55.521c6.532-11.212,4.573-18.423-6.769-24.923
		c-15.314-8.775-30.642-17.525-46.057-26.125c-10.621-5.925-17.74-4.027-23.926,6.391c-11.371,19.146-22.612,38.368-33.84,57.599
		c-5.953,10.193-5.452,14.287,3.07,23.899c-4.603,7.868-9.342,15.972-14.438,24.688c-4.897-2.816-9.435-5.173-13.715-7.933
		c-13.478-8.688-18.114-24.535-10.189-38.415c17.234-30.185,34.851-60.155,52.773-89.937c8.2-13.623,24.514-18.275,38.454-10.671
		c26.93,14.691,53.613,29.864,80.011,45.493c13.393,7.93,17.58,24.316,9.879,37.798c-17.239,30.183-34.862,60.149-52.762,89.945
		c-8.348,13.897-24.598,17.96-39.179,10.687C298.609,263.432,294.464,260.841,289.298,257.919z"/>
	<path fill-rule="evenodd" clip-rule="evenodd" d="M300.674,206.799c-0.918,2.153-1.879,5.293-3.489,8.054
		c-18.883,32.361-37.885,64.653-56.799,96.995c-3.583,6.128-8.741,10.986-15.722,8.859c-4.732-1.443-9.534-5.905-12.019-10.307
		c-1.612-2.855-0.224-8.676,1.727-12.073c19.076-33.188,38.493-66.183,57.964-99.146c4.313-7.301,11.085-9.916,17.894-7.566
		C296.922,193.926,300.069,198.896,300.674,206.799z"/>
</g>
</svg>
