<?xml version="1.0" encoding="utf-8"?>
<!-- Generator: Adobe Illustrator 16.0.0, SVG Export Plug-In . SVG Version: 6.00 Build 0)  -->
<!DOCTYPE svg PUBLIC "-//W3C//DTD SVG 1.1//EN" "http://www.w3.org/Graphics/SVG/1.1/DTD/svg11.dtd">
<svg version="1.1" id="Layer_1" xmlns="http://www.w3.org/2000/svg" xmlns:xlink="http://www.w3.org/1999/xlink" x="0px" y="0px"
	 width="566.93px" height="566.93px" viewBox="0 0 566.93 566.93" enable-background="new 0 0 566.93 566.93" xml:space="preserve">
<g>
	<g>
		<g>
			<g>
				<g>
					<path fill="#61615F" d="M393.996,326.711h-36.203c-3.229,0-5.953-2.727-5.953-5.955v-30.588h-83.818
						c-3.796,0-5.786-2.994-5.786-5.949c0-2.961,1.99-5.951,5.786-5.951h125.974c3.225,0,5.949,2.725,5.949,5.951v36.537
						C399.945,323.984,397.221,326.711,393.996,326.711z M363.742,314.807h24.302v-24.639h-24.302V314.807z"/>
				</g>
			</g>
		</g>
		<g>
			<g>
				<g>
					<path fill="#61615F" d="M356.038,270.33H228.347c-3.798,0-5.788-2.995-5.788-5.952c0-2.958,1.99-5.948,5.788-5.948h127.691
						c3.804,0,5.791,2.99,5.791,5.948C361.829,267.335,359.842,270.33,356.038,270.33z"/>
				</g>
			</g>
		</g>
		<g>
			<g>
				<g>
					<path fill="#189D5B" d="M248.347,306.295c-2.957,0-5.952-1.988-5.952-5.791V174.533c0-7.603,11.903-7.603,11.903,0v125.971
						C254.298,304.307,251.304,306.295,248.347,306.295z"/>
				</g>
			</g>
		</g>
		<g>
			<g>
				<g>
					<path fill="#189D5B" d="M228.511,359.932c-2.958,0-5.952-1.988-5.952-5.785v-71.914c0-7.601,11.903-7.601,11.903,0v71.914
						C234.462,357.943,231.468,359.932,228.511,359.932z"/>
				</g>
			</g>
		</g>
		<g>
			<g>
				<g>
					<path fill="#189D5B" d="M203.711,211.808c0,47.448,0,94.892,0,142.339c1.654-1.65,3.308-3.309,4.961-4.963
						c-11.91,0-23.823,0-35.735,0c1.654,1.654,3.304,3.313,4.961,4.963c0-11.986,0-23.971,0-35.957c0-6.398-9.923-6.398-9.923,0
						c0,11.986,0,23.971,0,35.957c0,2.701,2.257,4.955,4.962,4.955c11.912,0,23.825,0,35.735,0c2.703,0,4.96-2.254,4.96-4.955
						c0-47.447,0-94.891,0-142.339C213.632,205.412,203.711,205.412,203.711,211.808L203.711,211.808z"/>
					<path fill="#189D5B" d="M208.672,360.1h-35.735c-3.224,0-5.952-2.732-5.952-5.953v-35.957c0-7.598,11.902-7.598,11.902,0
						v30.006h23.835V211.808c0-7.601,11.902-7.601,11.902,0v142.339C214.623,357.367,211.896,360.1,208.672,360.1z"/>
				</g>
			</g>
		</g>
		<g>
			<g>
				<path fill="#189D5B" d="M228.511,250.368c-3.284,0-5.952-2.668-5.952-5.95c0-3.284,2.668-5.952,5.952-5.952
					c3.281,0,5.951,2.668,5.951,5.952C234.462,247.7,231.792,250.368,228.511,250.368z"/>
			</g>
		</g>
		<g>
			<g>
				<path fill="#61615F" d="M356.038,250.616c-3.283,0-5.949-2.671-5.949-5.952c0-3.283,2.666-5.951,5.949-5.951
					s5.952,2.668,5.952,5.951C361.99,247.945,359.321,250.616,356.038,250.616z"/>
			</g>
		</g>
	</g>
	<g>
		<path d="M258.41,359.652h-1.036v-12.459l-5.093,12.459h-1.087l-5.08-12.459v12.459h-1.035v-14.154h1.501l5.157,12.863
			l5.199-12.863h1.473V359.652z"/>
		<path d="M284.822,359.652h-1.242l-1.733-4.551h-6.965c-0.253,0.717-0.524,1.475-0.814,2.266c-0.295,0.803-0.575,1.563-0.84,2.285
			h-1.1c0.464-1.223,0.925-2.422,1.377-3.59c0.449-1.176,0.903-2.342,1.35-3.502c0.449-1.156,0.896-2.324,1.352-3.496
			c0.451-1.172,0.91-2.363,1.375-3.58h1.461L284.822,359.652z M281.552,354.291l-3.285-7.875l-3.113,7.875H281.552z"/>
		<path d="M309.577,359.652h-1.357l-8.635-12.924v12.924h-1.036v-14.154h1.426l8.568,12.904v-12.904h1.034V359.652z"/>
		<path d="M336.005,359.652h-1.241l-1.733-4.551h-6.97c-0.247,0.717-0.521,1.475-0.813,2.266c-0.292,0.803-0.572,1.563-0.84,2.285
			h-1.1c0.469-1.223,0.921-2.422,1.374-3.59c0.456-1.176,0.905-2.342,1.353-3.502c0.45-1.156,0.902-2.324,1.351-3.496
			c0.455-1.172,0.911-2.363,1.383-3.58h1.458L336.005,359.652z M332.735,354.291l-3.282-7.875l-3.123,7.875H332.735z"/>
		<path d="M359.506,359.652h-10.883v-1.369l9.553-11.75h-8.714v-1.035h9.773v1.385l-9.565,11.736h9.836V359.652z"/>
		<path d="M375.242,359.652h-1.035v-14.154h1.035V359.652z"/>
		<path d="M399.367,359.652h-8.342v-14.154h1.036v13.121h7.306V359.652z"/>
	</g>
</g>
<g>
	<path fill="none" stroke="#1D9E5C" stroke-width="4.9971" stroke-miterlimit="10" d="M110.125,378.354
		c-55.149-95.741-22.243-218.039,73.492-273.183c95.741-55.149,218.044-22.238,273.188,73.493
		c55.149,95.736,22.243,218.039-73.492,273.183C287.571,506.995,165.269,474.095,110.125,378.354z"/>
	<path fill="#1D9E5C" d="M176.912,435.83l-12.917,15.382c64.646,44.569,151.846,51.035,224.305,9.297l-9.975-17.31
		C313.338,480.619,235.238,475.217,176.912,435.83z"/>
	<path fill="#737373" d="M196.667,127.809c-83.233,47.946-111.84,154.281-63.899,237.505
		c47.941,83.233,154.276,111.83,237.49,63.894c83.243-47.946,111.85-154.271,63.904-237.495
		C386.226,108.489,279.891,79.868,196.667,127.809z M424.07,197.525c44.734,77.651,18.041,176.856-59.624,221.591
		c-77.642,44.726-176.856,18.041-221.592-59.619c-44.725-77.646-18.036-176.861,59.624-221.601
		C280.129,93.171,379.345,119.874,424.07,197.525z"/>
</g>
</svg>
