<?xml version="1.0" encoding="utf-8"?>
<!-- Generator: Adobe Illustrator 16.0.0, SVG Export Plug-In . SVG Version: 6.00 Build 0)  -->
<!DOCTYPE svg PUBLIC "-//W3C//DTD SVG 1.1//EN" "http://www.w3.org/Graphics/SVG/1.1/DTD/svg11.dtd">
<svg version="1.1" id="Layer_1" xmlns="http://www.w3.org/2000/svg" xmlns:xlink="http://www.w3.org/1999/xlink" x="0px" y="0px"
	 width="512px" height="512px" viewBox="0 0 512 512" enable-background="new 0 0 512 512" xml:space="preserve">
<g>
	<path fill-rule="evenodd" clip-rule="evenodd" d="M168.467,256.686c-0.286,26.581-22.269,47.751-48.917,47.104
		c-25.913-0.628-46.968-21.952-47.046-47.645c-0.081-26.341,21.854-48.063,48.412-47.942
		C147.568,208.327,168.754,229.928,168.467,256.686z"/>
	<path fill-rule="evenodd" clip-rule="evenodd" d="M343.518,255.306c0.297-26.567,22.284-47.723,48.942-47.089
		c25.887,0.615,46.961,21.97,47.035,47.661c0.075,26.345-21.87,48.063-48.427,47.926
		C364.412,303.665,343.219,282.05,343.518,255.306z"/>
	<path fill-rule="evenodd" clip-rule="evenodd" d="M303.968,256.58c-0.272,26.482-22.32,47.744-48.953,47.21
		c-26.603-0.531-47.655-22.573-46.975-49.182c0.66-25.761,22.165-46.501,48.124-46.413
		C282.792,208.288,304.244,229.999,303.968,256.58z"/>
</g>
</svg>
