<?xml version="1.0" encoding="utf-8"?>
<!-- Generator: Adobe Illustrator 16.0.0, SVG Export Plug-In . SVG Version: 6.00 Build 0)  -->
<!DOCTYPE svg PUBLIC "-//W3C//DTD SVG 1.1//EN" "http://www.w3.org/Graphics/SVG/1.1/DTD/svg11.dtd">
<svg version="1.1" id="Layer_1" xmlns="http://www.w3.org/2000/svg" xmlns:xlink="http://www.w3.org/1999/xlink" x="0px" y="0px"
	 width="512px" height="512px" viewBox="0 0 512 512" enable-background="new 0 0 512 512" xml:space="preserve">
<g>
	<g>
		<path fill="none" stroke="#686868" stroke-width="4.7778" stroke-miterlimit="10" d="M90.269,346.724
			c-52.728-91.538-21.267-208.468,70.267-261.191c91.539-52.728,208.473-21.262,261.196,70.267
			c52.729,91.533,21.267,208.467-70.267,261.191C259.927,469.719,142.992,438.262,90.269,346.724z"/>
		<path fill="#727272" d="M154.125,401.677l-12.351,14.707c61.808,42.612,145.181,48.795,214.459,8.889l-9.537-16.55
			C284.562,444.5,209.891,439.335,154.125,401.677z"/>
		<path fill="#727272" d="M173.012,107.177c-79.58,45.842-106.931,147.509-61.094,227.08
			c45.837,79.579,147.505,106.921,227.065,61.089c79.589-45.842,106.94-147.5,61.099-227.07
			C354.25,88.705,252.582,61.34,173.012,107.177z M390.433,173.833c42.771,74.242,17.25,169.093-57.006,211.864
			c-74.233,42.763-169.093,17.25-211.864-57.002c-42.762-74.237-17.245-169.097,57.006-211.873
			C252.811,74.059,347.671,99.59,390.433,173.833z"/>
	</g>
	<g>
		<path fill-rule="evenodd" clip-rule="evenodd" fill="#686868" d="M296.257,212.547c4.691,0,9.385-0.049,14.076,0.008
			c18.727,0.227,33.068,18.316,29.051,36.609c-3.203,14.578-15.299,24.391-30.266,24.477c-9.309,0.054-18.619-0.034-27.926,0.061
			c-1.35,0.014-2.854,0.416-4.014,1.1c-20.008,11.769-39.973,23.607-59.945,35.434c-3.096,1.834-6.484,2.447-10.018,2.287
			c-7.1-0.323-12.602-3.875-17.311-8.856c-5.979-6.327-9.873-13.898-12.703-22.04c-5.834-16.78-7.334-34.035-5.566-51.654
			c1.133-11.285,3.637-22.213,8.42-32.526c3.701-7.985,8.393-15.305,16.002-20.17c7.449-4.763,15.094-5.164,22.869-0.534
			c19.424,11.565,38.873,23.088,58.355,34.558c1.225,0.721,2.795,1.142,4.217,1.183c4.916,0.144,9.838,0.056,14.758,0.056
			C296.257,212.539,296.257,212.543,296.257,212.547z M190.313,280.576c2.311,4.476,5.23,8.5,9.148,11.729
			c7.242,5.972,15.625,6.225,23.092,0.546c6.363-4.84,10.256-11.511,12.824-18.881c7.773-22.308,7.529-44.479-1.891-66.309
			c-2.328-5.396-5.668-10.172-10.285-13.928c-7.494-6.094-16.164-6.138-23.631-0.011c-6.924,5.684-10.672,13.415-13.4,21.697
			c-2.957,8.975-4.186,18.236-4.15,31.182C182.124,256.18,184.245,268.818,190.313,280.576z"/>
		<path fill-rule="evenodd" clip-rule="evenodd" fill="#686868" d="M308.651,280.339c-8.791,0-17.303,0-25.965,0
			c-0.037,0.834-0.1,1.568-0.1,2.303c-0.01,14.379-0.012,28.759-0.014,43.138c0,9.832,2.873,12.734,12.689,12.744
			c1.66,0.002,3.324-0.155,4.98-0.299c4.85-0.422,7.621-3.006,8.035-7.908c0.324-3.835,0.344-7.702,0.357-11.556
			c0.041-11.958,0.016-23.915,0.016-35.873C308.651,282.075,308.651,281.263,308.651,280.339z"/>
		<path fill-rule="evenodd" clip-rule="evenodd" fill="#686868" d="M227.185,241.498c-0.664-5.055-1.496-11.643-2.463-18.209
			c-0.084-0.582-1.115-1.518-1.629-1.469c-8.766,0.84-15.813,4.604-19.869,12.705c-5.061,10.1-0.402,22.219,10.539,27.251
			c2.818,1.296,6.059,1.687,9.121,2.426c1.182,0.285,1.766-0.268,1.939-1.53c0.313-2.242,0.945-4.444,1.182-6.689
			C226.454,251.697,226.718,247.395,227.185,241.498z"/>
	</g>
</g>
</svg>
