<?xml version="1.0" encoding="utf-8"?>
<!-- Generator: Adobe Illustrator 16.0.0, SVG Export Plug-In . SVG Version: 6.00 Build 0)  -->
<!DOCTYPE svg PUBLIC "-//W3C//DTD SVG 1.1//EN" "http://www.w3.org/Graphics/SVG/1.1/DTD/svg11.dtd">
<svg version="1.1" id="Layer_1" xmlns="http://www.w3.org/2000/svg" xmlns:xlink="http://www.w3.org/1999/xlink" x="0px" y="0px"
	 width="512px" height="512px" viewBox="0 0 512 512" enable-background="new 0 0 512 512" xml:space="preserve">
<g>
	<path fill-rule="evenodd" clip-rule="evenodd" d="M326.362,180.98c8.1,0,16.203-0.084,24.302,0.014
		c32.331,0.392,57.091,31.622,50.155,63.204c-5.53,25.168-26.413,42.108-52.252,42.257c-16.071,0.093-32.146-0.059-48.213,0.104
		c-2.33,0.024-4.926,0.719-6.929,1.898c-34.543,20.318-69.011,40.757-103.492,61.175c-5.345,3.166-11.195,4.225-17.295,3.948
		c-12.257-0.559-21.756-6.69-29.886-15.29c-10.321-10.924-17.045-23.995-21.931-38.051c-10.072-28.971-12.662-58.76-9.61-89.179
		c1.956-19.482,6.278-38.349,14.536-56.152c6.391-13.788,14.489-26.423,27.627-34.824c12.86-8.223,26.059-8.914,39.482-0.922
		c33.533,19.967,67.111,39.859,100.747,59.661c2.114,1.244,4.825,1.971,7.28,2.042c8.486,0.248,16.984,0.096,25.478,0.096
		C326.362,180.967,326.362,180.974,326.362,180.98z M143.458,298.43c3.989,7.727,9.03,14.675,15.794,20.25
		c12.503,10.31,26.976,10.746,39.867,0.942c10.985-8.355,17.706-19.873,22.14-32.597c13.421-38.513,12.999-76.79-3.264-114.478
		c-4.02-9.317-9.785-17.562-17.757-24.046c-12.938-10.521-27.906-10.598-40.798-0.021c-11.953,9.813-18.424,23.161-23.135,37.459
		c-5.104,15.494-7.226,31.484-7.165,53.834C129.319,256.311,132.981,278.13,143.458,298.43z"/>
	<path fill-rule="evenodd" clip-rule="evenodd" d="M347.761,298.02c-15.177,0-29.872,0-44.826,0
		c-0.064,1.439-0.172,2.708-0.172,3.976c-0.018,24.824-0.021,49.65-0.023,74.475c0,16.975,4.96,21.985,21.907,22.002
		c2.866,0.004,5.739-0.268,8.599-0.516c8.372-0.729,13.157-5.189,13.872-13.653c0.56-6.621,0.594-13.297,0.617-19.95
		c0.07-20.645,0.026-41.288,0.026-61.933C347.761,301.018,347.761,299.614,347.761,298.02z"/>
	<path fill-rule="evenodd" clip-rule="evenodd" d="M207.113,230.963c-1.146-8.727-2.583-20.1-4.252-31.437
		c-0.145-1.005-1.925-2.62-2.812-2.535c-15.134,1.449-27.3,7.947-34.304,21.935c-8.736,17.436-0.694,38.359,18.195,47.047
		c4.866,2.237,10.46,2.911,15.747,4.188c2.04,0.492,3.049-0.462,3.349-2.642c0.539-3.871,1.632-7.673,2.04-11.549
		C205.853,248.571,206.308,241.144,207.113,230.963z"/>
</g>
</svg>
