<?xml version="1.0" encoding="utf-8"?>
<!-- Generator: Adobe Illustrator 16.0.0, SVG Export Plug-In . SVG Version: 6.00 Build 0)  -->
<!DOCTYPE svg PUBLIC "-//W3C//DTD SVG 1.1//EN" "http://www.w3.org/Graphics/SVG/1.1/DTD/svg11.dtd">
<svg version="1.1" id="Layer_1" xmlns="http://www.w3.org/2000/svg" xmlns:xlink="http://www.w3.org/1999/xlink" x="0px" y="0px"
	 width="512px" height="512px" viewBox="0 0 512 512" enable-background="new 0 0 512 512" xml:space="preserve">
<g>
	<path fill-rule="evenodd" clip-rule="evenodd" fill="#F7941D" d="M418.459,63.663c-1.035,2.68-1.868,5.461-3.144,8.021
		c-3.738,7.504-3.593,15.238-0.279,22.531c7.525,16.562,4.7,32.16-3.207,47.543c-0.457,0.89-0.869,1.812-1.415,2.645
		c-9.386,14.336-15.353,29.895-17.533,46.967c-0.669,5.245-2.531,10.337-4.021,16.181c2.377-1.46,4.149-2.549,6.367-3.912
		c1.825,3.064,3.89,5.898,5.297,9.027c3.17,7.051,6.496,14.091,8.884,21.42c4.188,12.848-4.288,26.607-17.625,29.217
		c-6.367,1.246-12.676,0.447-19.295-1.454c0.939-3.726,1.836-7.282,2.715-10.771c3.973,0.394,7.667,0.918,11.377,1.096
		c8.856,0.424,14.598-9.031,11.546-15.91c-3.427-7.724-6.622-15.551-10.295-24.224c-10.532,29.462-20.596,57.616-30.826,86.234
		c-4.147-1.673-7.55-3.047-11.273-4.549c0.572-1.559,1.038-2.936,1.578-4.28c12.521-31.229,23.643-62.942,32.994-95.264
		c1.281-4.425,1.881-9.046,2.84-13.568c0.43-2.027-0.09-3.171-2.271-3.866c-5.1-1.627-10.104-3.555-15.792-5.592
		c-3.084,6.184-6.618,11.988-8.985,18.233c-10.673,28.157-21.016,56.438-31.477,84.676c-0.302,0.814-0.589,1.634-0.991,2.746
		c-2.17-0.599-4.272-1.18-6.869-1.897c1.563,4.568,4.225,7.946,8.054,10.037c5.692,3.108,11.647,5.735,17.494,8.56
		c4.5,2.175,9.155,4.076,13.481,6.553c16.399,9.391,21.914,21.416,19.68,40.161c-0.759,6.368-3.371,10.618-8.351,14.476
		c-15.597,12.081-32.703,21.181-51.326,27.539c-1.059,0.362-2.113,0.741-3.164,1.125c-0.099,0.037-0.161,0.177-0.546,0.626
		c1.98,0.989,3.879,1.938,6.217,3.106c-9.686,21.817-20.386,42.895-35.83,61.239c-0.25,0-0.501,0-0.751,0
		c-2.306-0.929-4.549-2.099-6.935-2.719c-2.437-0.634-3.004-1.933-2.991-4.282c0.084-15.354,2.6-30.384,5.773-45.337
		c0.331-1.558,0.641-3.118,1.021-4.971c-5.771,0.38-11.228,0.863-16.694,1.08c-34.187,1.356-66.74-5.054-97.071-21.18
		c-27.475-14.607-49.797-34.752-62.416-63.664c-17.213-39.44-11.483-76.663,14.336-110.553
		c21.685-28.462,51.231-45.636,85.437-54.479c51.659-13.355,101.193-7.812,147.827,19.033c1.502,0.865,2.946,1.833,4.72,2.942
		c-2.139,3.277-4.157,6.369-6.038,9.251c-7.935-4.035-15.347-8.546-23.293-11.724c-56.854-22.732-112.268-20.272-165.296,11.289
		c-22.716,13.52-40.15,32.473-49.409,57.643c-12.709,34.551-6.141,66.328,16.347,94.819c20.133,25.507,47.126,40.912,78.19,48.822
		c51.423,13.094,100.235,6.918,145.423-22.067c1.894-1.215,3.65-2.642,5.525-3.888c4.605-3.06,8.312-6.32,7.994-12.803
		c-0.349-7.106,0.04-14.497-6.088-19.306c-5.249-4.118-11.203-7.433-17.123-10.577c-7.273-3.862-15.201-6.582-22.186-10.872
		c-10.39-6.381-15.657-16.331-15.994-28.54c-0.258-9.345,4.475-15.816,13.018-20.104c1.088,2.039,2.117,3.967,3.562,6.675
		c0.663-1.809,1.086-3.007,1.54-4.194c8.214-21.474,16.412-42.955,24.674-64.41c1.03-2.675,2.125-5.398,3.666-7.793
		c9.662-15.024,13.464-31.77,16.988-49.117c5.052-24.871,17.352-46.292,38.957-61.089c2.388-1.636,5.821-1.745,8.77-2.563
		C415.454,63.663,416.957,63.663,418.459,63.663z M400.386,84.851c-13.932,16.868-23.348,35.48-24.88,57.526
		c-0.052,0.76,0.53,2.063,1.129,2.291c5.542,2.106,11.152,4.032,17.246,6.188c3.881-7.844,7.986-15.158,11.18-22.852
		c3.711-8.938,4.035-18.072,0.017-27.31C402.965,95.837,402.007,90.479,400.386,84.851z M289.901,392.639
		c-1.945,10.904-3.812,21.369-5.678,31.834c0.564,0.205,1.129,0.411,1.694,0.616c6.893-12.988,13.786-25.977,21.136-39.825
		c-8.837,1.895-16.353,3.507-23.868,5.118c0.026,0.185,0.052,0.369,0.078,0.555C285.422,391.489,287.581,392.044,289.901,392.639z"
		/>
	<path fill-rule="evenodd" clip-rule="evenodd" fill="#F7941D" d="M265.766,155.285c16.914-0.034,30.944,10.743,33.539,25.927
		c1.447,8.461-1.169,15.872-6.703,22.217c-13.438,15.408-39.336,15.725-53.262,0.75c-11.877-12.773-9.664-31.811,4.94-42.201
		C250.7,157.41,257.906,155.271,265.766,155.285z M265.112,203.535c6.799-0.002,12.527-1.794,17.267-6.157
		c7.574-6.972,7.512-17.476-0.08-24.423c-8.971-8.21-24.838-8.035-33.631,0.371c-6.985,6.677-7.198,16.475-0.414,23.354
		C252.988,201.481,258.908,203.452,265.112,203.535z"/>
	<path fill-rule="evenodd" clip-rule="evenodd" fill="#F7941D" d="M206.957,353.724c-8.187-0.216-17.311-3.605-24.429-11.509
		c-9.856-10.943-9.652-26.619,0.396-37.388c13.331-14.288,37.741-14.761,51.672-1.001c11.833,11.687,11.527,29.323-0.705,40.616
		C227.432,350.404,218.622,353.721,206.957,353.724z M209.329,305.474c-6.649,0.005-12.558,1.978-17.345,6.724
		c-6.737,6.678-6.761,16.371-0.129,23.109c8.884,9.025,25.765,9.071,34.719,0.094c6.792-6.811,6.75-16.68-0.189-23.379
		C221.648,307.449,215.851,305.489,209.329,305.474z"/>
	<path fill-rule="evenodd" clip-rule="evenodd" fill="#F7941D" d="M189.119,239.428c-9.211-0.273-17.635-2.976-24.565-9.402
		c-12.783-11.853-12.433-30.498,0.699-41.945c12.733-11.098,33.277-11.554,46.495-1.03c15.699,12.5,15.047,34.178-1.376,45.717
		C204.029,237.224,196.894,239.167,189.119,239.428z M189.205,227.667c6.523,0.002,12.516-2.229,16.787-6.253
		c7.132-6.719,7.32-16.733,0.445-23.64c-9.032-9.073-26.118-8.881-34.953,0.394c-6.319,6.633-6.316,15.981,0.108,22.539
		C176.405,225.621,182.413,227.678,189.205,227.667z"/>
	<path fill-rule="evenodd" clip-rule="evenodd" fill="#F7941D" d="M161.783,245.461c8.708,0.261,17.068,3.083,23.958,9.569
		c12.454,11.725,12.176,30.01-0.573,41.431c-12.787,11.455-33.725,11.972-47.067,1.161c-15.581-12.626-14.713-34.212,1.856-45.699
		C146.322,247.51,153.445,245.522,161.783,245.461z M159.571,293.727c7.779,0.022,13.723-1.872,18.547-6.579
		c6.851-6.684,6.948-16.217,0.322-23.08c-9.006-9.329-26.371-9.241-35.229,0.178c-5.972,6.35-6.252,15.173-0.525,21.738
		C147.42,291.411,153.642,293.605,159.571,293.727z"/>
</g>
</svg>
