<?xml version="1.0" encoding="utf-8"?>
<!-- Generator: Adobe Illustrator 16.0.0, SVG Export Plug-In . SVG Version: 6.00 Build 0)  -->
<!DOCTYPE svg PUBLIC "-//W3C//DTD SVG 1.1//EN" "http://www.w3.org/Graphics/SVG/1.1/DTD/svg11.dtd">
<svg version="1.1" id="Layer_1" xmlns="http://www.w3.org/2000/svg" xmlns:xlink="http://www.w3.org/1999/xlink" x="0px" y="0px"
	 width="512px" height="512px" viewBox="0 0 512 512" enable-background="new 0 0 512 512" xml:space="preserve">
<g>
	<path fill-rule="evenodd" clip-rule="evenodd" fill="#F7941D" d="M77.44,297.678c0-5.136,0-10.077,0-15.439
		c11.82-0.057,22.455,2.482,30.557,11.61c3.123,3.519,6.271,7.135,8.676,11.146c7.056,11.775,34.728,12.888,42.396-2.028
		c6.045-11.755,16.057-19.054,30.196-20.265c0-1.785,0-3.356,0-4.928c0-55.104-0.032-110.206,0.019-165.309
		c0.018-20.102,11.96-35.846,31.111-41.35c19.082-5.484,39.527,1.978,49.988,18.078c6.234,9.595,6.91,20.197,6.192,31.466
		c-5.123,0-10.226,0-15.825,0c0-3.176,0.043-6.243-0.008-9.309c-0.222-13.542-9.922-24.201-23.51-25.873
		c-14.832-1.824-28.04,6.461-31.319,19.719c-0.412,1.666-0.593,3.43-0.6,5.15c-0.051,14.769-0.042,29.537-0.032,44.305
		c0,0.833,0.163,1.666,0.27,2.675c40.34,0,80.497,0,121.216,0c0-1.386,0-2.692,0-3.998c0-13.9-0.021-27.8,0.006-41.699
		c0.047-24.868,21.689-44.509,46.538-42.263c21.047,1.903,36.819,15.263,40.136,34.686c0.903,5.284,0.137,10.853,0.137,16.622
		c-4.746,0-9.745,0-15.325,0c0-2.732,0.005-5.527-0.001-8.321c-0.035-15.924-11.733-27.175-28.163-27.091
		c-15.888,0.082-27.516,11.491-27.518,27.021c-0.008,58.826-0.014,117.652,0.025,176.478c0,0.985,0.328,2.154,0.915,2.922
		c3.082,4.032,6.948,7.605,9.345,11.992c7.373,13.488,36.197,14.323,43.891-0.943c6.563-13.027,18.107-19.674,32.816-20.417
		c1.582-0.08,3.17-0.011,4.99-0.011c0,5.159,0,10.197,0,15.464c-2.861,0.402-5.786,0.724-8.677,1.239
		c-4.997,0.891-8.929,3.556-11.962,7.577c-1.045,1.385-2.093,2.78-3.009,4.251c-10.255,16.475-25.734,20.583-43.81,18.541
		c-11.788-1.332-21.023-6.963-27.829-16.646c-0.642-0.914-1.394-1.755-1.978-2.701c-7.384-11.929-18.457-13.422-30.925-10.951
		c-4.569,0.905-8.255,3.297-11.13,6.924c-1.231,1.554-2.428,3.15-3.475,4.831c-10.26,16.471-25.736,20.585-43.811,18.544
		c-11.787-1.331-21.023-6.959-27.83-16.641c-0.714-1.014-1.548-1.948-2.206-2.996c-7.296-11.602-18.108-13.138-30.315-10.572
		c-4.55,0.957-8.188,3.476-10.988,7.156c-1.879,2.466-3.674,4.997-5.45,7.538c-6.693,9.571-15.997,14.635-27.495,15.683
		c-17.756,1.618-32.761-2.887-43.336-18.587C93.392,300.646,92.473,300.613,77.44,297.678z M326.599,173.555
		c-40.536,0-80.768,0-121.085,0c0,20.607,0,40.99,0,61.456c40.468,0,80.692,0,121.085,0
		C326.599,214.479,326.599,194.186,326.599,173.555z M326.604,251.53c-40.525,0-80.76,0-121.164,0c0,10.534,0,20.788,0,31.414
		c13.249,1.51,21.419,10.068,28.362,20.327c0.9,1.329,1.862,2.704,3.082,3.709c2.175,1.794,4.367,3.793,6.904,4.884
		c13.096,5.626,26.679,1.527,34.288-10.332c7.228-11.263,17.063-18.209,30.655-18.947c5.884-0.32,11.801-0.054,17.872-0.054
		C326.604,272.461,326.604,262.204,326.604,251.53z"/>
	<path fill-rule="evenodd" clip-rule="evenodd" fill="#F7941D" d="M77.453,356.118c0-5.629,0-10.561,0-15.885
		c11.848-0.082,22.446,2.538,30.585,11.626c2.475,2.765,4.849,5.681,6.862,8.79c6.258,9.665,15.446,11.962,26.172,11.151
		c8.09-0.612,13.801-4.373,18.111-11.239c12.031-19.164,35.631-26.222,56.227-16.596c4.561,2.131,8.399,5.984,12.237,9.418
		c2.18,1.949,3.877,4.532,5.457,7.041c8.251,13.109,22.262,12.987,33.303,9.859c2.801-0.793,5.236-3.152,7.6-5.086
		c1.299-1.063,2.165-2.696,3.109-4.148c12.506-19.254,34.34-26.271,55.861-17.942c5.699,2.206,10.35,5.812,14.148,10.546
		c1.553,1.933,3.061,3.907,4.483,5.937c8.124,11.597,21.021,15.842,34.217,10.542c3.465-1.392,6.342-4.528,9.122-7.24
		c1.826-1.781,2.985-4.243,4.461-6.387c8.415-12.219,20.572-16.422,35.083-16.304c0,5.201,0,10.333,0,15.994
		c-12.335-1.25-19.503,5.936-25.767,15.398c-9.695,14.648-24.488,17.367-40.677,15.884c-12.53-1.148-22.151-7.176-29.335-17.463
		c-3.973-5.69-7.961-11.704-15.525-13.033c-15.262-2.681-24.194,0.688-31.191,11.233c-12.518,18.862-34.439,25.238-55.205,16.128
		c-5.148-2.259-9.453-6.581-13.881-10.272c-1.952-1.628-3.438-3.931-4.802-6.132c-6.602-10.647-16.46-13.1-28.032-11.358
		c-5.643,0.849-10.314,3.416-13.736,8.063c-1.764,2.397-3.506,4.81-5.213,7.249c-6.96,9.947-16.701,14.855-28.62,15.76
		c-17.411,1.32-32.18-3.313-42.101-18.801C95.103,360.569,87.978,355.405,77.453,356.118z"/>
	<path fill-rule="evenodd" clip-rule="evenodd" fill="#F7941D" d="M77.505,410.535c0-4.997,0-10.021,0-15.424
		c11.742-0.202,22.245,2.398,30.306,11.365c3.225,3.587,6.411,7.324,8.926,11.417c7.183,11.688,34.622,12.538,42.418-2.212
		c12.146-22.981,36.788-23.497,54.313-17.861c6.585,2.118,11.522,6.674,15.688,12.083c2.271,2.948,4.405,6.008,6.81,8.842
		c10.393,12.238,32.736,11.095,40.902-2.666c12.682-21.368,33.26-23.971,53.689-18.952c7.369,1.811,12.98,6.567,17.545,12.528
		c1.883,2.46,3.707,4.972,5.449,7.535c3.484,5.12,8.287,8.367,14.379,8.924c4.887,0.447,9.893,0.252,14.787-0.235
		c5.213-0.52,9.147-3.569,12.113-7.837c1.555-2.239,3.011-4.552,4.639-6.738c8.792-11.806,19.979-16.955,35.045-16.055
		c0,4.998,0,10.023,0,15.344c-2.13,0.26-4.415,0.541-6.7,0.818c-6.295,0.765-11.136,3.891-14.728,9.057
		c-1.274,1.833-2.609,3.623-3.856,5.473c-8.648,12.846-21.298,17.013-36.048,16.733c-15.097-0.286-27.219-6.167-35.314-19.149
		c-7.309-11.722-17.926-14.33-30.609-11.901c-4.802,0.919-8.855,3.162-11.889,7.045c-1.602,2.051-3.269,4.09-4.568,6.33
		c-14.107,24.353-57.248,23.005-70.768,0.406c-0.887-1.481-2.066-2.789-3.139-4.154c-7.924-10.087-20.373-13.468-32.182-8.224
		c-3.145,1.396-5.803,4.096-8.354,6.544c-1.759,1.687-3.114,3.872-4.363,6.002c-13.668,23.328-56.137,22.46-69.859,0.444
		c-0.262-0.42-0.584-0.802-0.881-1.199C92.537,413.15,91.502,412.525,77.505,410.535z"/>
</g>
</svg>
