<?xml version="1.0" encoding="utf-8"?>
<!-- Generator: Adobe Illustrator 16.0.0, SVG Export Plug-In . SVG Version: 6.00 Build 0)  -->
<!DOCTYPE svg PUBLIC "-//W3C//DTD SVG 1.1//EN" "http://www.w3.org/Graphics/SVG/1.1/DTD/svg11.dtd">
<svg version="1.1" id="Layer_1" xmlns="http://www.w3.org/2000/svg" xmlns:xlink="http://www.w3.org/1999/xlink" x="0px" y="0px"
	 width="512px" height="512px" viewBox="0 0 512 512" enable-background="new 0 0 512 512" xml:space="preserve">
<g>
	<g>
		<path fill="none" stroke="#686868" stroke-width="4.7778" stroke-miterlimit="10" d="M90.269,346.724
			c-52.728-91.539-21.267-208.468,70.267-261.191c91.539-52.728,208.473-21.262,261.196,70.267
			c52.729,91.533,21.267,208.467-70.267,261.191C259.927,469.719,142.992,438.262,90.269,346.724z"/>
		<path fill="#727272" d="M154.125,401.677l-12.351,14.707c61.808,42.612,145.181,48.795,214.459,8.889l-9.537-16.55
			C284.562,444.5,209.891,439.335,154.125,401.677z"/>
		<path fill="#727272" d="M173.012,107.177c-79.58,45.842-106.931,147.509-61.094,227.08
			c45.837,79.579,147.505,106.921,227.065,61.089c79.589-45.842,106.94-147.5,61.099-227.07
			C354.25,88.705,252.582,61.34,173.012,107.177z M390.433,173.833c42.771,74.242,17.25,169.093-57.006,211.864
			c-74.233,42.763-169.093,17.25-211.864-57.002c-42.762-74.237-17.245-169.097,57.006-211.873
			C252.811,74.059,347.671,99.59,390.433,173.833z"/>
	</g>
	<path fill-rule="evenodd" clip-rule="evenodd" fill="#686868" d="M197.378,247.772c0-16.218,0-32.437,0-48.654
		c1.945-4.628,3.608-5.725,8.69-5.724c14.348,0,28.695-0.003,43.042,0.001c5.327,0.001,9.897,1.874,13.666,5.64
		c21.673,21.665,43.339,43.336,65.008,65.006c3.774,3.773,3.785,7.663,0.03,11.419c-15.783,15.787-31.574,31.564-47.341,47.367
		c-1.567,1.569-3.127,3.089-5.301,3.78c-0.955,0-1.907,0-2.862,0c-2.123-0.687-3.665-2.154-5.203-3.695
		c-21.316-21.353-42.646-42.691-64.003-64.004c-2.366-2.362-3.954-5.123-4.944-8.269
		C197.863,249.695,197.637,248.729,197.378,247.772z M218.21,205.887c-4.599-0.009-8.345,3.735-8.339,8.333
		c0.007,4.544,3.7,8.271,8.236,8.309c4.6,0.038,8.386-3.688,8.406-8.271C226.534,209.654,222.805,205.895,218.21,205.887z"/>
</g>
</svg>
