<?xml version="1.0" encoding="utf-8"?>
<!-- Generator: Adobe Illustrator 16.0.0, SVG Export Plug-In . SVG Version: 6.00 Build 0)  -->
<!DOCTYPE svg PUBLIC "-//W3C//DTD SVG 1.1//EN" "http://www.w3.org/Graphics/SVG/1.1/DTD/svg11.dtd">
<svg version="1.1" id="Layer_1" xmlns="http://www.w3.org/2000/svg" xmlns:xlink="http://www.w3.org/1999/xlink" x="0px" y="0px"
	 width="512px" height="512px" viewBox="0 0 512 512" enable-background="new 0 0 512 512" xml:space="preserve">
<g>
	<path fill-rule="evenodd" clip-rule="evenodd" d="M255.563,425.869c-35.041,0-70.083,0.03-105.125-0.01
		c-20.776-0.024-30.715-10.052-30.726-31.037c-0.03-65.961-0.027-211.424-0.002-277.386c0.009-21.4,9.91-31.216,31.427-31.224
		c55.656-0.019,111.309,0.083,166.963-0.099c8.523-0.028,15.223,2.527,21.163,8.74c14.854,15.536,30.521,30.318,44.911,46.259
		c4.298,4.761,7.642,12.329,7.715,18.654c0.607,52.409,0.41,184.33,0.307,236.746c-0.037,18.96-10.605,29.295-29.738,29.335
		C326.826,425.922,291.194,425.869,255.563,425.869z M255.703,410.426c15.903,0,31.804,0.012,47.707-0.002
		c20.025-0.019,40.053,0.154,60.072-0.176c10.451-0.171,13.423-3.593,13.728-14.078c0.138-4.708,0.042-9.422,0.042-14.134
		c-0.002-43.288-0.143-166.081,0.124-209.368c0.047-7.669-2.381-10.591-10.176-10.098c-8.798,0.556-17.665,0.306-26.493,0.049
		c-12.791-0.371-22.79-10.265-23.23-23.035c-0.305-8.825-0.695-17.716,0.033-26.488c0.754-9.097-2.787-11.637-11.503-11.586
		c-51.239,0.297-102.48,0.098-153.721,0.176c-15.015,0.022-17.585,2.668-17.591,17.445c-0.028,64.786-0.028,209.075,0,273.862
		c0.006,14.731,2.59,17.356,17.645,17.396C186.795,410.481,221.249,410.418,255.703,410.426z M323.736,105.985
		c0,10.713-0.885,23.311,0.462,35.666c0.497,4.556,5.417,10.669,9.774,12.384c13.242,5.213,27.211,2.506,42.505,1.796
		C357.83,138.207,340.662,121.981,323.736,105.985z"/>
	<path fill-rule="evenodd" clip-rule="evenodd" d="M190.887,197.905c-8.522,0-17.049-0.082-25.57,0.024
		c-7.95,0.099-12.062-3.524-12.041-11.633c0.038-14.696,0.065-29.392-0.012-44.086c-0.044-8.069,3.896-11.85,11.874-11.829
		c17.634,0.043,35.268,0.022,52.902,0.012c8.08-0.004,11.687,4.113,11.623,12.077c-0.109,14.4,0.06,28.804-0.063,43.205
		c-0.075,8.917-3.308,12.083-12.261,12.205C208.523,198,199.705,197.906,190.887,197.905z M212.823,182.87
		c0-12.061,0-23.595,0-35.671c-14.417,0-28.298,0-42.729,0c0,12.059,0,23.594,0,35.671
		C184.509,182.87,198.394,182.87,212.823,182.87z"/>
	<path fill-rule="evenodd" clip-rule="evenodd" d="M304,136.038c0,2.74-2.221,4.962-4.961,4.962h-52.078
		c-2.74,0-4.961-2.222-4.961-4.962v-1.076c0-2.74,2.221-4.962,4.961-4.962h52.078c2.74,0,4.961,2.222,4.961,4.962V136.038z"/>
	<path fill-rule="evenodd" clip-rule="evenodd" d="M304,166.038c0,2.74-2.221,4.962-4.961,4.962h-52.078
		c-2.74,0-4.961-2.222-4.961-4.962v-1.076c0-2.74,2.221-4.962,4.961-4.962h52.078c2.74,0,4.961,2.222,4.961,4.962V166.038z"/>
	<path fill-rule="evenodd" clip-rule="evenodd" d="M357,194.039c0,2.74-2.221,4.961-4.961,4.961H246.961
		c-2.74,0-4.961-2.221-4.961-4.961v-1.077c0-2.74,2.221-4.961,4.961-4.961h105.078c2.74,0,4.961,2.221,4.961,4.961V194.039z"/>
	<path fill-rule="evenodd" clip-rule="evenodd" d="M357,222.04c0,2.74-2.221,4.96-4.961,4.96H158.961
		c-2.74,0-4.961-2.221-4.961-4.96v-1.079c0-2.74,2.221-4.96,4.961-4.96h193.078c2.74,0,4.961,2.221,4.961,4.96V222.04z"/>
	<path fill-rule="evenodd" clip-rule="evenodd" d="M357,251.039c0,2.74-2.221,4.961-4.961,4.961H158.961
		c-2.74,0-4.961-2.221-4.961-4.961v-1.078c0-2.74,2.221-4.961,4.961-4.961h193.078c2.74,0,4.961,2.221,4.961,4.961V251.039z"/>
	<path fill-rule="evenodd" clip-rule="evenodd" d="M357,278.726c0,2.913-2.058,5.274-4.596,5.274H158.596
		c-2.538,0-4.596-2.361-4.596-5.274v-0.451c0-2.913,2.058-5.274,4.596-5.274h193.809c2.538,0,4.596,2.361,4.596,5.274V278.726z"/>
	<path fill-rule="evenodd" clip-rule="evenodd" d="M357,307.04c0,2.74-2.221,4.96-4.961,4.96H158.961
		c-2.74,0-4.961-2.221-4.961-4.96v-1.079c0-2.74,2.221-4.96,4.961-4.96h193.078c2.74,0,4.961,2.221,4.961,4.96V307.04z"/>
	<path fill-rule="evenodd" clip-rule="evenodd" d="M357,336.039c0,2.74-2.221,4.961-4.961,4.961H158.961
		c-2.74,0-4.961-2.221-4.961-4.961v-1.078c0-2.74,2.221-4.961,4.961-4.961h193.078c2.74,0,4.961,2.221,4.961,4.961V336.039z"/>
	<path fill-rule="evenodd" clip-rule="evenodd" d="M357,363.726c0,2.913-2.058,5.274-4.596,5.274H158.596
		c-2.538,0-4.596-2.361-4.596-5.274v-0.451c0-2.913,2.058-5.274,4.596-5.274h193.809c2.538,0,4.596,2.361,4.596,5.274V363.726z"/>
	<path fill-rule="evenodd" clip-rule="evenodd" d="M357,393.04c0,2.74-2.221,4.96-4.961,4.96H158.961
		c-2.74,0-4.961-2.221-4.961-4.96v-1.079c0-2.74,2.221-4.96,4.961-4.96h193.078c2.74,0,4.961,2.221,4.961,4.96V393.04z"/>
</g>
</svg>
