<?xml version="1.0" encoding="utf-8"?>
<!-- Generator: Adobe Illustrator 16.0.0, SVG Export Plug-In . SVG Version: 6.00 Build 0)  -->
<!DOCTYPE svg PUBLIC "-//W3C//DTD SVG 1.1//EN" "http://www.w3.org/Graphics/SVG/1.1/DTD/svg11.dtd">
<svg version="1.1" id="Layer_1" xmlns="http://www.w3.org/2000/svg" xmlns:xlink="http://www.w3.org/1999/xlink" x="0px" y="0px"
	 width="512px" height="512px" viewBox="0 0 512 512" enable-background="new 0 0 512 512" xml:space="preserve">
<g>
	<path fill-rule="evenodd" clip-rule="evenodd" fill="#F7941D" d="M65.293,203.038c1.012-0.713,2.002-1.457,3.038-2.134
		c61.188-39.991,122.395-79.954,183.527-120.029c3.125-2.048,5.231-2.008,8.379,0.065c35.526,23.401,71.172,46.621,106.784,69.893
		c25.467,16.643,50.931,33.289,76.392,49.939c1.116,0.73,2.196,1.515,3.294,2.274c-0.07,0.358-0.14,0.716-0.211,1.074
		c-3.704,0-7.408,0-11.111,0c-5.171,0.001-10.343,0.034-15.513-0.008c-2.704-0.022-2.552,1.818-2.554,3.641
		c-0.013,14.014-0.048,28.029-0.05,42.043c-0.006,59.088-0.001,118.175-0.006,177.263c0,5.464-0.018,5.485-5.338,5.485
		c-79.289,0.005-158.577,0.003-237.865,0.004c-24.873,0-49.745-0.079-74.616,0.088c-3.919,0.026-4.902-1.283-4.892-4.996
		c0.111-36.614,0.066-73.228,0.071-109.842c0.006-36.486-0.008-72.973,0.074-109.459c0.008-3.221-0.842-4.388-4.328-4.261
		c-8.287,0.3-16.592,0.096-24.89,0.096C65.417,203.797,65.355,203.418,65.293,203.038z M255.773,416.864
		c46.967,0,93.933,0.001,140.899-0.003c4.916,0,4.926-0.016,4.925-5.118c-0.014-67.545-0.055-135.09,0.026-202.636
		c0.004-3.533-0.807-4.844-4.575-4.828c-31.058,0.133-62.116,0.079-93.174,0.08c-62.621,0.002-125.242,0.008-187.863-0.003
		c-5.721,0-5.684-0.049-5.683,5.506c0.016,67.293,0.021,134.586,0.021,201.879c0,5.149-0.035,5.121,5.282,5.12
		C162.346,416.855,209.06,416.858,255.773,416.864z M118.157,187.607c92.28,0,183.402,0,275.368,0
		c-1.632-1.188-2.507-1.886-3.44-2.496c-43.528-28.455-87.076-56.881-130.558-85.406c-2.62-1.718-4.479-1.685-7.083,0.024
		c-35.886,23.546-71.846,46.979-107.779,70.453C136.119,175.764,127.604,181.395,118.157,187.607z"/>
	<path fill-rule="evenodd" clip-rule="evenodd" fill="#F7941D" d="M255.771,279.543c-27.508,0-55.017-0.06-82.523,0.073
		c-3.597,0.018-5.073-0.934-4.692-4.652c0.281-2.749,0.231-5.558,0.041-8.32c-0.195-2.847,0.934-3.722,3.706-3.704
		c13.122,0.087,26.245-0.002,39.369,0c42.145,0.007,84.289,0.023,126.434,0.045c5.215,0.002,5.219,0.026,5.215,5.164
		c-0.003,2.523-0.189,5.061,0.009,7.568c0.236,3.006-0.944,3.907-3.898,3.88c-12.869-0.117-25.741-0.024-38.612-0.019
		c-15.016,0.007-30.03,0.001-45.047,0.001C255.771,279.567,255.771,279.555,255.771,279.543z"/>
	<path fill-rule="evenodd" clip-rule="evenodd" fill="#F7941D" d="M255.938,318.042c-27.523,0-55.047-0.06-82.57,0.074
		c-3.542,0.017-4.512-1.117-4.485-4.542c0.085-11.231-0.032-11.231,11.333-11.235c52.772-0.018,105.547-0.011,158.32-0.117
		c3.491-0.007,4.534,1.126,4.509,4.574c-0.079,11.21,0.043,11.208-10.974,11.206c-25.377-0.002-50.755,0-76.133,0
		C255.938,318.017,255.938,318.03,255.938,318.042z"/>
	<path fill-rule="evenodd" clip-rule="evenodd" fill="#F7941D" d="M255.583,356.765c-27.511,0-55.021-0.057-82.53,0.072
		c-3.421,0.016-4.514-1.162-4.249-4.37c0.186-2.257,0.264-4.561,0.033-6.807c-0.368-3.586,0.884-4.796,4.608-4.76
		c17.16,0.165,34.323,0.03,51.485,0.033c37.606,0.006,75.212,0.029,112.818,0.049c5.365,0.003,5.365,0.013,5.311,5.429
		c-0.104,10.257-0.104,10.336-10.246,10.355c-25.744,0.047-51.486,0.016-77.23,0.016
		C255.583,356.775,255.583,356.771,255.583,356.765z"/>
	<path fill-rule="evenodd" clip-rule="evenodd" fill="#F7941D" d="M255.582,395.413c-27.376,0-54.754-0.056-82.129,0.07
		c-3.413,0.016-4.884-0.845-4.551-4.42c0.245-2.625,0.143-5.301-0.021-7.941c-0.166-2.684,0.981-3.468,3.556-3.461
		c25.357,0.066,50.716,0.042,76.074,0.042c29.143,0.001,58.286,0.002,87.43,0.004c1.387,0,2.776,0.068,4.161,0.01
		c2.119-0.089,2.925,0.92,2.879,2.975c-0.067,3.026-0.122,6.062,0.046,9.081c0.158,2.856-1.103,3.708-3.804,3.689
		c-10.849-0.079-21.698-0.006-32.548-0.003c-17.031,0.006-34.063,0.002-51.093,0.002
		C255.582,395.445,255.582,395.429,255.582,395.413z"/>
</g>
</svg>
