<?xml version="1.0" encoding="utf-8"?>
<!-- Generator: Adobe Illustrator 16.0.0, SVG Export Plug-In . SVG Version: 6.00 Build 0)  -->
<!DOCTYPE svg PUBLIC "-//W3C//DTD SVG 1.1//EN" "http://www.w3.org/Graphics/SVG/1.1/DTD/svg11.dtd">
<svg version="1.1" id="Layer_1" xmlns="http://www.w3.org/2000/svg" xmlns:xlink="http://www.w3.org/1999/xlink" x="0px" y="0px"
	 width="512px" height="512px" viewBox="0 0 512 512" enable-background="new 0 0 512 512" xml:space="preserve">
<g>
	<g>
		<path fill="none" stroke="#686868" stroke-width="4.7778" stroke-miterlimit="10" d="M90.269,346.724
			c-52.728-91.539-21.267-208.468,70.267-261.191c91.539-52.728,208.473-21.262,261.196,70.267
			c52.729,91.533,21.267,208.467-70.267,261.191C259.927,469.719,142.992,438.262,90.269,346.724z"/>
		<path fill="#727272" d="M154.125,401.677l-12.351,14.707c61.808,42.612,145.181,48.795,214.459,8.889l-9.537-16.55
			C284.562,444.5,209.891,439.335,154.125,401.677z"/>
		<path fill="#727272" d="M173.012,107.177c-79.58,45.842-106.931,147.509-61.094,227.08
			c45.837,79.579,147.505,106.921,227.065,61.089c79.589-45.842,106.94-147.5,61.099-227.07
			C354.25,88.705,252.582,61.34,173.012,107.177z M390.433,173.833c42.771,74.242,17.25,169.093-57.006,211.864
			c-74.233,42.763-169.093,17.25-211.864-57.002c-42.762-74.237-17.245-169.097,57.006-211.873
			C252.811,74.059,347.671,99.59,390.433,173.833z"/>
	</g>
	<g>
		<path fill-rule="evenodd" clip-rule="evenodd" fill="#686868" d="M250.431,300.803c21.447,0.002,42.897,0.168,64.341-0.078
			c8.847-0.103,13.699,4.569,13.346,12.067c-0.073,1.528-0.392,3.093-0.878,4.545c-1.847,5.511-6.114,8.565-11.919,8.57
			c-19.951,0.021-39.903,0.009-59.854,0.009c-23.11,0-46.22,0.003-69.328-0.006c-6.514-0.003-11.075-3.502-12.775-9.746
			c-1.73-6.347,0.681-10.662,5.715-13.748c1.902-1.166,3.964-1.608,6.182-1.606c17.013,0.013,34.026-0.002,51.041-0.007
			C241.011,300.801,245.721,300.803,250.431,300.803z"/>
		<path fill-rule="evenodd" clip-rule="evenodd" fill="#686868" d="M265.62,210.271c-8.048,14.437-15.996,28.695-24.018,43.084
			c-0.542-0.248-0.991-0.419-1.405-0.649c-12.532-6.979-25.054-13.976-37.603-20.923c-1.114-0.618-1.359-1.1-0.697-2.28
			c7.563-13.476,15.07-26.982,22.599-40.478c0.209-0.376,0.48-0.716,0.822-1.221C238.759,195.297,252.129,202.751,265.62,210.271z"
			/>
		<path fill-rule="evenodd" clip-rule="evenodd" fill="#686868" d="M246.093,270.025c-0.012,5.12-3.943,9.697-9.02,10.002
			c-1.7,0.102-3.634-0.555-5.173-1.394c-9.191-5.008-18.297-10.174-27.434-15.28c-6.575-3.673-13.148-7.353-19.739-10.998
			c-3.805-2.104-5.775-5.984-4.895-9.787c1.096-4.729,4.699-8.309,8.936-8.312c1.838-0.001,3.842,0.675,5.489,1.563
			c7.946,4.284,15.797,8.742,23.677,13.146c7.688,4.295,15.367,8.604,23.055,12.902C244.315,263.729,246.1,266.575,246.093,270.025z
			"/>
		<path fill-rule="evenodd" clip-rule="evenodd" fill="#686868" d="M230.158,161.254c1.541,0.549,3.196,0.894,4.604,1.679
			c15.429,8.612,30.804,17.321,46.232,25.932c3.016,1.684,5.167,3.946,5.441,7.428c0.302,3.834-1.242,7.114-4.292,9.409
			c-2.84,2.137-6.067,2.331-9.231,0.567c-15.966-8.899-31.927-17.811-47.864-26.761c-3.626-2.037-5.358-6.413-4.267-10.285
			C222.102,164.54,225.785,161.496,230.158,161.254z"/>
		<path fill-rule="evenodd" clip-rule="evenodd" fill="#686868" d="M256.25,241.429c2.393-4.172,4.667-8.14,7.018-12.238
			c2.507,1.382,4.879,2.677,7.238,3.994c21.121,11.803,42.236,23.621,63.37,35.402c2.229,1.243,4.315,2.541,5.008,5.212
			c0.718,2.75,0.255,5.191-2.064,7.028c-2.416,1.913-5.073,2.476-7.892,0.95c-4.524-2.456-9.013-4.983-13.517-7.479
			c-19.129-10.602-38.258-21.204-57.385-31.809C257.502,242.198,256.994,241.874,256.25,241.429z"/>
	</g>
</g>
</svg>
