<?xml version="1.0" encoding="utf-8"?>
<!-- Generator: Adobe Illustrator 16.0.0, SVG Export Plug-In . SVG Version: 6.00 Build 0)  -->
<!DOCTYPE svg PUBLIC "-//W3C//DTD SVG 1.1//EN" "http://www.w3.org/Graphics/SVG/1.1/DTD/svg11.dtd">
<svg version="1.1" id="Layer_1" xmlns="http://www.w3.org/2000/svg" xmlns:xlink="http://www.w3.org/1999/xlink" x="0px" y="0px"
	 width="512px" height="512px" viewBox="0 0 512 512" enable-background="new 0 0 512 512" xml:space="preserve">
<g>
	<path d="M390.634,353.561l-67.433-67.431c10.17-16.705,16.025-36.32,16.025-57.308c0-60.967-52.829-113.794-113.807-113.794
		c-60.964,0-110.392,49.428-110.392,110.399c0,60.97,52.83,113.793,113.793,113.793c20.27,0,39.258-5.489,55.583-15.025
		l67.795,67.799c6.636,6.637,17.391,6.637,24.021,0l16.82-16.811C399.674,368.546,397.27,360.194,390.634,353.561z M149.001,225.428
		c0-42.214,34.218-76.432,76.418-76.432c42.22,0,79.833,37.612,79.833,79.826c0,42.211-34.218,76.432-76.432,76.432
		C186.614,305.254,149.001,267.64,149.001,225.428z"/>
</g>
</svg>
