<?xml version="1.0" encoding="utf-8"?>
<!-- Generator: Adobe Illustrator 16.0.0, SVG Export Plug-In . SVG Version: 6.00 Build 0)  -->
<!DOCTYPE svg PUBLIC "-//W3C//DTD SVG 1.1//EN" "http://www.w3.org/Graphics/SVG/1.1/DTD/svg11.dtd">
<svg version="1.1" id="Layer_1" xmlns="http://www.w3.org/2000/svg" xmlns:xlink="http://www.w3.org/1999/xlink" x="0px" y="0px"
	 width="512px" height="512px" viewBox="0 0 512 512" enable-background="new 0 0 512 512" xml:space="preserve">
<g>
	<path fill-rule="evenodd" clip-rule="evenodd" fill="#F7941D" d="M346.183,407.071c-8.405,9.881-16.322,19.189-23.629,27.777
		c-31.914,11.485-44.431-20.302-66.699-28.127c-22.903,7.68-35.494,37.237-65.56,28.858c-8.314-9.557-16.782-19.288-24.778-28.483
		c-24.438,6.55-37.098,36.618-68.687,27.912c-0.429-7.867-1.257-16.073-1.264-24.28c-0.093-93.066-0.138-186.13-0.02-279.195
		c0.05-41.16,15.838-56.693,57.554-56.763c69.222-0.116,138.444-0.14,207.664,0.013c39.613,0.086,55.646,16.299,55.696,56.292
		c0.117,93.063,0.038,186.13,0.038,279.193c0,7.573,0,15.146,0,23.333C384.217,445.577,371.376,413.493,346.183,407.071z
		 M389.085,408.662c1.122-4.207,2.158-6.285,2.161-8.36c0.09-90.874,0.29-181.748-0.047-272.622
		c-0.076-21.116-7.716-27.762-30.548-27.846c-68.54-0.25-137.083-0.199-205.624-0.054c-28.928,0.062-34.345,5.753-34.38,35.779
		c-0.099,84.717-0.061,169.428,0.014,254.143c0.006,5.749,0.763,11.5,1.345,19.686c15.301-10.663,28.325-19.741,42.954-29.936
		c11.745,14.28,22.801,27.722,34.754,42.256c19.521-14.758,37.68-28.483,56.286-42.548c18.366,15.306,35.193,29.332,52.312,43.6
		c14.257-15.773,26.445-29.263,39.118-43.284C362.186,389.816,375.164,398.91,389.085,408.662z"/>
	<path fill-rule="evenodd" clip-rule="evenodd" fill="#F7941D" d="M346,179.703c0,6.239-5.058,11.297-11.296,11.297H178.296
		c-6.238,0-11.296-5.058-11.296-11.297v-5.406c0-6.239,5.058-11.297,11.296-11.297h156.408c6.238,0,11.296,5.058,11.296,11.297
		V179.703z"/>
	<path fill-rule="evenodd" clip-rule="evenodd" fill="#F7941D" d="M346,232.704c0,6.238-5.058,11.296-11.296,11.296H178.296
		c-6.238,0-11.296-5.058-11.296-11.296v-5.408c0-6.238,5.058-11.296,11.296-11.296h156.408c6.238,0,11.296,5.058,11.296,11.296
		V232.704z"/>
	<path fill-rule="evenodd" clip-rule="evenodd" fill="#F7941D" d="M346,284.703c0,6.239-5.058,11.297-11.296,11.297H178.296
		c-6.238,0-11.296-5.058-11.296-11.297v-5.406c0-6.239,5.058-11.297,11.296-11.297h156.408c6.238,0,11.296,5.058,11.296,11.297
		V284.703z"/>
</g>
</svg>
