<?xml version="1.0" encoding="utf-8"?>
<!-- Generator: Adobe Illustrator 16.0.0, SVG Export Plug-In . SVG Version: 6.00 Build 0)  -->
<!DOCTYPE svg PUBLIC "-//W3C//DTD SVG 1.1//EN" "http://www.w3.org/Graphics/SVG/1.1/DTD/svg11.dtd">
<svg version="1.1" id="Layer_1" xmlns="http://www.w3.org/2000/svg" xmlns:xlink="http://www.w3.org/1999/xlink" x="0px" y="0px"
	 width="512px" height="512px" viewBox="0 0 512 512" enable-background="new 0 0 512 512" xml:space="preserve">
<g>
	<path fill-rule="evenodd" clip-rule="evenodd" d="M142.843,383.078c-2.646-6.732-5.163-13.125-7.926-20.152
		c-13.226-7.488-32.384-4.032-44.171-22.309c6.585-3.4,12.15-6.969,18.198-9.273c24.271-9.25,40.95-26.491,51.965-49.383
		c2.64-5.488,2.714-12.212,3.721-17.154c-12.29-13.168-32.6-10.617-39.765-27.223c9.023-23.049,27.581-3.571,41.298-10.611
		c0-11,0.782-22.857-0.138-34.583c-3.711-47.331,28.644-76.882,56.56-86.203c42.17-14.079,86.93-1.02,109.659,32.175
		c9.622,14.052,13.548,29.435,13.113,46.314c-0.364,14.066-0.075,28.149-0.075,42.125c13.848,7.031,32.142-11.982,41.936,9.793
		c-5.304,18.508-27.924,14.393-39.524,30.097c1.458,5.005,2.388,12.544,5.718,18.812c11.63,21.9,28.51,38.253,52.423,46.729
		c5.175,1.832,9.756,5.345,15.418,8.538c-10.902,17.386-28.873,15.15-43.147,21.877c-2.444,5.396-5.095,11.25-8.676,19.157
		c-32.833-8.277-59.214,6.813-86.533,22.827c-17.222,10.094-38.03,8.307-56.678-1.229c-6.288-3.215-12.472-6.857-18.095-11.108
		c-15.949-12.053-33.838-13.988-52.823-11.187C151.607,381.651,147.921,382.27,142.843,383.078z"/>
</g>
</svg>
