<?xml version="1.0" encoding="utf-8"?>
<!-- Generator: Adobe Illustrator 16.0.0, SVG Export Plug-In . SVG Version: 6.00 Build 0)  -->
<!DOCTYPE svg PUBLIC "-//W3C//DTD SVG 1.1//EN" "http://www.w3.org/Graphics/SVG/1.1/DTD/svg11.dtd">
<svg version="1.1" id="Layer_1" xmlns="http://www.w3.org/2000/svg" xmlns:xlink="http://www.w3.org/1999/xlink" x="0px" y="0px"
	 width="512px" height="512px" viewBox="0 0 512 512" enable-background="new 0 0 512 512" xml:space="preserve">
<g>
	<path fill-rule="evenodd" clip-rule="evenodd" d="M97.049,82.035c42.351,0,84.701,0,127.053,0c0.518,0.201,1.019,0.482,1.555,0.589
		c10.693,2.128,19.951,6.773,27.757,14.597c55.567,55.7,111.217,111.319,166.895,166.91c4.022,4.017,7.857,8.044,9.662,13.582
		c0,2.49,0,4.981,0,7.474c-2.182,3.482-3.803,7.521-6.628,10.363c-42.458,42.704-85.07,85.253-127.657,127.826
		c-8.822,8.819-19.532,8.775-28.383-0.072c-19.454-19.444-38.9-38.896-58.349-58.346c-37.617-37.62-75.257-75.215-112.831-112.875
		c-8.665-8.686-13.752-19.417-13.867-31.56c-0.379-40.066-0.174-80.138-0.125-120.208c0.01-7.958,4.96-14.616,12.452-17.294
		C95.414,82.723,96.227,82.365,97.049,82.035z M136.541,114.658c-12.018-0.039-21.817,9.717-21.817,21.723
		c-0.001,11.872,9.629,21.623,21.467,21.738c12.021,0.117,21.924-9.59,21.994-21.559
		C158.255,124.537,148.532,114.697,136.541,114.658z"/>
</g>
</svg>
