<?xml version="1.0" encoding="utf-8"?>
<!-- Generator: Adobe Illustrator 16.0.0, SVG Export Plug-In . SVG Version: 6.00 Build 0)  -->
<!DOCTYPE svg PUBLIC "-//W3C//DTD SVG 1.1//EN" "http://www.w3.org/Graphics/SVG/1.1/DTD/svg11.dtd">
<svg version="1.1" id="Layer_1" xmlns="http://www.w3.org/2000/svg" xmlns:xlink="http://www.w3.org/1999/xlink" x="0px" y="0px"
	 width="512px" height="512px" viewBox="0 0 512 512" enable-background="new 0 0 512 512" xml:space="preserve">
<g>
	<g>
		<path fill-rule="evenodd" clip-rule="evenodd" fill="#686868" d="M205.545,177.84c0,2.285-0.03,4.446,0.006,6.606
			c0.112,6.869,5.835,12.519,12.626,12.492c6.897-0.026,12.551-5.532,12.701-12.409c0.05-2.288,0.008-4.578,0.008-7.016
			c4.139,0,8.16,0,12.437,0c0,2.147-0.011,4.287,0.002,6.427c0.042,7.288,5.641,13.018,12.708,13.017
			c7.053-0.001,12.613-5.751,12.645-13.079c0.009-2.087,0.001-4.173,0.001-6.508c2.158,0,4.166,0,6.174,0c2.016,0,4.032,0,6.251,0
			c0,2.407-0.012,4.619,0.003,6.83c0.046,7.074,5.813,12.836,12.76,12.759c6.94-0.076,12.533-5.731,12.591-12.745
			c0.017-2.092,0.002-4.184,0.002-6.289c5.685,0.742,10.897,5.882,12.023,11.843c0.253,1.342,0.385,2.729,0.385,4.095
			c0.02,45.706,0.019,91.411,0.015,137.117c-0.001,9.401-6.852,16.229-16.275,16.231c-30.82,0.006-61.64,0.007-92.46,0.007
			c-10.524,0-17.028-6.517-17.028-17.052c0-45.51-0.003-91.018,0.004-136.527C193.123,185.722,197.995,179.442,205.545,177.84z
			 M205.629,215.076c-0.039,0.544-0.082,0.866-0.082,1.188c-0.002,21.767-0.002,43.535,0.016,65.301c0,0.639,0.111,1.308,0.322,1.91
			c6.976,19.907,19.931,34.341,39.353,42.781c2.255,0.979,4.704,2.101,7.075,2.128c15.931,0.188,31.864,0.149,47.795,0.013
			c1.528-0.013,3.238-0.956,4.523-1.92c1.677-1.258,1.844-3.317,1.842-5.362c-0.021-34.684-0.015-69.366-0.018-104.05
			c0-0.635-0.064-1.269-0.104-1.989C272.741,215.076,239.27,215.076,205.629,215.076z M205.764,304.505
			c-0.134,0.792-0.21,1.03-0.21,1.271c-0.007,5.564-0.063,11.131,0.017,16.693c0.047,3.35,2.837,5.977,6.274,6.007
			c5.303,0.046,10.606,0.018,15.909,0.004c0.398-0.001,0.796-0.14,1.534-0.276C219.743,321.897,212.093,314.195,205.764,304.505z"/>
		<path fill-rule="evenodd" clip-rule="evenodd" fill="#686868" d="M224.437,177.269c0,2.03,0.036,4.062-0.007,6.09
			c-0.082,3.68-2.868,6.502-6.297,6.435c-3.404-0.067-6.059-2.793-6.11-6.405c-0.057-4.06-0.062-8.122,0-12.182
			c0.057-3.731,2.786-6.462,6.281-6.425c3.38,0.037,6.026,2.776,6.116,6.396c0.051,2.029,0.01,4.06,0.01,6.091
			C224.432,177.269,224.434,177.269,224.437,177.269z"/>
		<path fill-rule="evenodd" clip-rule="evenodd" fill="#686868" d="M249.79,177.186c0.001-2.03-0.046-4.063,0.011-6.091
			c0.1-3.589,2.804-6.31,6.202-6.312c3.398-0.002,6.138,2.726,6.192,6.313c0.063,4.126,0.063,8.254-0.001,12.38
			c-0.056,3.588-2.811,6.331-6.19,6.312c-3.427-0.019-6.088-2.689-6.203-6.314C249.735,181.38,249.789,179.282,249.79,177.186z"/>
		<path fill-rule="evenodd" clip-rule="evenodd" fill="#686868" d="M287.57,177.187c0-2.031-0.044-4.063,0.011-6.093
			c0.099-3.616,2.773-6.311,6.191-6.312c3.41-0.001,6.148,2.708,6.208,6.306c0.068,4.127,0.065,8.256-0.008,12.383
			c-0.064,3.614-2.779,6.312-6.191,6.316c-3.401,0.004-6.115-2.722-6.208-6.311c-0.054-2.095-0.01-4.193-0.01-6.29
			C287.566,177.187,287.569,177.187,287.57,177.187z"/>
		<path fill-rule="evenodd" clip-rule="evenodd" fill="#686868" d="M256.001,233.878c-11.605,0-23.213,0.022-34.817-0.042
			c-0.919-0.005-2.531-0.482-2.62-0.963c-0.273-1.469-0.048-3.063,0.203-4.571c0.046-0.276,1.123-0.54,1.725-0.541
			c23.67-0.027,47.341-0.017,71.012-0.037c1.604-0.001,2.306,0.67,2.196,2.251c-0.027,0.391,0,0.786-0.001,1.18
			c-0.001,2.474-0.239,2.719-2.684,2.719c-10.819,0-21.638-0.002-32.456-0.003c-0.854,0-1.705,0-2.558,0
			C256.001,233.874,256.001,233.875,256.001,233.878z"/>
		<path fill-rule="evenodd" clip-rule="evenodd" fill="#686868" d="M255.99,252.761c-11.604,0-23.21,0.022-34.813-0.042
			c-0.919-0.004-2.535-0.477-2.62-0.949c-0.265-1.472-0.072-3.074,0.239-4.563c0.066-0.323,1.367-0.546,2.101-0.549
			c11.734-0.036,23.471-0.03,35.206-0.03c11.604,0,23.21,0.002,34.814,0.008c2.588,0.001,2.779,0.204,2.779,2.818
			c-0.001,3.132-0.128,3.304-2.694,3.305C279.332,252.765,267.661,252.761,255.99,252.761z"/>
		<path fill-rule="evenodd" clip-rule="evenodd" fill="#686868" d="M256.053,271.651c-11.671,0-23.341,0.003-35.012-0.003
			c-2.594-0.001-2.746-0.187-2.744-3.062c0.002-2.893,0.144-3.067,2.739-3.067c23.341-0.002,46.682,0.001,70.022,0.004
			c2.36,0,2.616,0.256,2.637,2.568c0.031,3.559,0.031,3.559-3.615,3.559C278.737,271.651,267.395,271.651,256.053,271.651z"/>
		<path fill-rule="evenodd" clip-rule="evenodd" fill="#686868" d="M256.204,284.411c11.605,0.003,23.21-0.001,34.814,0.006
			c2.501,0.001,2.681,0.214,2.685,2.924c0.004,2.982-0.154,3.202-2.611,3.203c-23.472,0.005-46.944-0.011-70.416,0.024
			c-1.819,0.002-2.527-0.723-2.377-2.467c0.04-0.456,0.038-0.92,0-1.376c-0.139-1.687,0.609-2.343,2.305-2.331
			c7.408,0.046,14.817,0.015,22.226,0.014C247.288,284.408,251.746,284.408,256.204,284.411z"/>
	</g>
	<g>
		<path fill="none" stroke="#686868" stroke-width="4.7778" stroke-miterlimit="10" d="M90.269,346.724
			c-52.728-91.539-21.267-208.468,70.267-261.191c91.539-52.728,208.473-21.262,261.196,70.267
			c52.729,91.534,21.267,208.467-70.267,261.191C259.927,469.719,142.992,438.262,90.269,346.724z"/>
		<path fill="#727272" d="M154.125,401.677l-12.351,14.707c61.808,42.612,145.181,48.795,214.459,8.889l-9.537-16.55
			C284.562,444.5,209.891,439.335,154.125,401.677z"/>
		<path fill="#727272" d="M173.012,107.177c-79.58,45.842-106.931,147.51-61.094,227.08
			c45.837,79.579,147.505,106.921,227.065,61.089c79.589-45.842,106.94-147.5,61.099-227.07
			C354.25,88.705,252.582,61.34,173.012,107.177z M390.433,173.833c42.771,74.243,17.25,169.093-57.006,211.864
			c-74.233,42.763-169.093,17.25-211.864-57.002c-42.762-74.236-17.245-169.097,57.006-211.873
			C252.811,74.059,347.671,99.59,390.433,173.833z"/>
	</g>
</g>
</svg>
