<?xml version="1.0" encoding="utf-8"?>
<!-- Generator: Adobe Illustrator 16.0.0, SVG Export Plug-In . SVG Version: 6.00 Build 0)  -->
<!DOCTYPE svg PUBLIC "-//W3C//DTD SVG 1.1//EN" "http://www.w3.org/Graphics/SVG/1.1/DTD/svg11.dtd">
<svg version="1.1" id="Layer_1" xmlns="http://www.w3.org/2000/svg" xmlns:xlink="http://www.w3.org/1999/xlink" x="0px" y="0px"
	 width="512px" height="512px" viewBox="0 0 512 512" enable-background="new 0 0 512 512" xml:space="preserve">
<g>
	<circle fill="#97C03C" cx="256" cy="256" r="239.833"/>
	<circle fill="#FFFFFF" cx="256" cy="256" r="204.236"/>
	<circle fill="#97C03C" cx="256" cy="256" r="169.529"/>
</g>
<g>
	<path fill-rule="evenodd" clip-rule="evenodd" fill="#FFFFFF" d="M271.111,161.947c0.183,0.25,0.345,0.7,0.55,0.721
		c4.774,0.472,8.461,3.182,11.862,6.144c4.685,4.08,9.128,8.442,13.574,12.787c3.053,2.983,5.888,6.189,8.906,9.21
		c2.846,2.848,5.953,5.445,8.672,8.404c3.438,3.743,6.746,7.628,9.832,11.665c2.437,3.188,3.497,6.967,3.494,11.047
		c-0.022,32.566,0.021,65.134-0.031,97.701c-0.014,8.818-2.941,16.56-9.623,22.517c-4.512,4.021-9.848,6.276-15.931,7.167
		c-8.795,1.287-17.591,0.498-26.377,0.573c-20.751,0.178-41.508,0.272-62.257-0.021c-13.453-0.189-25.905-8.005-28.975-23.405
		c-0.92-4.612-0.767-9.477-0.773-14.226c-0.05-40.03-0.05-80.059,0.001-120.088c0.011-8.671,2.889-16.276,9.408-22.207
		c4.618-4.202,10.028-6.813,16.335-7.373c0.379-0.034,0.729-0.403,1.093-0.617C230.952,161.947,251.032,161.947,271.111,161.947z
		 M197.625,255.979c0,20.262-0.013,40.525,0.016,60.787c0.004,2.49,0.049,5.006,0.402,7.463c0.472,3.279,2.293,5.946,4.701,8.144
		c3.287,2.998,7.344,3.716,11.637,3.713c26.262-0.018,52.522,0.002,78.784-0.024c2.92-0.004,5.848-0.12,8.756-0.372
		c4.4-0.382,7.565-2.814,10.03-6.354c1.961-2.815,2.51-5.996,2.516-9.299c0.027-16.222,0.013-32.443,0.013-48.665
		c0-14.447,0.056-28.895-0.032-43.34c-0.029-4.663-1.15-7.306-6.4-8.11c-2.567-0.393-5.182-0.639-7.778-0.669
		c-7.467-0.087-14.936-0.019-22.403-0.036c-3.786-0.009-6.68-2.893-6.728-6.648c-0.123-9.411-0.217-18.823-0.398-28.232
		c-0.027-1.426-0.319-2.891-0.744-4.258c-0.894-2.879-2.826-4.196-5.849-4.197c-17.018-0.003-34.036-0.017-51.054,0.024
		c-1.497,0.003-3.033,0.213-4.483,0.589c-6.747,1.748-10.971,7.755-10.978,14.842C197.611,212.884,197.625,234.432,197.625,255.979z
		"/>
	<path fill-rule="evenodd" clip-rule="evenodd" fill="#FFFFFF" d="M255.879,248.238c-11.687,0-23.374-0.03-35.061,0.018
		c-3.773,0.015-6.446-1.812-7.604-5.726c-0.51-1.727,1.002-5.483,2.796-6.292c1.653-0.746,3.507-1.467,5.276-1.474
		c23.19-0.096,46.381-0.075,69.572-0.052c3.225,0.003,5.784,1.141,7.403,4.238c1.839,3.519-0.85,7.89-4.096,8.868
		c-1.023,0.309-2.146,0.401-3.226,0.403C279.254,248.248,267.566,248.238,255.879,248.238z"/>
	<path fill-rule="evenodd" clip-rule="evenodd" fill="#FFFFFF" d="M256.2,292.734c11.872,0,23.745,0.039,35.616-0.022
		c3.968-0.021,6.807,3.067,7.107,6.422c0.27,3.004-2.766,6.76-6.202,6.797c-1.452,0.016-2.901,0.293-4.352,0.294
		c-22.152,0.021-44.306,0.012-66.458,0.018c-3.13,0.001-5.87-0.773-7.698-3.583c-1.462-2.247-1.243-4.54,0.047-6.662
		c1.306-2.148,3.393-3.257,5.957-3.259C232.212,292.729,244.206,292.734,256.2,292.734z"/>
	<path fill-rule="evenodd" clip-rule="evenodd" fill="#FFFFFF" d="M248.973,263.717c9.425,0,18.851-0.02,28.276,0.008
		c4.976,0.015,8.464,4.819,6.587,9.238c-1.267,2.979-3.902,4.266-7.037,4.271c-18.728,0.039-37.456,0.038-56.184,0.004
		c-3.656-0.007-6.586-2.493-7.397-6.024c-0.578-2.514,2.02-6.42,4.8-7.093c1.048-0.253,2.152-0.384,3.231-0.388
		C230.49,263.704,239.731,263.717,248.973,263.717z"/>
</g>
</svg>
