<?xml version="1.0" encoding="utf-8"?>
<!-- Generator: Adobe Illustrator 16.0.0, SVG Export Plug-In . SVG Version: 6.00 Build 0)  -->
<!DOCTYPE svg PUBLIC "-//W3C//DTD SVG 1.1//EN" "http://www.w3.org/Graphics/SVG/1.1/DTD/svg11.dtd">
<svg version="1.1" id="Layer_1" xmlns="http://www.w3.org/2000/svg" xmlns:xlink="http://www.w3.org/1999/xlink" x="0px" y="0px"
	 width="512px" height="512px" viewBox="0 0 512 512" enable-background="new 0 0 512 512" xml:space="preserve">
<g>
	<g>
		<path fill="none" stroke="#686868" stroke-width="4.7778" stroke-miterlimit="10" d="M90.269,346.724
			c-52.728-91.539-21.267-208.468,70.267-261.191c91.539-52.728,208.473-21.262,261.196,70.267
			c52.729,91.533,21.267,208.467-70.267,261.191C259.927,469.719,142.992,438.262,90.269,346.724z"/>
		<path fill="#727272" d="M154.125,401.677l-12.351,14.707c61.808,42.612,145.181,48.795,214.459,8.889l-9.537-16.55
			C284.562,444.5,209.891,439.335,154.125,401.677z"/>
		<path fill="#727272" d="M173.012,107.177c-79.58,45.842-106.931,147.509-61.094,227.08
			c45.837,79.579,147.505,106.921,227.065,61.089c79.589-45.842,106.94-147.5,61.099-227.07
			C354.25,88.705,252.582,61.34,173.012,107.177z M390.433,173.833c42.771,74.242,17.25,169.093-57.006,211.864
			c-74.233,42.763-169.093,17.25-211.864-57.002c-42.762-74.237-17.245-169.097,57.006-211.873
			C252.811,74.059,347.671,99.59,390.433,173.833z"/>
	</g>
	<g>
		<path fill-rule="evenodd" clip-rule="evenodd" fill="#686868" d="M231.804,315.733c0-2.613-0.068-5.157,0.029-7.695
			c0.049-1.278-0.432-1.892-1.541-2.503c-15.938-8.781-25.589-22.075-28.516-40.109c-4.446-27.393,14.084-54.686,41.251-60.802
			c31.747-7.149,61.936,13.765,66.386,45.993c3.019,21.849-8.165,43.722-28.002,54.509c-1.746,0.95-2.396,1.951-2.246,3.872
			c0.169,2.172,0.039,4.366,0.039,6.736C263.383,315.733,247.714,315.733,231.804,315.733z"/>
		<path fill-rule="evenodd" clip-rule="evenodd" fill="#686868" d="M279.131,326.638c0,2.695,0.218,5.202-0.043,7.657
			c-0.623,5.881-5.201,10.063-11.154,10.467c-0.43,0.029-0.859,0.078-1.259,0.115c-0.893,4.38-1.695,5.006-6.261,4.994
			c-3.515-0.01-7.028,0.002-10.542-0.009c-3.846-0.012-4.919-0.964-5.436-4.97c-4.153-0.065-7.755-1.464-10.366-4.941
			c-3.015-4.012-2.148-8.629-2.269-13.313C247.593,326.638,263.271,326.638,279.131,326.638z"/>
		<path fill-rule="evenodd" clip-rule="evenodd" fill="#686868" d="M262.762,176.726c0,2.337,0.067,4.676-0.016,7.01
			c-0.156,4.418-3.146,7.468-7.236,7.489c-4.055,0.021-7.161-3.082-7.254-7.462c-0.1-4.671-0.098-9.348-0.015-14.02
			c0.081-4.49,3.227-7.665,7.354-7.615c4.033,0.049,7.026,3.185,7.154,7.587C262.816,172.051,262.762,174.39,262.762,176.726z"/>
		<path fill-rule="evenodd" clip-rule="evenodd" fill="#686868" d="M212.949,203.813c-0.188,3.688-1.46,5.969-4.109,7.281
			c-2.644,1.309-5.426,1.223-7.591-0.776c-4.018-3.71-7.915-7.573-11.608-11.605c-2.486-2.714-2.017-6.952,0.601-9.533
			c2.643-2.606,6.812-2.997,9.542-0.479c3.969,3.658,7.767,7.515,11.445,11.466C212.243,201.256,212.574,202.981,212.949,203.813z"
			/>
		<path fill-rule="evenodd" clip-rule="evenodd" fill="#686868" d="M177.629,261.734c-2.483-0.001-4.968,0.057-7.448-0.014
			c-3.829-0.109-6.843-3.068-6.996-6.766c-0.168-4.022,2.562-7.465,6.542-7.63c5.322-0.221,10.668-0.226,15.988,0.011
			c3.845,0.171,6.676,3.717,6.501,7.49c-0.178,3.836-3.2,6.794-7.137,6.896C182.598,261.786,180.112,261.734,177.629,261.734z"/>
		<path fill-rule="evenodd" clip-rule="evenodd" fill="#686868" d="M333.218,261.736c-2.411,0-4.823,0.044-7.232-0.01
			c-4.045-0.094-7.119-3.129-7.207-7.044c-0.084-3.812,2.78-7.223,6.643-7.369c5.252-0.198,10.522-0.201,15.773-0.001
			c3.982,0.151,6.778,3.575,6.625,7.569c-0.146,3.803-3.206,6.769-7.151,6.854c-2.482,0.054-4.968,0.01-7.45,0.01
			C333.218,261.742,333.218,261.738,333.218,261.736z"/>
		<path fill-rule="evenodd" clip-rule="evenodd" fill="#686868" d="M322.945,195.344c-0.439,0.844-0.997,2.743-2.195,4.058
			c-3.244,3.558-6.716,6.915-10.181,10.264c-3.103,2.998-7.535,2.941-10.39-0.003c-2.811-2.896-2.79-7.196,0.158-10.224
			c3.414-3.505,6.855-6.986,10.39-10.37c2.268-2.172,5.022-2.643,7.902-1.34C321.411,188.987,322.81,191.259,322.945,195.344z"/>
	</g>
</g>
</svg>
