<?xml version="1.0" encoding="utf-8"?>
<!-- Generator: Adobe Illustrator 16.0.0, SVG Export Plug-In . SVG Version: 6.00 Build 0)  -->
<!DOCTYPE svg PUBLIC "-//W3C//DTD SVG 1.1//EN" "http://www.w3.org/Graphics/SVG/1.1/DTD/svg11.dtd">
<svg version="1.1" id="Layer_1" xmlns="http://www.w3.org/2000/svg" xmlns:xlink="http://www.w3.org/1999/xlink" x="0px" y="0px"
	 width="512px" height="512px" viewBox="0 0 512 512" enable-background="new 0 0 512 512" xml:space="preserve">
<g>
	<path fill-rule="evenodd" clip-rule="evenodd" d="M255.996,409.693c-48.168,0.001-96.335,0-144.501,0.002
		c-13.804,0.001-22.854-8.644-23.061-22.359c-0.146-9.757-0.22-19.532,0.167-29.279c0.458-11.554,6.073-20.439,16.129-25.923
		c32.889-17.937,65.949-35.561,98.874-53.431c2.419-1.314,3.856-0.095,5.592,0.814c28.131,14.725,56.837,15.94,86.124,3.706
		c0.828-0.346,1.777-0.57,2.436-1.126c6.122-5.151,11.578-3.103,17.901,0.387c29.54,16.302,59.289,32.224,89.066,48.089
		c12.851,6.846,19.204,17.214,18.953,31.769c-0.141,8.218,0.028,16.441-0.031,24.661c-0.097,13.646-9.177,22.682-22.762,22.685
		C352.588,409.697,304.292,409.691,255.996,409.693z"/>
	<path fill-rule="evenodd" clip-rule="evenodd" d="M253.673,299.564c-26.898-0.862-49.306-14.09-65.81-37.552
		c-26.082-37.082-24.949-89.855,2.343-125.455c34.124-44.51,93.311-45.826,129.314-2.875c33.836,40.366,30.737,105.208-6.907,141.98
		C296.892,291.022,278.069,299.291,253.673,299.564z"/>
</g>
</svg>
